Sudo.mr.glyphspackage
{
glyphname = ampersand;
layers = (
{
background = {
hints = (
{
horizontal = 1;
options = 4;
place = (0,54);
target = (0,26);
type = TTStem;
},
{
horizontal = 1;
place = (0,0);
type = TTSnap;
},
{
horizontal = 1;
options = 4;
place = (0,478);
target = (0,41);
type = TTStem;
},
{
horizontal = 1;
options = 4;
place = (0,256);
target = (0,32);
type = TTStem;
},
{
horizontal = 1;
options = 4;
place = (0,256);
target = (0,20,0,33);
type = TTShift;
},
{
horizontal = 1;
options = 4;
other1 = (0,9,0,13);
place = (0,320);
target = (0,35);
type = TTInterpolate;
},
{
horizontal = 1;
other1 = (0,35);
place = (0,542);
target = (0,3);
type = TTInterpolate;
}
);
shapes = (
{
closed = 1;
nodes = (
(320,529,l),
(291,536,o),
(249,542,o),
(215,542,cs),
(104,542,o),
(50,482,o),
(50,402,cs),
(50,340,o),
(87,288,o),
(175,274,c),
(175,306,l),
(63,277,o),
(35,203,o),
(35,145,cs),
(35,64,o),
(79,-10,o),
(208,-10,cs),
(255,-10,o),
(317,1,o),
(368,18,c),
(368,288,l),
(296,288,l),
(296,26,l),
(351,82,l),
(306,62,o),
(254,54,o),
(204,54,cs),
(124,54,o),
(108,103,o),
(108,147,cs),
(108,199,o),
(133,256,o),
(238,256,cs),
(428,256,l),
(428,320,l),
(226,320,ls),
(141,320,o),
(122,357,o),
(122,399,cs),
(122,437,o),
(142,478,o),
(214,478,cs),
(247,478,o),
(280,473,o),
(308,468,c)
);
}
);
};
hints = (
{
horizontal = 1;
options = 4;
origin = (0,15);
target = (1,7);
type = TTStem;
},
{
horizontal = 1;
origin = (0,3);
type = TTSnap;
},
{
horizontal = 1;
options = 4;
origin = (0,3);
target = (0,28);
type = TTStem;
},
{
horizontal = 1;
options = 4;
origin = (0,22);
target = (1,2);
type = TTStem;
},
{
horizontal = 1;
options = 4;
origin = (1,2);
target = (0,19);
type = TTShift;
},
{
horizontal = 1;
options = 4;
origin = (1,2);
other1 = (0,9);
target = (0,22);
type = TTInterpolate;
},
{
horizontal = 1;
origin = (0,15);
other1 = (0,22);
target = (0,3);
type = TTInterpolate;
}
);
layerId = "95FB0C11-C828-4064-8966-34220AA4D426";
shapes = (
{
closed = 1;
nodes = (
(320,529,l),
(291,536,o),
(249,542,o),
(215,542,cs),
(104,542,o),
(50,482,o),
(50,402,cs),
(50,353,o),
(72,311,o),
(125,288,c),
(54,253,o),
(35,193,o),
(35,145,cs),
(35,64,o),
(79,-10,o),
(208,-10,cs),
(255,-10,o),
(317,1,o),
(368,18,c),
(368,256,l),
(428,256,l),
(428,320,l),
(226,320,ls),
(141,320,o),
(122,357,o),
(122,399,cs),
(122,437,o),
(142,478,o),
(214,478,cs),
(247,478,o),
(280,473,o),
(308,468,c)
);
},
{
closed = 1;
nodes = (
(108,199,o),
(133,256,o),
(238,256,cs),
(296,256,l),
(296,64,l),
(266,57,o),
(235,54,o),
(204,54,cs),
(124,54,o),
(108,103,o),
(108,147,cs)
);
}
);
width = 448;
},
{
background = {
shapes = (
{
closed = 1;
nodes = (
(332,526,l),
(299,535,o),
(254,542,o),
(217,542,cs),
(98,542,o),
(40,480,o),
(40,398,cs),
(40,334,o),
(80,280,o),
(175,266,c),
(175,314,l),
(55,284,o),
(25,208,o),
(25,149,cs),
(25,66,o),
(72,-10,o),
(208,-10,cs),
(258,-10,o),
(324,1,o),
(378,18,c),
(378,288,l),
(266,288,l),
(266,26,l),
(351,98,l),
(296,80,o),
(256,70,o),
(209,70,cs),
(149,70,o),
(138,113,o),
(138,152,cs),
(138,198,o),
(161,248,o),
(260,248,cs),
(438,248,l),
(438,328,l),
(249,328,ls),
(170,328,o),
(152,359,o),
(152,395,cs),
(152,427,o),
(170,462,o),
(234,462,cs),
(263,462,o),
(292,457,o),
(317,452,c)
);
}
);
};
layerId = "92967D72-867E-4A8B-929F-F44D834DD4C9";
shapes = (
{
closed = 1;
nodes = (
(332,526,l),
(299,535,o),
(254,542,o),
(217,542,cs),
(98,542,o),
(40,480,o),
(40,398,cs),
(40,352,o),
(61,311,o),
(106,287,c),
(42,250,o),
(25,195,o),
(25,149,cs),
(25,66,o),
(72,-10,o),
(208,-10,cs),
(258,-10,o),
(324,1,o),
(378,18,c),
(378,248,l),
(438,248,l),
(438,328,l),
(249,328,ls),
(170,328,o),
(152,359,o),
(152,395,cs),
(152,427,o),
(170,462,o),
(234,462,cs),
(263,462,o),
(292,457,o),
(317,452,c)
);
},
{
closed = 1;
nodes = (
(138,198,o),
(161,248,o),
(260,248,cs),
(266,248,l),
(266,75,l),
(248,72,o),
(229,70,o),
(209,70,cs),
(149,70,o),
(138,113,o),
(138,152,cs)
);
}
);
width = 448;
},
{
background = {
shapes = (
{
closed = 1;
nodes = (
(313,531,l),
(286,537,o),
(246,542,o),
(214,542,cs),
(108,542,o),
(56,483,o),
(56,404,cs),
(56,345,o),
(91,293,o),
(175,279,c),
(175,299,l),
(68,271,o),
(41,199,o),
(41,143,cs),
(41,63,o),
(83,-10,o),
(208,-10,cs),
(253,-10,o),
(313,1,o),
(362,18,c),
(362,288,l),
(314,288,l),
(314,26,l),
(351,62,l),
(312,41,o),
(253,34,o),
(201,34,cs),
(115,34,o),
(90,85,o),
(90,141,cs),
(90,201,o),
(120,266,o),
(225,266,cs),
(422,266,l),
(422,310,l),
(212,310,ls),
(129,310,o),
(104,354,o),
(104,404,cs),
(104,454,o),
(130,498,o),
(207,498,cs),
(241,498,o),
(275,495,o),
(306,490,c)
);
}
);
};
layerId = "7DDCEF54-C770-4FAD-B154-EE8058BAA7E5";
shapes = (
{
closed = 1;
nodes = (
(313,531,l),
(286,537,o),
(246,542,o),
(214,542,cs),
(108,542,o),
(56,483,o),
(56,404,cs),
(56,354,o),
(81,309,o),
(141,288,c),
(62,255,o),
(41,193,o),
(41,143,cs),
(41,63,o),
(83,-10,o),
(208,-10,cs),
(253,-10,o),
(313,1,o),
(362,18,c),
(362,266,l),
(422,266,l),
(422,310,l),
(212,310,ls),
(129,310,o),
(104,354,o),
(104,404,cs),
(104,454,o),
(130,498,o),
(207,498,cs),
(241,498,o),
(275,495,o),
(306,490,c)
);
},
{
closed = 1;
nodes = (
(90,201,o),
(120,266,o),
(225,266,cs),
(314,266,l),
(314,47,l),
(279,37,o),
(238,34,o),
(201,34,cs),
(115,34,o),
(90,85,o),
(90,141,cs)
);
}
);
width = 448;
}
);
unicode = 38;
}
{
glyphname = quotesingle;
layers = (
{
hints = (
{
horizontal = 1;
origin = (0,1);
type = TTSnap;
},
{
horizontal = 1;
origin = (0,2);
type = TTSnap;
}
);
layerId = "95FB0C11-C828-4064-8966-34220AA4D426";
shapes = (
{
closed = 1;
nodes = (
(270,640,l),
(178,640,l),
(188,384,l),
(260,384,l)
);
}
);
width = 448;
},
{
layerId = "92967D72-867E-4A8B-929F-F44D834DD4C9";
shapes = (
{
closed = 1;
nodes = (
(290,640,l),
(158,640,l),
(168,384,l),
(280,384,l)
);
}
);
width = 448;
},
{
layerId = "7DDCEF54-C770-4FAD-B154-EE8058BAA7E5";
shapes = (
{
closed = 1;
nodes = (
(258,640,l),
(190,640,l),
(200,384,l),
(248,384,l)
);
}
);
width = 448;
}
);
unicode = 39;
}
{
glyphname = parenleft;
kernRight = parenleft;
layers = (
{
hints = (
{
horizontal = 1;
origin = (0,0);
type = TTSnap;
},
{
horizontal = 1;
origin = (0,6);
type = TTSnap;
},
{
options = 8;
origin = (0,3);
type = TTSnap;
},
{
options = 4;
origin = (0,3);
target = (0,10);
type = TTStem;
}
);
layerId = "95FB0C11-C828-4064-8966-34220AA4D426";
shapes = (
{
closed = 1;
nodes = (
(301,723,l),
(209,613,o),
(154,481,o),
(154,320,cs),
(154,159,o),
(210,26,o),
(302,-84,c),
(351,-43,l),
(268,56,o),
(228,182,o),
(228,320,cs),
(228,458,o),
(268,585,o),
(351,684,c)
);
}
);
width = 448;
},
{
layerId = "92967D72-867E-4A8B-929F-F44D834DD4C9";
shapes = (
{
closed = 1;
nodes = (
(281,723,l),
(189,613,o),
(134,481,o),
(134,320,cs),
(134,159,o),
(190,26,o),
(282,-84,c),
(371,-43,l),
(288,56,o),
(248,182,o),
(248,320,cs),
(248,458,o),
(288,585,o),
(371,684,c)
);
}
);
width = 448;
},
{
layerId = "7DDCEF54-C770-4FAD-B154-EE8058BAA7E5";
shapes = (
{
closed = 1;
nodes = (
(309,717,l),
(218,609,o),
(166,478,o),
(166,320,cs),
(166,162,o),
(218,31,o),
(309,-77,c),
(341,-52,l),
(258,49,o),
(216,179,o),
(216,320,cs),
(216,461,o),
(258,591,o),
(341,692,c)
);
}
);
width = 448;
}
);
unicode = 40;
}
{
glyphname = plus;
layers = (
{
hints = (
{
horizontal = 1;
options = 4;
origin = (0,4);
target = (0,1);
type = TTShift;
},
{
horizontal = 1;
origin = (0,7);
type = TTSnap;
},
{
horizontal = 1;
options = 4;
origin = (0,7);
stem = 0;
target = (0,4);
type = TTStem;
},
{
horizontal = 1;
options = 4;
origin = (0,7);
target = (0,10);
type = TTShift;
},
{
horizontal = 1;
origin = (0,7);
stem = -1;
target = (0,8);
type = TTStem;
},
{
horizontal = 1;
origin = (0,4);
stem = -1;
target = (0,3);
type = TTStem;
}
);
layerId = "95FB0C11-C828-4064-8966-34220AA4D426";
shapes = (
{
closed = 1;
nodes = (
(429,320,l),
(258,320,l),
(258,493,l),
(190,493,l),
(190,320,l),
(19,320,l),
(19,256,l),
(190,256,l),
(190,78,l),
(258,78,l),
(258,256,l),
(429,256,l)
);
}
);
width = 448;
},
{
layerId = "92967D72-867E-4A8B-929F-F44D834DD4C9";
shapes = (
{
closed = 1;
nodes = (
(429,336,l),
(278,336,l),
(278,492,l),
(170,492,l),
(170,336,l),
(19,336,l),
(19,240,l),
(170,240,l),
(170,79,l),
(278,79,l),
(278,240,l),
(429,240,l)
);
}
);
width = 448;
},
{
layerId = "7DDCEF54-C770-4FAD-B154-EE8058BAA7E5";
shapes = (
{
closed = 1;
nodes = (
(429,308,l),
(246,308,l),
(246,494,l),
(202,494,l),
(202,308,l),
(19,308,l),
(19,268,l),
(202,268,l),
(202,77,l),
(246,77,l),
(246,268,l),
(429,268,l)
);
}
);
width = 448;
}
);
unicode = 43;
}
{
glyphname = hyphen;
kernLeft = hyphen;
kernRight = hyphen;
layers = (
{
hints = (
{
horizontal = 1;
options = 4;
origin = (0,2);
target = (0,1);
type = TTStem;
},
{
horizontal = 1;
origin = (0,2);
type = TTSnap;
},
{
origin = lsb;
other1 = (0,2);
target = rsb;
type = TTInterpolate;
},
{
origin = lsb;
other1 = (0,3);
target = rsb;
type = TTInterpolate;
}
);
layerId = "95FB0C11-C828-4064-8966-34220AA4D426";
shapes = (
{
closed = 1;
nodes = (
(364,320,l),
(84,320,l),
(84,256,l),
(364,256,l)
);
}
);
width = 448;
},
{
guides = (
{
pos = (467,240);
}
);
layerId = "92967D72-867E-4A8B-929F-F44D834DD4C9";
shapes = (
{
closed = 1;
nodes = (
(384,336,l),
(64,336,l),
(64,240,l),
(384,240,l)
);
}
);
width = 448;
},
{
layerId = "7DDCEF54-C770-4FAD-B154-EE8058BAA7E5";
shapes = (
{
closed = 1;
nodes = (
(352,310,l),
(96,310,l),
(96,266,l),
(352,266,l)
);
}
);
width = 448;
}
);
unicode = 45;
}
{
glyphname = period;
layers = (
{
hints = (
{
horizontal = 1;
origin = (0,11);
stem = -1;
target = (0,5);
type = TTStem;
},
{
options = 8;
origin = (0,8);
type = TTSnap;
},
{
origin = (0,8);
stem = -1;
target = (0,2);
type = TTStem;
}
);
layerId = "95FB0C11-C828-4064-8966-34220AA4D426";
shapes = (
{
closed = 1;
nodes = (
(227,-10,o),
(256,12,o),
(256,54,cs),
(256,95,o),
(227,118,o),
(192,118,cs),
(157,118,o),
(128,95,o),
(128,54,cs),
(128,12,o),
(157,-10,o),
(192,-10,cs)
);
}
);
width = 448;
},
{
layerId = "92967D72-867E-4A8B-929F-F44D834DD4C9";
shapes = (
{
closed = 1;
nodes = (
(238,-10,o),
(276,19,o),
(276,74,cs),
(276,128,o),
(238,158,o),
(192,158,cs),
(146,158,o),
(108,128,o),
(108,74,cs),
(108,19,o),
(146,-10,o),
(192,-10,cs)
);
}
);
width = 448;
},
{
layerId = "7DDCEF54-C770-4FAD-B154-EE8058BAA7E5";
shapes = (
{
closed = 1;
nodes = (
(220,-10,o),
(244,8,o),
(244,42,cs),
(244,75,o),
(220,94,o),
(192,94,cs),
(164,94,o),
(140,75,o),
(140,42,cs),
(140,8,o),
(164,-10,o),
(192,-10,cs)
);
}
);
width = 448;
}
);
unicode = 46;
}
{
glyphname = slash;
layers = (
{
hints = (
{
horizontal = 1;
origin = (0,3);
type = TTSnap;
},
{
horizontal = 1;
origin = (0,1);
type = TTSnap;
},
{
options = 8;
origin = (0,2);
type = TTSnap;
},
{
options = 8;
origin = (0,0);
type = TTSnap;
},
{
options = 4;
origin = (0,0);
target = (0,1);
type = TTStem;
},
{
options = 4;
origin = (0,2);
target = (0,3);
type = TTStem;
}
);
layerId = "95FB0C11-C828-4064-8966-34220AA4D426";
shapes = (
{
closed = 1;
nodes = (
(329,698,l),
(258,710,l),
(119,-57,l),
(190,-69,l)
);
}
);
width = 448;
},
{
layerId = "92967D72-867E-4A8B-929F-F44D834DD4C9";
shapes = (
{
closed = 1;
nodes = (
(349,698,l),
(238,710,l),
(99,-57,l),
(210,-69,l)
);
}
);
width = 448;
},
{
layerId = "7DDCEF54-C770-4FAD-B154-EE8058BAA7E5";
shapes = (
{
closed = 1;
nodes = (
(318,700,l),
(270,708,l),
(130,-59,l),
(178,-67,l)
);
}
);
width = 448;
}
);
unicode = 47;
}
{
glyphname = zero;
layers = (
{
background = {
hints = (
{
horizontal = 1;
options = 4;
place = (0,56);
target = (1,11);
type = TTStem;
},
{
horizontal = 1;
options = 4;
place = (0,520);
target = (1,5);
type = TTStem;
},
{
options = 4;
place = (0,114);
target = (1,2);
type = TTStem;
},
{
options = 4;
place = (0,334);
target = (1,8);
type = TTStem;
},
{
options = 8;
place = (0,0);
type = TTSnap;
},
{
options = 8;
place = (0,0);
type = TTSnap;
},
{
horizontal = 1;
options = 4;
other1 = (1,11,2,1);
place = (0,520);
target = (1,5);
type = TTInterpolate;
},
{
horizontal = 1;
options = 4;
other1 = (1,11,2,3);
place = (0,520);
target = (1,5);
type = TTInterpolate;
},
{
horizontal = 1;
options = 4;
other1 = (1,5,2,3);
place = (0,520);
target = (1,5);
type = TTInterpolate;
},
{
horizontal = 1;
options = 4;
other1 = (1,5,2,1);
place = (0,520);
target = (1,5);
type = TTInterpolate;
},
{
options = 4;
other1 = (1,11,2,3);
place = (0,334);
target = (1,8);
type = TTInterpolate;
},
{
options = 4;
other1 = (1,5,2,1);
place = (0,334);
target = (1,8);
type = TTInterpolate;
}
);
shapes = (
{
closed = 1;
nodes = (
(350,-10,o),
(408,112,o),
(408,287,cs),
(408,469,o),
(350,586,o),
(224,586,cs),
(101,586,o),
(40,469,o),
(40,287,cs),
(40,112,o),
(101,-10,o),
(224,-10,cs)
);
},
{
closed = 1;
nodes = (
(146,56,o),
(114,128,o),
(114,287,cs),
(114,448,o),
(146,520,o),
(224,520,cs),
(302,520,o),
(334,448,o),
(334,287,cs),
(334,128,o),
(302,56,o),
(224,56,cs)
);
},
{
closed = 1;
nodes = (
(367,192,l),
(88,471,l),
(88,384,l),
(367,106,l)
);
}
);
};
hints = (
{
horizontal = 1;
options = 4;
origin = (0,11);
target = (1,9);
type = TTStem;
},
{
horizontal = 1;
options = 4;
origin = (0,5);
target = (2,2);
type = TTStem;
},
{
options = 4;
origin = (0,8);
target = (1,2);
type = TTStem;
},
{
options = 4;
origin = (0,2);
target = (2,5);
type = TTStem;
},
{
options = 8;
origin = (0,8);
type = TTSnap;
},
{
options = 8;
origin = (0,2);
type = TTSnap;
},
{
horizontal = 1;
options = 4;
origin = (1,9);
other1 = (2,8);
target = (2,2);
type = TTInterpolate;
},
{
horizontal = 1;
options = 4;
origin = (1,9);
other1 = (1,6);
target = (2,2);
type = TTInterpolate;
},
{
horizontal = 1;
options = 4;
origin = (1,9);
other1 = (1,5);
target = (2,2);
type = TTInterpolate;
},
{
horizontal = 1;
options = 4;
origin = (1,9);
other1 = (2,9);
target = (2,2);
type = TTInterpolate;
},
{
options = 4;
origin = (1,2);
other1 = (1,6);
target = (2,5);
type = TTInterpolate;
},
{
options = 4;
origin = (1,2);
other1 = (2,9);
target = (2,5);
type = TTInterpolate;
}
);
layerId = "95FB0C11-C828-4064-8966-34220AA4D426";
shapes = (
{
closed = 1;
nodes = (
(350,-10,o),
(408,112,o),
(408,287,cs),
(408,469,o),
(350,586,o),
(224,586,cs),
(101,586,o),
(40,469,o),
(40,287,cs),
(40,112,o),
(101,-10,o),
(224,-10,cs)
);
},
{
closed = 1;
nodes = (
(146,56,o),
(114,128,o),
(114,287,cs),
(114,312,o),
(115,336,o),
(116,356,c),
(322,151,l),
(306,86,o),
(275,56,o),
(224,56,cs)
);
},
{
closed = 1;
nodes = (
(144,491,o),
(175,520,o),
(224,520,cs),
(302,520,o),
(334,448,o),
(334,287,cs),
(334,265,o),
(333,244,o),
(332,227,c),
(128,431,l)
);
}
);
width = 448;
},
{
background = {
shapes = (
{
closed = 1;
nodes = (
(357,-10,o),
(418,112,o),
(418,287,cs),
(418,469,o),
(357,586,o),
(224,586,cs),
(95,586,o),
(30,469,o),
(30,287,cs),
(30,112,o),
(95,-10,o),
(224,-10,cs)
);
},
{
closed = 1;
nodes = (
(167,72,o),
(146,139,o),
(146,287,cs),
(146,437,o),
(167,504,o),
(224,504,cs),
(281,504,o),
(302,437,o),
(302,287,cs),
(302,139,o),
(281,72,o),
(224,72,cs)
);
},
{
closed = 1;
nodes = (
(367,203,l),
(88,482,l),
(88,373,l),
(367,95,l)
);
}
);
};
layerId = "92967D72-867E-4A8B-929F-F44D834DD4C9";
shapes = (
{
closed = 1;
nodes = (
(357,-10,o),
(418,112,o),
(418,287,cs),
(418,469,o),
(357,586,o),
(224,586,cs),
(95,586,o),
(30,469,o),
(30,287,cs),
(30,112,o),
(95,-10,o),
(224,-10,cs)
);
},
{
closed = 1;
nodes = (
(167,72,o),
(146,139,o),
(146,287,cs),
(146,297,o),
(146,307,o),
(146,315,c),
(295,167,l),
(284,101,o),
(262,72,o),
(224,72,cs)
);
},
{
closed = 1;
nodes = (
(165,475,o),
(187,504,o),
(224,504,cs),
(281,504,o),
(302,437,o),
(302,287,cs),
(302,281,o),
(302,273,o),
(302,268,c),
(155,415,l)
);
}
);
width = 448;
},
{
background = {
shapes = (
{
closed = 1;
nodes = (
(346,-10,o),
(402,112,o),
(402,287,cs),
(402,469,o),
(346,586,o),
(224,586,cs),
(105,586,o),
(46,469,o),
(46,287,cs),
(46,112,o),
(105,-10,o),
(224,-10,cs)
);
},
{
closed = 1;
nodes = (
(135,32,o),
(98,122,o),
(98,287,cs),
(98,454,o),
(135,544,o),
(224,544,cs),
(313,544,o),
(350,454,o),
(350,287,cs),
(350,122,o),
(313,32,o),
(224,32,cs)
);
},
{
closed = 1;
nodes = (
(367,177,l),
(88,456,l),
(88,399,l),
(367,121,l)
);
}
);
};
layerId = "7DDCEF54-C770-4FAD-B154-EE8058BAA7E5";
shapes = (
{
closed = 1;
nodes = (
(346,-10,o),
(402,112,o),
(402,287,cs),
(402,469,o),
(346,586,o),
(224,586,cs),
(105,586,o),
(46,469,o),
(46,287,cs),
(46,112,o),
(105,-10,o),
(224,-10,cs)
);
},
{
closed = 1;
nodes = (
(135,32,o),
(98,122,o),
(98,287,cs),
(98,323,o),
(100,356,o),
(103,384,c),
(338,150,l),
(321,74,o),
(284,32,o),
(224,32,cs)
);
},
{
closed = 1;
nodes = (
(130,506,o),
(166,544,o),
(224,544,cs),
(313,544,o),
(350,454,o),
(350,287,cs),
(350,255,o),
(349,225,o),
(346,198,c),
(112,432,l)
);
}
);
width = 448;
}
);
unicode = 48;
}
{
glyphname = one;
layers = (
{
hints = (
{
horizontal = 1;
options = 4;
origin = (0,10);
target = (0,8);
type = TTStem;
},
{
horizontal = 1;
options = 4;
origin = (0,8);
target = (0,2);
type = TTShift;
},
{
horizontal = 1;
origin = (0,4);
type = TTSnap;
},
{
horizontal = 1;
options = 4;
origin = (0,10);
other1 = (0,7);
target = (0,4);
type = TTInterpolate;
},
{
options = 4;
origin = (0,8);
target = (0,2);
type = TTStem;
},
{
options = 4;
origin = (0,2);
other1 = (0,4);
target = (0,8);
type = TTInterpolate;
},
{
options = 8;
origin = (0,10);
type = TTSnap;
},
{
options = 8;
origin = (0,0);
type = TTSnap;
},
{
options = 8;
origin = (0,8);
type = TTSnap;
}
);
layerId = "95FB0C11-C828-4064-8966-34220AA4D426";
shapes = (
{
closed = 1;
nodes = (
(404,0,l),
(404,64,l),
(270,64,l),
(272,580,l),
(221,580,l),
(54,439,l),
(97,386,l),
(200,477,l),
(198,64,l),
(64,64,l),
(64,0,l)
);
}
);
width = 448;
},
{
layerId = "92967D72-867E-4A8B-929F-F44D834DD4C9";
shapes = (
{
closed = 1;
nodes = (
(414,0,l),
(414,80,l),
(290,80,l),
(292,580,l),
(221,580,l),
(34,439,l),
(86,373,l),
(180,445,l),
(178,80,l),
(54,80,l),
(54,0,l)
);
}
);
width = 448;
},
{
layerId = "7DDCEF54-C770-4FAD-B154-EE8058BAA7E5";
shapes = (
{
closed = 1;
nodes = (
(398,0,l),
(398,42,l),
(258,42,l),
(260,580,l),
(221,580,l),
(66,439,l),
(93,407,l),
(212,516,l),
(210,42,l),
(70,42,l),
(70,0,l)
);
}
);
width = 448;
}
);
unicode = 49;
}
{
glyphname = two;
layers = (
{
background = {
shapes = (
{
closed = 1;
nodes = (
(82,504,l),
(124,513,o),
(157,518,o),
(200,518,cs),
(289,518,o),
(320,489,o),
(320,405,cs),
(320,331,o),
(290,301,o),
(214,271,cs),
(144,243,o),
(67,209,o),
(61,82,cs),
(57,0,l),
(388,0,l),
(388,64,l),
(134,64,l),
(135,85,ls),
(138,147,o),
(161,177,o),
(250,214,cs),
(335,249,o),
(396,292,o),
(396,411,cs),
(396,523,o),
(330,582,o),
(205,582,cs),
(151,582,o),
(106,576,o),
(68,566,c)
);
}
);
};
hints = (
{
horizontal = 1;
options = 4;
origin = (0,26);
target = (0,3);
type = TTStem;
},
{
horizontal = 1;
options = 4;
origin = (0,13);
target = (0,16);
type = TTStem;
},
{
options = 4;
origin = (0,13);
target = (0,29);
type = TTShift;
},
{
origin = (0,14);
target = (0,23);
type = TTShift;
},
{
options = 4;
origin = (0,23);
target = (0,6);
type = TTStem;
},
{
options = 4;
origin = (0,13);
target = (0,16);
type = TTStem;
},
{
options = 8;
origin = (0,13);
type = TTSnap;
},
{
options = 8;
origin = (0,14);
type = TTSnap;
},
{
horizontal = 1;
options = 4;
origin = (0,3);
other1 = (0,20,0);
target = (0,13);
type = TTInterpolate;
},
{
horizontal = 1;
options = 4;
origin = (0,26);
other1 = (0,12,0);
target = (0,16);
type = TTInterpolate;
}
);
layerId = "95FB0C11-C828-4064-8966-34220AA4D426";
shapes = (
{
closed = 1;
nodes = (
(82,504,l),
(124,513,o),
(157,518,o),
(200,518,cs),
(290,518,o),
(320,489,o),
(320,405,cs),
(320,364,o),
(310,335,o),
(289,314,cs),
(225,250,o),
(70,267,o),
(61,82,cs),
(57,0,l),
(388,0,l),
(388,64,l),
(134,64,l),
(135,85,ls),
(141,215,o),
(270,195,o),
(347,272,cs),
(378,303,o),
(396,345,o),
(396,411,cs),
(396,523,o),
(330,582,o),
(205,582,cs),
(151,582,o),
(106,576,o),
(68,566,c)
);
}
);
width = 448;
},
{
background = {
shapes = (
{
closed = 1;
nodes = (
(72,482,l),
(110,491,o),
(141,496,o),
(180,496,cs),
(261,496,o),
(290,469,o),
(290,395,cs),
(290,326,o),
(268,298,o),
(200,270,cs),
(105,231,o),
(54,187,o),
(50,85,cs),
(47,0,l),
(398,0,l),
(398,80,l),
(165,80,l),
(165,85,ls),
(165,140,o),
(178,173,o),
(258,209,cs),
(343,246,o),
(406,298,o),
(406,404,cs),
(406,517,o),
(336,576,o),
(203,576,cs),
(146,576,o),
(98,567,o),
(58,556,c)
);
}
);
};
layerId = "92967D72-867E-4A8B-929F-F44D834DD4C9";
shapes = (
{
closed = 1;
nodes = (
(72,482,l),
(110,491,o),
(141,496,o),
(180,496,cs),
(260,496,o),
(290,469,o),
(290,395,cs),
(290,355,o),
(282,328,o),
(262,308,cs),
(202,248,o),
(56,256,o),
(50,85,cs),
(47,0,l),
(398,0,l),
(398,80,l),
(165,80,l),
(165,85,ls),
(165,211,o),
(270,186,o),
(354,270,cs),
(387,303,o),
(406,345,o),
(406,404,cs),
(406,518,o),
(337,576,o),
(203,576,cs),
(146,576,o),
(98,567,o),
(58,556,c)
);
}
);
width = 448;
},
{
background = {
shapes = (
{
closed = 1;
nodes = (
(88,519,l),
(129,528,o),
(167,532,o),
(207,532,cs),
(298,532,o),
(338,493,o),
(338,407,cs),
(338,325,o),
(306,298,o),
(225,262,cs),
(110,211,o),
(71,164,o),
(67,80,cs),
(63,0,l),
(382,0,l),
(382,44,l),
(116,44,l),
(118,80,ls),
(122,146,o),
(147,185,o),
(243,225,cs),
(327,260,o),
(390,298,o),
(390,410,cs),
(390,519,o),
(327,576,o),
(206,576,cs),
(159,576,o),
(111,567,o),
(79,558,c)
);
}
);
};
layerId = "7DDCEF54-C770-4FAD-B154-EE8058BAA7E5";
shapes = (
{
closed = 1;
nodes = (
(88,519,l),
(129,528,o),
(167,532,o),
(207,532,cs),
(298,532,o),
(338,494,o),
(338,407,cs),
(338,362,o),
(328,333,o),
(305,310,cs),
(242,247,o),
(75,244,o),
(67,80,cs),
(63,0,l),
(382,0,l),
(382,44,l),
(116,44,l),
(118,80,ls),
(126,226,o),
(268,208,o),
(345,285,cs),
(373,313,o),
(390,352,o),
(390,410,cs),
(390,519,o),
(327,576,o),
(206,576,cs),
(159,576,o),
(111,567,o),
(79,558,c)
);
}
);
width = 448;
}
);
unicode = 50;
}
{
glyphname = four;
layers = (
{
background = {
hints = (
{
horizontal = 1;
place = (0,0);
type = TTSnap;
},
{
horizontal = 1;
place = (0,0);
type = TTSnap;
},
{
horizontal = 1;
other1 = (0,17);
place = (0,592);
target = (0,5);
type = TTInterpolate;
},
{
horizontal = 1;
options = 4;
place = (0,192);
target = (0,8);
type = TTStem;
},
{
horizontal = 1;
options = 4;
place = (0,128);
target = (0,1);
type = TTShift;
},
{
horizontal = 1;
options = 4;
place = (0,192);
target = (0,4);
type = TTShift;
},
{
horizontal = 1;
options = 4;
other1 = (0,7,0,12);
place = (0,592);
target = (0,5);
type = TTInterpolate;
},
{
options = 4;
place = (0,339);
target = (0,1);
type = TTStem;
},
{
options = 4;
place = (0,339);
target = (0,4);
type = TTShift;
},
{
options = 4;
place = (0,267);
target = (0,8);
type = TTShift;
},
{
options = 4;
place = (0,118);
target = (0,9);
type = TTStem;
},
{
options = 8;
place = (0,0);
type = TTSnap;
},
{
options = 8;
place = (0,0);
type = TTSnap;
},
{
place = (0,423);
target = (0,2);
type = TTShift;
}
);
shapes = (
{
closed = 1;
nodes = (
(339,0,l),
(339,128,l),
(423,128,l),
(423,192,l),
(339,192,l),
(339,592,l),
(267,518,l),
(267,392,l),
(267,192,l),
(118,192,l),
(137,369,o),
(194,481,o),
(320,515,c),
(339,592,l),
(145,548,o),
(53,400,o),
(41,128,c),
(267,128,l),
(267,0,l)
);
}
);
};
hints = (
{
horizontal = 1;
origin = (0,10);
type = TTSnap;
},
{
horizontal = 1;
origin = (0,5);
type = TTSnap;
},
{
horizontal = 1;
origin = (0,10);
other1 = (0,9);
target = (0,5);
type = TTInterpolate;
},
{
horizontal = 1;
options = 4;
origin = (0,9);
target = (1,4);
type = TTStem;
},
{
horizontal = 1;
options = 4;
origin = (0,9);
target = (0,1);
type = TTShift;
},
{
horizontal = 1;
options = 4;
origin = (1,4);
target = (0,4);
type = TTShift;
},
{
horizontal = 1;
options = 4;
origin = (0,10);
other1 = (1,2);
target = (0,5);
type = TTInterpolate;
},
{
options = 4;
origin = (0,9);
target = (0,1);
type = TTStem;
},
{
options = 4;
origin = (0,1);
target = (0,4);
type = TTShift;
},
{
options = 4;
origin = (0,9);
target = (1,4);
type = TTShift;
},
{
options = 4;
origin = (0,8);
target = (1,5);
type = TTStem;
},
{
options = 8;
origin = (0,8);
type = TTSnap;
},
{
options = 8;
origin = (0,9);
type = TTSnap;
},
{
origin = (0,1);
target = (0,2);
type = TTShift;
}
);
layerId = "95FB0C11-C828-4064-8966-34220AA4D426";
shapes = (
{
closed = 1;
nodes = (
(339,0,l),
(339,128,l),
(423,128,l),
(423,192,l),
(339,192,l),
(339,592,l),
(145,548,o),
(53,400,o),
(41,128,c),
(267,128,l),
(267,0,l)
);
},
{
closed = 1;
nodes = (
(134,341,o),
(177,445,o),
(267,494,c),
(267,392,l),
(267,192,l),
(118,192,l)
);
}
);
width = 448;
},
{
background = {
shapes = (
{
closed = 1;
nodes = (
(359,0,l),
(359,120,l),
(433,120,l),
(433,200,l),
(359,200,l),
(359,592,l),
(255,518,l),
(247,392,l),
(247,200,l),
(147,200,l),
(161,359,o),
(218,471,o),
(340,509,c),
(359,592,l),
(142,560,o),
(41,399,o),
(31,120,c),
(247,120,l),
(247,0,l)
);
}
);
};
layerId = "92967D72-867E-4A8B-929F-F44D834DD4C9";
shapes = (
{
closed = 1;
nodes = (
(359,0,l),
(359,120,l),
(433,120,l),
(433,200,l),
(359,200,l),
(359,592,l),
(142,560,o),
(41,399,o),
(31,120,c),
(247,120,l),
(247,0,l)
);
},
{
closed = 1;
nodes = (
(157,314,o),
(190,404,o),
(251,459,c),
(247,392,l),
(247,200,l),
(147,200,l)
);
}
);
width = 448;
},
{
background = {
shapes = (
{
closed = 1;
nodes = (
(327,0,l),
(327,138,l),
(417,138,l),
(417,182,l),
(327,182,l),
(327,592,l),
(279,548,l),
(279,392,l),
(279,182,l),
(99,182,l),
(118,382,o),
(180,497,o),
(308,531,c),
(327,592,l),
(147,542,o),
(60,403,o),
(47,138,c),
(279,138,l),
(279,0,l)
);
}
);
};
layerId = "7DDCEF54-C770-4FAD-B154-EE8058BAA7E5";
shapes = (
{
closed = 1;
nodes = (
(327,0,l),
(327,138,l),
(417,138,l),
(417,182,l),
(327,182,l),
(327,592,l),
(147,542,o),
(60,403,o),
(47,138,c),
(279,138,l),
(279,0,l)
);
},
{
closed = 1;
nodes = (
(116,365,o),
(171,478,o),
(279,521,c),
(279,392,l),
(279,182,l),
(99,182,l)
);
}
);
width = 448;
}
);
unicode = 52;
}
{
glyphname = seven;
layers = (
{
background = {
hints = (
{
horizontal = 1;
options = 4;
place = (0,512);
target = (0,0);
type = TTStem;
},
{
horizontal = 1;
place = (0,0);
type = TTSnap;
},
{
options = 8;
place = (0,0);
type = TTSnap;
},
{
options = 4;
place = (0,312);
target = (0,1,1,6);
type = TTStem;
},
{
other1 = (1,0);
place = (0,388);
target = (0,3);
type = TTInterpolate;
},
{
options = 8;
place = (0,0);
type = TTSnap;
},
{
options = 4;
place = (0,112);
target = (1,9);
type = TTStem;
}
);
shapes = (
{
closed = 1;
nodes = (
(64,512,l),
(348,512,l),
(388,538,l),
(388,576,l),
(64,576,l)
);
},
{
closed = 1;
nodes = (
(167,-16,l),
(271,102,o),
(358,234,o),
(380,460,cs),
(388,538,l),
(317,576,l),
(309,478,ls),
(292,262,o),
(210,137,o),
(112,29,c)
);
}
);
};
hints = (
{
horizontal = 1;
options = 4;
origin = (0,10);
target = (0,0);
type = TTStem;
},
{
horizontal = 1;
origin = (0,5);
type = TTSnap;
},
{
options = 8;
origin = (0,0);
type = TTSnap;
},
{
options = 4;
origin = (0,9);
target = (0,1);
type = TTStem;
},
{
origin = (0,0);
other1 = (0,5);
target = (0,9);
type = TTInterpolate;
},
{
options = 8;
origin = (0,9);
type = TTSnap;
},
{
options = 4;
origin = (0,5);
target = (0,4);
type = TTStem;
}
);
layerId = "95FB0C11-C828-4064-8966-34220AA4D426";
shapes = (
{
closed = 1;
nodes = (
(64,512,l),
(312,512,l),
(297,292,o),
(237,167,o),
(112,29,c),
(167,-16,l),
(314,150,o),
(371,292,o),
(388,538,c),
(388,576,l),
(64,576,l)
);
}
);
width = 448;
},
{
background = {
shapes = (
{
closed = 1;
nodes = (
(54,488,l),
(348,488,l),
(398,538,l),
(398,576,l),
(54,576,l)
);
},
{
closed = 1;
nodes = (
(177,-16,l),
(281,102,o),
(371,240,o),
(391,460,cs),
(398,538,l),
(297,576,l),
(289,478,ls),
(272,270,o),
(190,149,o),
(92,45,c)
);
}
);
};
layerId = "92967D72-867E-4A8B-929F-F44D834DD4C9";
shapes = (
{
closed = 1;
nodes = (
(54,488,l),
(290,488,l),
(279,297,o),
(202,161,o),
(92,45,c),
(177,-16,l),
(329,156,o),
(383,297,o),
(398,538,c),
(398,576,l),
(54,576,l)
);
}
);
width = 448;
},
{
background = {
shapes = (
{
closed = 1;
nodes = (
(70,532,l),
(348,532,l),
(378,544,l),
(378,576,l),
(70,576,l)
);
},
{
closed = 1;
nodes = (
(164,-13,l),
(268,104,o),
(356,230,o),
(373,472,cs),
(378,544,l),
(330,576,l),
(324,477,ls),
(310,248,o),
(235,144,o),
(128,19,c)
);
}
);
};
layerId = "7DDCEF54-C770-4FAD-B154-EE8058BAA7E5";
shapes = (
{
closed = 1;
nodes = (
(70,532,l),
(327,532,l),
(318,296,o),
(275,190,o),
(128,19,c),
(164,-13,l),
(313,155,o),
(368,290,o),
(378,544,c),
(378,576,l),
(70,576,l)
);
}
);
width = 448;
}
);
unicode = 55;
}
{
glyphname = nine;
layers = (
{
background = {
hints = (
{
horizontal = 1;
options = 4;
place = (0,521);
target = (0,25);
type = TTStem;
},
{
horizontal = 1;
options = 4;
place = (0,51);
target = (0,31);
type = TTStem;
},
{
horizontal = 1;
other1 = (0,12);
place = (0,-10);
target = (0,0);
type = TTInterpolate;
},
{
horizontal = 1;
options = 4;
place = (0,301);
target = (0,19);
type = TTStem;
},
{
options = 4;
place = (0,112);
target = (0,22);
type = TTStem;
},
{
options = 4;
place = (0,311);
target = (0,28);
type = TTStem;
},
{
options = 4;
place = (0,306);
target = (0,15,0,31);
type = TTShift;
},
{
other1 = (0,0);
place = (0,387);
target = (0,3);
type = TTInterpolate;
},
{
options = 8;
place = (0,0);
type = TTSnap;
},
{
options = 8;
place = (0,0);
type = TTSnap;
}
);
shapes = (
{
closed = 1;
nodes = (
(128,-10,l),
(336,60,o),
(387,185,o),
(387,338,cs),
(387,502,o),
(312,585,o),
(206,585,cs),
(111,585,o),
(41,514,o),
(41,411,cs),
(41,316,o),
(91,239,o),
(206,239,cs),
(263,239,o),
(309,261,o),
(349,292,c),
(323,339,l),
(291,316,o),
(250,301,o),
(210,301,cs),
(130,301,o),
(112,360,o),
(112,412,cs),
(112,468,o),
(134,521,o),
(205,521,cs),
(286,521,o),
(311,450,o),
(311,340,cs),
(311,190,o),
(271,111,o),
(104,51,c)
);
}
);
};
hints = (
{
horizontal = 1;
options = 4;
origin = (0,6);
target = (1,2);
type = TTStem;
},
{
horizontal = 1;
options = 4;
origin = (0,0);
target = (0,18);
type = TTStem;
},
{
horizontal = 1;
origin = (0,6);
other1 = (0,12);
target = (0,0);
type = TTInterpolate;
},
{
horizontal = 1;
options = 4;
origin = (0,12);
target = (1,9);
type = TTStem;
},
{
options = 4;
origin = (0,9);
target = (1,12);
type = TTStem;
},
{
options = 4;
origin = (0,3);
target = (1,5);
type = TTStem;
},
{
options = 4;
origin = (1,5);
target = (0,15);
type = TTShift;
},
{
origin = (0,9);
other1 = (0,0);
target = (0,3);
type = TTInterpolate;
},
{
options = 8;
origin = (0,9);
type = TTSnap;
},
{
options = 8;
origin = (0,3);
type = TTSnap;
}
);
layerId = "95FB0C11-C828-4064-8966-34220AA4D426";
shapes = (
{
closed = 1;
nodes = (
(128,-10,l),
(336,60,o),
(387,185,o),
(387,338,cs),
(387,502,o),
(312,585,o),
(206,585,cs),
(111,585,o),
(41,514,o),
(41,411,cs),
(41,316,o),
(91,239,o),
(206,239,cs),
(244,239,o),
(276,248,o),
(306,264,c),
(292,162,o),
(240,100,o),
(104,51,c)
);
},
{
closed = 1;
nodes = (
(112,468,o),
(134,521,o),
(205,521,cs),
(286,521,o),
(311,450,o),
(311,340,c),
(311,331,l),
(280,312,o),
(245,301,o),
(210,301,cs),
(130,301,o),
(112,360,o),
(112,412,cs)
);
}
);
width = 448;
},
{
background = {
shapes = (
{
closed = 1;
nodes = (
(118,-10,l),
(342,60,o),
(397,185,o),
(397,338,cs),
(397,502,o),
(318,585,o),
(206,585,cs),
(105,585,o),
(31,512,o),
(31,407,cs),
(31,310,o),
(83,231,o),
(201,231,cs),
(260,231,o),
(308,253,o),
(349,284,c),
(323,347,l),
(296,324,o),
(260,309,o),
(226,309,cs),
(157,309,o),
(142,362,o),
(142,411,cs),
(142,459,o),
(157,506,o),
(207,506,cs),
(264,506,o),
(281,440,o),
(281,337,cs),
(281,197,o),
(246,123,o),
(90,65,c)
);
}
);
};
layerId = "92967D72-867E-4A8B-929F-F44D834DD4C9";
shapes = (
{
closed = 1;
nodes = (
(118,-10,l),
(342,60,o),
(397,185,o),
(397,338,cs),
(397,502,o),
(318,585,o),
(206,585,cs),
(105,585,o),
(31,512,o),
(31,407,cs),
(31,310,o),
(83,231,o),
(201,231,cs),
(227,231,o),
(252,236,o),
(273,243,c),
(256,161,o),
(206,108,o),
(90,65,c)
);
},
{
closed = 1;
nodes = (
(142,459,o),
(157,506,o),
(207,506,cs),
(264,506,o),
(281,440,o),
(281,337,c),
(281,321,l),
(262,313,o),
(244,309,o),
(226,309,cs),
(157,309,o),
(142,362,o),
(142,411,cs)
);
}
);
width = 448;
},
{
background = {
shapes = (
{
closed = 1;
nodes = (
(132,-9,l),
(332,61,o),
(381,185,o),
(381,338,cs),
(381,502,o),
(308,585,o),
(204,585,cs),
(112,585,o),
(47,515,o),
(47,411,cs),
(47,322,o),
(96,247,o),
(204,247,cs),
(263,247,o),
(310,269,o),
(349,300,c),
(332,329,l),
(294,306,o),
(247,291,o),
(205,291,cs),
(116,291,o),
(95,357,o),
(95,413,cs),
(95,479,o),
(125,541,o),
(204,541,cs),
(292,541,o),
(329,464,o),
(329,340,cs),
(329,182,o),
(285,96,o),
(116,32,c)
);
}
);
};
layerId = "7DDCEF54-C770-4FAD-B154-EE8058BAA7E5";
shapes = (
{
closed = 1;
nodes = (
(132,-9,l),
(332,61,o),
(381,185,o),
(381,338,cs),
(381,502,o),
(308,585,o),
(204,585,cs),
(112,585,o),
(47,515,o),
(47,411,cs),
(47,322,o),
(96,247,o),
(204,247,cs),
(252,247,o),
(293,262,o),
(327,284,c),
(316,160,o),
(264,88,o),
(116,32,c)
);
},
{
closed = 1;
nodes = (
(95,479,o),
(125,541,o),
(204,541,cs),
(292,541,o),
(329,464,o),
(329,340,c),
(329,327,l),
(291,305,o),
(246,291,o),
(205,291,cs),
(116,291,o),
(95,357,o),
(95,413,cs)
);
}
);
width = 448;
}
);
unicode = 57;
}
{
glyphname = colon;
layers = (
{
hints = (
{
horizontal = 1;
origin = (1,5);
stem = -1;
target = (1,11);
type = TTStem;
},
{
horizontal = 1;
origin = (0,11);
stem = -1;
target = (0,5);
type = TTStem;
},
{
origin = (1,8);
stem = -1;
target = (1,2);
type = TTStem;
},
{
options = 4;
origin = (1,2);
target = (0,2);
type = TTShift;
},
{
options = 8;
origin = (1,8);
type = TTSnap;
},
{
options = 4;
origin = (1,8);
target = (0,8);
type = TTShift;
}
);
layerId = "95FB0C11-C828-4064-8966-34220AA4D426";
shapes = (
{
closed = 1;
nodes = (
(227,-10,o),
(256,12,o),
(256,54,cs),
(256,95,o),
(227,118,o),
(192,118,cs),
(157,118,o),
(128,95,o),
(128,54,cs),
(128,12,o),
(157,-10,o),
(192,-10,cs)
);
},
{
closed = 1;
nodes = (
(227,330,o),
(256,352,o),
(256,394,cs),
(256,435,o),
(227,458,o),
(192,458,cs),
(157,458,o),
(128,435,o),
(128,394,cs),
(128,352,o),
(157,330,o),
(192,330,cs)
);
}
);
width = 448;
},
{
layerId = "92967D72-867E-4A8B-929F-F44D834DD4C9";
shapes = (
{
closed = 1;
nodes = (
(238,-10,o),
(276,19,o),
(276,74,cs),
(276,128,o),
(238,158,o),
(192,158,cs),
(146,158,o),
(108,128,o),
(108,74,cs),
(108,19,o),
(146,-10,o),
(192,-10,cs)
);
},
{
closed = 1;
nodes = (
(238,290,o),
(276,319,o),
(276,374,cs),
(276,428,o),
(238,458,o),
(192,458,cs),
(146,458,o),
(108,428,o),
(108,374,cs),
(108,319,o),
(146,290,o),
(192,290,cs)
);
}
);
width = 448;
},
{
layerId = "7DDCEF54-C770-4FAD-B154-EE8058BAA7E5";
shapes = (
{
closed = 1;
nodes = (
(220,-10,o),
(244,8,o),
(244,42,cs),
(244,75,o),
(220,94,o),
(192,94,cs),
(164,94,o),
(140,75,o),
(140,42,cs),
(140,8,o),
(164,-10,o),
(192,-10,cs)
);
},
{
closed = 1;
nodes = (
(220,354,o),
(244,372,o),
(244,406,cs),
(244,439,o),
(220,458,o),
(192,458,cs),
(164,458,o),
(140,439,o),
(140,406,cs),
(140,372,o),
(164,354,o),
(192,354,cs)
);
}
);
width = 448;
}
);
unicode = 58;
}
{
glyphname = question;
layers = (
{
hints = (
{
horizontal = 1;
origin = (1,11);
stem = -1;
target = (1,5);
type = TTStem;
},
{
horizontal = 1;
options = 4;
origin = (0,5);
target = (0,6);
type = TTStem;
},
{
horizontal = 1;
origin = (1,5);
target = (0,13);
type = TTShift;
},
{
horizontal = 1;
options = 4;
origin = (1,11);
other1 = (0,2,0);
target = (0,6);
type = TTInterpolate;
},
{
horizontal = 1;
options = 4;
origin = (1,5);
other1 = (0,12,0);
target = (0,5);
type = TTInterpolate;
}
);
layerId = "95FB0C11-C828-4064-8966-34220AA4D426";
shapes = (
{
closed = 1;
nodes = (
(256,370,o),
(388,367,o),
(388,494,cs),
(388,585,o),
(320,638,o),
(96,645,c),
(93,581,l),
(301,571,o),
(316,525,o),
(316,488,cs),
(316,393,o),
(189,392,o),
(185,195,c),
(255,192,l)
);
},
{
closed = 1;
nodes = (
(259,-10,o),
(288,12,o),
(288,54,cs),
(288,95,o),
(259,118,o),
(224,118,cs),
(189,118,o),
(160,95,o),
(160,54,cs),
(160,12,o),
(189,-10,o),
(224,-10,cs)
);
}
);
width = 448;
},
{
layerId = "92967D72-867E-4A8B-929F-F44D834DD4C9";
shapes = (
{
closed = 1;
nodes = (
(274,352,o),
(398,352,o),
(398,485,cs),
(398,583,o),
(325,645,o),
(86,645,c),
(81,565,l),
(269,553,o),
(282,514,o),
(282,481,cs),
(282,401,o),
(157,384,o),
(167,195,c),
(273,192,l)
);
},
{
closed = 1;
nodes = (
(270,-10,o),
(308,15,o),
(308,64,cs),
(308,111,o),
(270,138,o),
(224,138,cs),
(178,138,o),
(140,111,o),
(140,64,cs),
(140,15,o),
(178,-10,o),
(224,-10,cs)
);
}
);
width = 448;
},
{
layerId = "7DDCEF54-C770-4FAD-B154-EE8058BAA7E5";
shapes = (
{
closed = 1;
nodes = (
(248,375,o),
(377,367,o),
(377,493,cs),
(377,585,o),
(315,638,o),
(107,645,c),
(104,603,l),
(311,592,o),
(327,535,o),
(327,491,cs),
(327,393,o),
(203,387,o),
(199,195,c),
(247,193,l)
);
},
{
closed = 1;
nodes = (
(252,-10,o),
(276,8,o),
(276,42,cs),
(276,75,o),
(252,94,o),
(224,94,cs),
(196,94,o),
(172,75,o),
(172,42,cs),
(172,8,o),
(196,-10,o),
(224,-10,cs)
);
}
);
width = 448;
}
);
unicode = 63;
}
{
glyphname = A;
kernLeft = A;
kernRight = A;
layers = (
{
anchors = (
{
name = bottom;
pos = (224,0);
},
{
name = bottomAttach;
pos = (413,0);
},
{
name = top;
pos = (224,640);
}
);
background = {
anchors = (
{
name = bottom;
pos = (224,0);
},
{
name = bottomAttach;
pos = (413,0);
},
{
name = top;
pos = (224,640);
}
);
hints = (
{
horizontal = 1;
options = 4;
origin = (0,12);
target = (0,3,0,7);
type = TTShift;
},
{
horizontal = 1;
options = 4;
origin = (0,0);
target = (0,7);
type = TTShift;
},
{
horizontal = 1;
origin = (0,3,1,1);
type = TTSnap;
},
{
horizontal = 1;
options = 4;
origin = (0,3,1,1);
target = (0,3,1,3);
type = TTStem;
},
{
options = 8;
origin = (0,15);
type = TTSnap;
},
{
options = 8;
origin = (0,8);
type = TTSnap;
},
{
options = 4;
origin = (0,15);
target = (0,0);
type = TTStem;
},
{
options = 4;
origin = (0,8);
target = (0,7);
type = TTStem;
},
{
options = 4;
origin = (0,0);
other1 = (0,3,1,3);
target = (0,7);
type = TTInterpolate;
},
{
options = 4;
origin = (0,0);
other1 = (0,7,1,3);
target = (0,7);
type = TTInterpolate;
}
);
shapes = (
{
closed = 1;
nodes = (
(110,0,l),
(131,238,o),
(175,439,o),
(235,577,c),
(213,577,l),
(273,439,o),
(317,238,o),
(338,0,c),
(413,0,l),
(393,243,o),
(340,476,o),
(256,643,c),
(192,643,l),
(108,476,o),
(55,243,o),
(35,0,c)
);
},
{
closed = 1;
nodes = (
(97,192,l),
(353,192,l),
(353,256,l),
(97,256,l)
);
}
);
};
hints = (
{
horizontal = 1;
options = 4;
origin = (0,12);
target = (1,2);
type = TTShift;
},
{
horizontal = 1;
options = 4;
origin = (0,0);
target = (0,7);
type = TTShift;
},
{
horizontal = 1;
origin = (0,3);
type = TTSnap;
},
{
horizontal = 1;
options = 4;
origin = (0,3);
target = (1,6);
type = TTStem;
},
{
options = 8;
origin = (0,15);
type = TTSnap;
},
{
options = 8;
origin = (0,8);
type = TTSnap;
},
{
options = 4;
origin = (0,15);
target = (0,0);
type = TTStem;
},
{
options = 4;
origin = (0,8);
target = (0,7);
type = TTStem;
},
{
options = 4;
origin = (0,0);
other1 = (1,6);
target = (0,7);
type = TTInterpolate;
},
{
options = 4;
origin = (0,0);
other1 = (1,5);
target = (0,7);
type = TTInterpolate;
}
);
layerId = "95FB0C11-C828-4064-8966-34220AA4D426";
shapes = (
{
closed = 1;
nodes = (
(110,0,l),
(116,68,o),
(124,132,o),
(133,192,c),
(315,192,l),
(324,132,o),
(332,68,o),
(338,0,c),
(413,0,l),
(393,243,o),
(340,476,o),
(256,643,c),
(192,643,l),
(108,476,o),
(55,243,o),
(35,0,c)
);
},
{
closed = 1;
nodes = (
(165,371,o),
(192,470,o),
(224,551,c),
(256,470,o),
(283,371,o),
(304,256,c),
(144,256,l)
);
}
);
width = 448;
},
{
anchors = (
{
name = bottom;
pos = (224,0);
},
{
name = bottomAttach;
pos = (423,0);
},
{
name = top;
pos = (224,640);
}
);
background = {
anchors = (
{
name = bottom;
pos = (224,0);
},
{
name = bottomAttach;
pos = (423,0);
},
{
name = top;
pos = (224,640);
}
);
shapes = (
{
closed = 1;
nodes = (
(140,0,l),
(158,238,o),
(194,439,o),
(243,577,c),
(205,577,l),
(254,439,o),
(290,238,o),
(308,0,c),
(423,0,l),
(404,242,o),
(355,474,o),
(276,640,c),
(172,640,l),
(93,474,o),
(44,242,o),
(25,0,c)
);
},
{
closed = 1;
nodes = (
(97,160,l),
(353,160,l),
(353,240,l),
(97,240,l)
);
}
);
};
layerId = "92967D72-867E-4A8B-929F-F44D834DD4C9";
shapes = (
{
closed = 1;
nodes = (
(140,0,l),
(144,55,o),
(149,110,o),
(155,160,c),
(293,160,l),
(299,110,o),
(304,55,o),
(308,0,c),
(423,0,l),
(404,242,o),
(355,474,o),
(276,640,c),
(172,640,l),
(93,474,o),
(44,242,o),
(25,0,c)
);
},
{
closed = 1;
nodes = (
(180,345,o),
(200,440,o),
(222,518,c),
(246,440,o),
(266,345,o),
(282,240,c),
(166,240,l)
);
}
);
width = 448;
},
{
anchors = (
{
name = bottom;
pos = (224,0);
},
{
name = bottomAttach;
pos = (407,0);
},
{
name = top;
pos = (224,640);
}
);
background = {
anchors = (
{
name = bottom;
pos = (224,0);
},
{
name = bottomAttach;
pos = (407,0);
},
{
name = top;
pos = (224,640);
}
);
shapes = (
{
closed = 1;
nodes = (
(92,0,l),
(115,243,o),
(165,448,o),
(229,589,c),
(219,589,l),
(283,448,o),
(333,243,o),
(356,0,c),
(407,0,l),
(385,243,o),
(329,476,o),
(244,643,c),
(204,643,l),
(119,476,o),
(63,243,o),
(41,0,c)
);
},
{
closed = 1;
nodes = (
(97,202,l),
(353,202,l),
(353,246,l),
(97,246,l)
);
}
);
};
layerId = "7DDCEF54-C770-4FAD-B154-EE8058BAA7E5";
shapes = (
{
closed = 1;
nodes = (
(92,0,l),
(99,72,o),
(108,138,o),
(119,202,c),
(329,202,l),
(340,138,o),
(349,72,o),
(356,0,c),
(407,0,l),
(385,243,o),
(329,476,o),
(244,643,c),
(204,643,l),
(119,476,o),
(63,243,o),
(41,0,c)
);
},
{
closed = 1;
nodes = (
(152,376,o),
(185,489,o),
(224,578,c),
(263,489,o),
(296,376,o),
(321,246,c),
(127,246,l)
);
}
);
width = 448;
}
);
unicode = 65;
}
{
glyphname = B;
kernRight = B;
layers = (
{
anchors = (
{
name = "#center";
pos = (128,160);
},
{
name = bottom;
pos = (216,0);
},
{
name = origin.hook;
pos = (60,640);
},
{
name = top;
pos = (224,640);
}
);
background = {
anchors = (
{
name = bottom;
pos = (216,0);
},
{
name = center;
pos = (128,160);
},
{
name = origin.hook;
pos = (60,640);
},
{
name = top;
pos = (224,640);
}
);
hints = (
{
horizontal = 1;
options = 4;
origin = (0,0);
target = (1,7);
type = TTStem;
},
{
horizontal = 1;
options = 4;
origin = (0,23);
target = (0,10);
type = TTStem;
},
{
horizontal = 1;
options = 4;
origin = (1,0);
target = (0,8);
type = TTStem;
},
{
horizontal = 1;
options = 4;
origin = (1,0);
other1 = (0,6,0,20);
target = (0,8);
type = TTInterpolate;
},
{
options = 4;
origin = (0,25);
target = (1,8);
type = TTStem;
},
{
options = 4;
origin = (0,3);
target = (1,4);
type = TTStem;
},
{
options = 4;
origin = (1,8);
target = (0,8);
type = TTShift;
},
{
options = 8;
origin = (0,25);
type = TTSnap;
},
{
options = 8;
origin = (0,3);
type = TTSnap;
},
{
origin = (0,3);
target = (0,20);
type = TTShift;
},
{
options = 4;
origin = (0,20);
target = (0,13);
type = TTStem;
},
{
horizontal = 1;
origin = (0,0);
other1 = (1,0);
target = (0,23);
type = TTInterpolate;
}
);
shapes = (
{
closed = 1;
nodes = (
(212,0,ls),
(331,0,o),
(411,59,o),
(411,168,cs),
(411,267,o),
(338,319,o),
(251,319,c),
(251,336,l),
(132,336,l),
(132,576,l),
(184,576,ls),
(280,576,o),
(312,541,o),
(312,476,cs),
(312,423,o),
(286,363,o),
(232,329,c),
(264,282,l),
(355,344,o),
(390,408,o),
(390,476,cs),
(390,586,o),
(315,640,o),
(192,640,cs),
(60,640,l),
(60,0,l)
);
},
{
closed = 1;
nodes = (
(132,272,l),
(202,272,ls),
(301,272,o),
(335,232,o),
(335,170,cs),
(335,100,o),
(302,64,o),
(202,64,cs),
(132,64,l)
);
}
);
};
hints = (
{
horizontal = 1;
options = 4;
origin = (0,0);
target = (1,7);
type = TTStem;
},
{
horizontal = 1;
options = 4;
origin = (0,12);
target = (2,1);
type = TTStem;
},
{
horizontal = 1;
options = 4;
origin = (1,0);
target = (2,8);
type = TTStem;
},
{
horizontal = 1;
options = 4;
origin = (1,0);
other1 = (0,6);
target = (2,8);
type = TTInterpolate;
},
{
options = 4;
origin = (0,14);
target = (1,8);
type = TTStem;
},
{
options = 4;
origin = (0,3);
target = (1,4);
type = TTStem;
},
{
options = 4;
origin = (1,8);
target = (2,8);
type = TTShift;
},
{
options = 8;
origin = (0,14);
type = TTSnap;
},
{
options = 8;
origin = (0,3);
type = TTSnap;
},
{
origin = (0,3);
target = (0,9);
type = TTShift;
},
{
options = 4;
origin = (0,9);
target = (2,4);
type = TTStem;
},
{
horizontal = 1;
origin = (0,0);
other1 = (1,0);
target = (0,12);
type = TTInterpolate;
}
);
layerId = "95FB0C11-C828-4064-8966-34220AA4D426";
shapes = (
{
closed = 1;
nodes = (
(212,0,ls),
(331,0,o),
(411,59,o),
(411,168,cs),
(411,246,o),
(365,295,o),
(304,312,c),
(365,364,o),
(390,419,o),
(390,476,cs),
(390,586,o),
(315,640,o),
(192,640,cs),
(60,640,l),
(60,0,l)
);
},
{
closed = 1;
nodes = (
(132,272,l),
(202,272,ls),
(301,272,o),
(335,232,o),
(335,170,cs),
(335,100,o),
(302,64,o),
(202,64,cs),
(132,64,l)
);
},
{
closed = 1;
nodes = (
(132,576,l),
(184,576,ls),
(280,576,o),
(312,541,o),
(312,476,cs),
(312,426,o),
(289,371,o),
(242,336,c),
(132,336,l)
);
}
);
width = 448;
},
{
anchors = (
{
name = "#center";
pos = (128,172);
},
{
name = bottom;
pos = (216,0);
},
{
name = origin.hook;
pos = (60,640);
},
{
name = top;
pos = (224,640);
}
);
background = {
anchors = (
{
name = bottom;
pos = (216,0);
},
{
name = center;
pos = (128,172);
},
{
name = origin.hook;
pos = (60,640);
},
{
name = top;
pos = (224,640);
}
);
shapes = (
{
closed = 1;
nodes = (
(215,0,ls),
(338,0,o),
(421,61,o),
(421,172,cs),
(421,264,o),
(359,325,o),
(256,325,c),
(256,344,l),
(162,344,l),
(162,560,l),
(184,560,ls),
(255,560,o),
(282,527,o),
(282,466,cs),
(282,419,o),
(262,366,o),
(224,336,c),
(272,276,l),
(364,340,o),
(400,406,o),
(400,476,cs),
(400,586,o),
(322,640,o),
(195,640,cs),
(50,640,l),
(50,0,l)
);
},
{
closed = 1;
nodes = (
(162,264,l),
(191,264,ls),
(276,264,o),
(305,229,o),
(305,174,cs),
(305,112,o),
(277,80,o),
(201,80,cs),
(162,80,l)
);
}
);
};
layerId = "92967D72-867E-4A8B-929F-F44D834DD4C9";
shapes = (
{
closed = 1;
nodes = (
(215,0,ls),
(338,0,o),
(421,61,o),
(421,172,cs),
(421,242,o),
(385,294,o),
(321,315,c),
(377,367,o),
(400,420,o),
(400,476,cs),
(400,586,o),
(322,640,o),
(195,640,cs),
(50,640,l),
(50,0,l)
);
},
{
closed = 1;
nodes = (
(162,264,l),
(191,264,ls),
(276,264,o),
(305,229,o),
(305,174,cs),
(305,112,o),
(277,80,o),
(201,80,cs),
(162,80,l)
);
},
{
closed = 1;
nodes = (
(162,560,l),
(184,560,ls),
(255,560,o),
(282,527,o),
(282,466,cs),
(282,423,o),
(265,375,o),
(233,344,c),
(162,344,l)
);
}
);
width = 448;
},
{
anchors = (
{
name = "#center";
pos = (128,160);
},
{
name = bottom;
pos = (216,0);
},
{
name = origin.hook;
pos = (60,640);
},
{
name = top;
pos = (224,640);
}
);
background = {
anchors = (
{
name = bottom;
pos = (216,0);
},
{
name = center;
pos = (128,160);
},
{
name = origin.hook;
pos = (60,640);
},
{
name = top;
pos = (224,640);
}
);
shapes = (
{
closed = 1;
nodes = (
(210,0,ls),
(327,0,o),
(405,57,o),
(405,164,cs),
(405,262,o),
(331,314,o),
(248,314,c),
(248,326,l),
(114,326,l),
(114,596,l),
(189,596,ls),
(289,596,o),
(330,556,o),
(330,483,cs),
(330,424,o),
(300,357,o),
(237,320,c),
(259,291,l),
(350,350,o),
(384,412,o),
(384,478,cs),
(384,587,o),
(311,640,o),
(190,640,cs),
(66,640,l),
(66,0,l)
);
},
{
closed = 1;
nodes = (
(114,282,l),
(209,282,ls),
(316,282,o),
(353,235,o),
(353,164,cs),
(353,85,o),
(309,44,o),
(209,44,cs),
(114,44,l)
);
}
);
};
layerId = "7DDCEF54-C770-4FAD-B154-EE8058BAA7E5";
shapes = (
{
closed = 1;
nodes = (
(210,0,ls),
(327,0,o),
(405,57,o),
(405,164,cs),
(405,247,o),
(353,296,o),
(286,310,c),
(356,363,o),
(384,419,o),
(384,478,cs),
(384,587,o),
(311,640,o),
(190,640,cs),
(66,640,l),
(66,0,l)
);
},
{
closed = 1;
nodes = (
(114,282,l),
(209,282,ls),
(316,282,o),
(353,235,o),
(353,164,cs),
(353,85,o),
(309,44,o),
(209,44,cs),
(114,44,l)
);
},
{
closed = 1;
nodes = (
(114,596,l),
(189,596,ls),
(289,596,o),
(330,556,o),
(330,483,cs),
(330,427,o),
(302,363,o),
(247,326,c),
(114,326,l)
);
}
);
width = 448;
}
);
unicode = 66;
}
{
glyphname = C;
kernLeft = O;
kernRight = C;
layers = (
{
anchors = (
{
name = bottom;
pos = (256,0);
},
{
name = bottomAttach;
pos = (308,0);
},
{
name = top;
pos = (256,640);
}
);
hints = (
{
horizontal = 1;
options = 4;
origin = (0,25);
target = (0,6);
type = TTStem;
},
{
horizontal = 1;
options = 4;
origin = (0,19);
target = (0,12);
type = TTStem;
},
{
options = 4;
origin = (0,22);
target = (0,9);
type = TTStem;
},
{
options = 8;
origin = (0,2);
type = TTSnap;
},
{
options = 4;
origin = (0,2);
target = (0,16);
type = TTShift;
},
{
options = 8;
origin = (0,22);
type = TTSnap;
}
);
layerId = "95FB0C11-C828-4064-8966-34220AA4D426";
shapes = (
{
closed = 1;
nodes = (
(309,-9,o),
(351,-4,o),
(384,5,c),
(370,66,l),
(337,58,o),
(306,55,o),
(280,55,cs),
(149,55,o),
(138,131,o),
(138,319,cs),
(138,507,o),
(149,583,o),
(280,583,cs),
(305,583,o),
(335,580,o),
(364,574,c),
(378,635,l),
(345,643,o),
(305,647,o),
(274,647,cs),
(118,647,o),
(60,560,o),
(60,319,cs),
(60,78,o),
(118,-9,o),
(274,-9,cs)
);
}
);
width = 448;
},
{
anchors = (
{
name = bottom;
pos = (256,0);
},
{
name = bottomAttach;
pos = (308,0);
},
{
name = top;
pos = (256,640);
}
);
layerId = "92967D72-867E-4A8B-929F-F44D834DD4C9";
shapes = (
{
closed = 1;
nodes = (
(314,-9,o),
(359,-3,o),
(394,8,c),
(380,82,l),
(350,74,o),
(322,71,o),
(298,71,cs),
(178,71,o),
(168,142,o),
(168,319,cs),
(168,496,o),
(178,567,o),
(297,567,cs),
(320,567,o),
(348,564,o),
(374,558,c),
(388,632,l),
(353,642,o),
(310,647,o),
(277,647,cs),
(112,647,o),
(50,560,o),
(50,319,cs),
(50,78,o),
(112,-9,o),
(277,-9,cs)
);
}
);
width = 448;
},
{
anchors = (
{
name = bottom;
pos = (256,0);
},
{
name = bottomAttach;
pos = (308,0);
},
{
name = top;
pos = (256,640);
}
);
layerId = "7DDCEF54-C770-4FAD-B154-EE8058BAA7E5";
shapes = (
{
closed = 1;
nodes = (
(306,-9,o),
(344,-3,o),
(376,4,c),
(370,44,l),
(335,38,o),
(303,35,o),
(277,35,cs),
(150,35,o),
(120,117,o),
(120,319,cs),
(120,521,o),
(147,603,o),
(275,603,cs),
(301,603,o),
(334,601,o),
(366,596,c),
(372,636,l),
(342,643,o),
(302,647,o),
(272,647,cs),
(122,647,o),
(66,560,o),
(66,319,cs),
(66,78,o),
(122,-9,o),
(272,-9,cs)
);
}
);
width = 448;
}
);
unicode = 67;
}
{
glyphname = F;
kernRight = F;
layers = (
{
anchors = (
{
name = bottom;
pos = (96,0);
},
{
name = top;
pos = (224,640);
}
);
hints = (
{
horizontal = 1;
origin = (0,0);
type = TTSnap;
},
{
horizontal = 1;
options = 4;
origin = (0,8);
target = (0,5);
type = TTStem;
},
{
horizontal = 1;
options = 4;
origin = (0,1);
target = (0,4);
type = TTStem;
},
{
options = 4;
origin = (0,9);
target = (0,0);
type = TTStem;
},
{
options = 4;
origin = (0,0);
target = (0,4);
type = TTShift;
},
{
options = 8;
origin = (0,6);
type = TTSnap;
},
{
options = 8;
origin = (0,2);
type = TTSnap;
},
{
options = 8;
origin = (0,9);
type = TTSnap;
},
{
horizontal = 1;
origin = (0,0);
other1 = (0,1);
target = (0,8);
type = TTInterpolate;
}
);
layerId = "95FB0C11-C828-4064-8966-34220AA4D426";
shapes = (
{
closed = 1;
nodes = (
(132,0,l),
(132,256,l),
(320,256,l),
(320,320,l),
(132,320,l),
(132,576,l),
(384,576,l),
(384,640,l),
(60,640,l),
(60,0,l)
);
}
);
width = 448;
},
{
anchors = (
{
name = bottom;
pos = (104,0);
},
{
name = top;
pos = (224,640);
}
);
layerId = "92967D72-867E-4A8B-929F-F44D834DD4C9";
shapes = (
{
closed = 1;
nodes = (
(160,0,l),
(160,248,l),
(340,248,l),
(340,328,l),
(160,328,l),
(160,560,l),
(404,560,l),
(404,640,l),
(48,640,l),
(48,0,l)
);
}
);
width = 448;
},
{
anchors = (
{
name = bottom;
pos = (91,0);
},
{
name = top;
pos = (224,640);
}
);
layerId = "7DDCEF54-C770-4FAD-B154-EE8058BAA7E5";
shapes = (
{
closed = 1;
nodes = (
(115,0,l),
(115,266,l),
(308,266,l),
(308,310,l),
(115,310,l),
(115,596,l),
(372,596,l),
(372,640,l),
(67,640,l),
(67,0,l)
);
}
);
width = 448;
}
);
unicode = 70;
}
{
glyphname = J;
kernLeft = J;
kernRight = U;
layers = (
{
anchors = (
{
name = top;
pos = (270,640);
}
);
hints = (
{
horizontal = 1;
options = 4;
origin = (0,2);
target = (0,13);
type = TTStem;
},
{
horizontal = 1;
options = 4;
origin = (0,6);
target = (0,9);
type = TTStem;
},
{
options = 8;
origin = (0,5);
type = TTSnap;
},
{
options = 4;
origin = (0,5);
target = (0,10);
type = TTStem;
},
{
options = 4;
origin = (0,17);
target = (0,16);
type = TTStem;
},
{
options = 8;
origin = (0,17);
type = TTSnap;
},
{
origin = (0,5);
other1 = (0,7);
target = (0,17);
type = TTInterpolate;
}
);
layerId = "95FB0C11-C828-4064-8966-34220AA4D426";
shapes = (
{
closed = 1;
nodes = (
(79,43,o),
(128,-8,o),
(224,-8,cs),
(320,-8,o),
(388,43,o),
(388,173,cs),
(388,640,l),
(162,640,l),
(162,576,l),
(316,576,l),
(316,169,ls),
(316,100,o),
(297,56,o),
(224,56,cs),
(166,56,o),
(143,86,o),
(130,137,c),
(62,120,l)
);
}
);
width = 448;
},
{
anchors = (
{
name = top;
pos = (270,640);
}
);
layerId = "92967D72-867E-4A8B-929F-F44D834DD4C9";
shapes = (
{
closed = 1;
nodes = (
(70,49,o),
(122,-8,o),
(224,-8,cs),
(326,-8,o),
(398,43,o),
(398,173,cs),
(398,640,l),
(132,640,l),
(132,552,l),
(286,552,l),
(286,169,ls),
(286,110,o),
(273,72,o),
(224,72,cs),
(189,72,o),
(169,101,o),
(155,160,c),
(52,136,l)
);
}
);
width = 448;
},
{
anchors = (
{
name = top;
pos = (270,640);
}
);
layerId = "7DDCEF54-C770-4FAD-B154-EE8058BAA7E5";
shapes = (
{
closed = 1;
nodes = (
(86,41,o),
(132,-8,o),
(224,-8,cs),
(316,-8,o),
(382,43,o),
(382,173,cs),
(382,640,l),
(180,640,l),
(180,596,l),
(334,596,l),
(334,169,ls),
(334,81,o),
(299,36,o),
(224,36,cs),
(155,36,o),
(127,71,o),
(111,123,c),
(68,110,l)
);
}
);
width = 448;
}
);
unicode = 74;
}
{
glyphname = P;
kernRight = P;
layers = (
{
anchors = (
{
name = bottom;
pos = (96,0);
},
{
name = top;
pos = (204,640);
}
);
hints = (
{
horizontal = 1;
origin = (0,0);
type = TTSnap;
},
{
horizontal = 1;
options = 4;
origin = (0,8);
target = (1,1);
type = TTStem;
},
{
horizontal = 1;
options = 4;
origin = (0,2);
target = (1,7);
type = TTStem;
},
{
options = 4;
origin = (0,10);
target = (0,0);
type = TTStem;
},
{
options = 4;
origin = (0,5);
target = (1,4);
type = TTStem;
},
{
options = 4;
origin = (0,0);
target = (1,8);
type = TTShift;
},
{
horizontal = 1;
origin = (0,2);
type = TTSnap;
},
{
options = 8;
origin = (0,10);
type = TTSnap;
},
{
options = 8;
origin = (0,5);
type = TTSnap;
}
);
layerId = "95FB0C11-C828-4064-8966-34220AA4D426";
shapes = (
{
closed = 1;
nodes = (
(132,0,l),
(132,192,l),
(215,192,ls),
(327,192,o),
(401,267,o),
(401,414,cs),
(401,560,o),
(327,640,o),
(215,640,cs),
(60,640,l),
(60,0,l)
);
},
{
closed = 1;
nodes = (
(132,576,l),
(208,576,ls),
(301,576,o),
(325,512,o),
(325,414,cs),
(325,320,o),
(303,256,o),
(208,256,cs),
(132,256,l)
);
}
);
width = 448;
},
{
anchors = (
{
name = bottom;
pos = (106,0);
},
{
name = top;
pos = (224,640);
}
);
layerId = "92967D72-867E-4A8B-929F-F44D834DD4C9";
shapes = (
{
closed = 1;
nodes = (
(162,0,l),
(162,184,l),
(218,184,ls),
(334,184,o),
(411,261,o),
(411,410,cs),
(411,558,o),
(335,640,o),
(218,640,cs),
(50,640,l),
(50,0,l)
);
},
{
closed = 1;
nodes = (
(162,560,l),
(194,560,ls),
(274,560,o),
(295,501,o),
(295,409,cs),
(295,322,o),
(276,263,o),
(194,263,cs),
(162,263,l)
);
}
);
width = 448;
},
{
anchors = (
{
name = bottom;
pos = (90,0);
},
{
name = top;
pos = (224,640);
}
);
layerId = "7DDCEF54-C770-4FAD-B154-EE8058BAA7E5";
shapes = (
{
closed = 1;
nodes = (
(114,0,l),
(114,202,l),
(213,202,ls),
(321,202,o),
(395,275,o),
(395,419,cs),
(395,562,o),
(322,640,o),
(213,640,cs),
(66,640,l),
(66,0,l)
);
},
{
closed = 1;
nodes = (
(114,596,l),
(210,596,ls),
(306,596,o),
(343,526,o),
(343,419,cs),
(343,316,o),
(308,246,o),
(211,246,cs),
(114,246,l)
);
}
);
width = 448;
}
);
unicode = 80;
}
{
glyphname = S;
kernLeft = S;
kernRight = S;
layers = (
{
anchors = (
{
name = bottom;
pos = (224,0);
},
{
name = top;
pos = (224,640);
},
{
name = topright;
pos = (320,640);
}
);
hints = (
{
horizontal = 1;
options = 4;
origin = (0,31);
target = (0,24);
type = TTStem;
},
{
horizontal = 1;
options = 4;
origin = (0,15);
target = (0,8);
type = TTStem;
},
{
options = 4;
origin = (0,18);
target = (0,5);
type = TTStem;
},
{
options = 4;
origin = (0,2);
target = (0,21);
type = TTStem;
},
{
options = 4;
origin = (0,18);
target = (0,28);
type = TTShift;
},
{
options = 4;
origin = (0,2);
target = (0,12);
type = TTShift;
},
{
options = 8;
origin = (0,18);
type = TTSnap;
},
{
options = 8;
origin = (0,2);
type = TTSnap;
},
{
horizontal = 1;
options = 4;
origin = (0,31);
other1 = (0,21,0);
target = (0,8);
type = TTInterpolate;
},
{
horizontal = 1;
options = 4;
origin = (0,24);
other1 = (0,5,0);
target = (0,15);
type = TTInterpolate;
}
);
layerId = "95FB0C11-C828-4064-8966-34220AA4D426";
shapes = (
{
closed = 1;
nodes = (
(319,-8,o),
(391,42,o),
(391,149,cs),
(391,356,o),
(135,286,o),
(135,468,cs),
(135,532,o),
(155,584,o),
(256,584,cs),
(286,584,o),
(325,578,o),
(360,566,c),
(376,630,l),
(341,642,o),
(294,648,o),
(256,648,cs),
(125,648,o),
(59,572,o),
(59,465,cs),
(59,230,o),
(315,298,o),
(315,143,cs),
(315,95,o),
(290,56,o),
(198,56,cs),
(148,56,o),
(109,67,o),
(70,82,c),
(51,18,l),
(96,1,o),
(149,-8,o),
(195,-8,cs)
);
}
);
width = 448;
},
{
anchors = (
{
name = bottom;
pos = (224,0);
},
{
name = top;
pos = (224,640);
},
{
name = topright;
pos = (320,640);
}
);
layerId = "92967D72-867E-4A8B-929F-F44D834DD4C9";
shapes = (
{
closed = 1;
nodes = (
(325,-8,o),
(401,44,o),
(401,161,cs),
(401,370,o),
(165,306,o),
(165,460,cs),
(165,518,o),
(183,566,o),
(273,566,cs),
(303,566,o),
(341,558,o),
(370,549,c),
(390,626,l),
(353,640,o),
(305,648,o),
(259,648,cs),
(119,648,o),
(49,570,o),
(49,451,cs),
(49,219,o),
(285,279,o),
(285,152,cs),
(285,110,o),
(262,74,o),
(178,74,cs),
(132,74,o),
(94,86,o),
(61,98,c),
(37,24,l),
(84,3,o),
(145,-8,o),
(197,-8,cs)
);
}
);
width = 448;
},
{
anchors = (
{
name = bottom;
pos = (224,0);
},
{
name = top;
pos = (224,640);
},
{
name = topright;
pos = (312,640);
}
);
layerId = "7DDCEF54-C770-4FAD-B154-EE8058BAA7E5";
shapes = (
{
closed = 1;
nodes = (
(315,-8,o),
(384,41,o),
(384,142,cs),
(384,348,o),
(116,274,o),
(116,475,cs),
(116,545,o),
(151,604,o),
(253,604,cs),
(293,604,o),
(325,598,o),
(357,590,c),
(367,630,l),
(339,639,o),
(295,648,o),
(254,648,cs),
(130,648,o),
(66,573,o),
(66,473,cs),
(66,237,o),
(334,309,o),
(334,140,cs),
(334,79,o),
(305,36,o),
(203,36,cs),
(150,36,o),
(112,45,o),
(72,57,c),
(60,17,l),
(103,2,o),
(151,-8,o),
(208,-8,cs)
);
}
);
width = 448;
}
);
unicode = 83;
}
{
glyphname = T;
kernLeft = T;
kernRight = T;
layers = (
{
anchors = (
{
name = "#center";
pos = (224,288);
},
{
name = bottom;
pos = (224,0);
},
{
name = bottom_2;
pos = (288,0);
},
{
name = top;
pos = (224,640);
},
{
name = topright;
pos = (360,640);
}
);
hints = (
{
horizontal = 1;
options = 4;
origin = (0,1);
target = (0,3);
type = TTStem;
},
{
horizontal = 1;
options = 4;
origin = (0,3);
target = (0,6);
type = TTShift;
},
{
horizontal = 1;
origin = (0,4);
type = TTSnap;
},
{
options = 8;
origin = (0,4);
type = TTSnap;
},
{
options = 4;
origin = (0,4);
target = (0,5);
type = TTStem;
},
{
origin = (0,4);
target = (0,2);
type = TTShift;
},
{
origin = (0,5);
target = (0,7);
type = TTShift;
}
);
layerId = "95FB0C11-C828-4064-8966-34220AA4D426";
shapes = (
{
closed = 1;
nodes = (
(404,640,l),
(44,640,l),
(44,576,l),
(188,576,l),
(188,0,l),
(260,0,l),
(260,576,l),
(404,576,l)
);
}
);
width = 448;
},
{
anchors = (
{
name = "#center";
pos = (224,288);
},
{
name = bottom;
pos = (224,0);
},
{
name = bottom_2;
pos = (288,0);
},
{
name = top;
pos = (224,640);
},
{
name = topright;
pos = (360,640);
}
);
layerId = "92967D72-867E-4A8B-929F-F44D834DD4C9";
shapes = (
{
closed = 1;
nodes = (
(424,640,l),
(24,640,l),
(24,560,l),
(168,560,l),
(168,0,l),
(280,0,l),
(280,560,l),
(424,560,l)
);
}
);
width = 448;
},
{
anchors = (
{
name = "#center";
pos = (224,288);
},
{
name = bottom;
pos = (224,0);
},
{
name = bottom_2;
pos = (288,0);
},
{
name = top;
pos = (224,640);
},
{
name = topright;
pos = (360,640);
}
);
layerId = "7DDCEF54-C770-4FAD-B154-EE8058BAA7E5";
shapes = (
{
closed = 1;
nodes = (
(392,640,l),
(56,640,l),
(56,596,l),
(199,596,l),
(199,0,l),
(249,0,l),
(249,596,l),
(392,596,l)
);
}
);
width = 448;
}
);
unicode = 84;
}
{
glyphname = V;
kernLeft = V;
kernRight = V;
layers = (
{
anchors = (
{
name = bottom;
pos = (224,0);
},
{
name = top;
pos = (224,640);
}
);
background = {
anchors = (
{
name = bottom;
pos = (224,0);
},
{
name = top;
pos = (224,640);
}
);
hints = (
{
horizontal = 1;
options = 4;
origin = (0,11);
target = (0,4);
type = TTShift;
},
{
options = 8;
origin = (0,12);
type = TTSnap;
},
{
options = 8;
origin = (0,3);
type = TTSnap;
},
{
options = 4;
origin = (0,3);
target = (0,4);
type = TTStem;
},
{
options = 4;
origin = (0,12);
target = (0,11);
type = TTStem;
},
{
horizontal = 1;
origin = (0,15);
type = TTSnap;
},
{
horizontal = 1;
options = 4;
origin = (0,11);
other1 = (0,7,0,11);
target = (0,15);
type = TTInterpolate;
},
{
options = 4;
origin = (0,12);
other1 = (0,15);
target = (0,4);
type = TTInterpolate;
},
{
options = 4;
origin = (0,3);
other1 = (0,0);
target = (0,11);
type = TTInterpolate;
},
{
options = 4;
origin = (0,15);
other1 = (0,7,0,11);
target = (0,0);
type = TTInterpolate;
}
);
shapes = (
{
closed = 1;
nodes = (
(256,-3,l),
(340,164,o),
(393,397,o),
(413,640,c),
(338,640,l),
(317,402,o),
(273,201,o),
(213,63,c),
(235,63,l),
(175,201,o),
(131,402,o),
(110,640,c),
(35,640,l),
(55,397,o),
(108,164,o),
(192,-3,c)
);
}
);
};
hints = (
{
horizontal = 1;
options = 4;
origin = (0,10);
target = (0,4);
type = TTShift;
},
{
options = 8;
origin = (0,11);
type = TTSnap;
},
{
options = 8;
origin = (0,3);
type = TTSnap;
},
{
options = 4;
origin = (0,3);
target = (0,4);
type = TTStem;
},
{
options = 4;
origin = (0,11);
target = (0,10);
type = TTStem;
},
{
horizontal = 1;
origin = (0,14);
type = TTSnap;
},
{
horizontal = 1;
options = 4;
origin = (0,10);
other1 = (0,7);
target = (0,14);
type = TTInterpolate;
},
{
options = 4;
origin = (0,11);
other1 = (0,14);
target = (0,4);
type = TTInterpolate;
},
{
options = 4;
origin = (0,3);
other1 = (0,0);
target = (0,10);
type = TTInterpolate;
},
{
options = 4;
origin = (0,14);
other1 = (0,7);
target = (0,0);
type = TTInterpolate;
}
);
layerId = "95FB0C11-C828-4064-8966-34220AA4D426";
shapes = (
{
closed = 1;
nodes = (
(256,-3,l),
(340,164,o),
(393,397,o),
(413,640,c),
(338,640,l),
(318,416,o),
(279,227,o),
(224,89,c),
(169,227,o),
(130,416,o),
(110,640,c),
(35,640,l),
(55,397,o),
(108,164,o),
(192,-3,c)
);
}
);
width = 448;
},
{
anchors = (
{
name = bottom;
pos = (224,0);
},
{
name = top;
pos = (224,640);
}
);
background = {
anchors = (
{
name = bottom;
pos = (224,0);
},
{
name = top;
pos = (224,640);
}
);
shapes = (
{
closed = 1;
nodes = (
(276,0,l),
(355,166,o),
(404,398,o),
(423,640,c),
(308,640,l),
(290,402,o),
(254,201,o),
(205,63,c),
(243,63,l),
(194,201,o),
(158,402,o),
(140,640,c),
(25,640,l),
(44,398,o),
(93,166,o),
(172,0,c)
);
}
);
};
layerId = "92967D72-867E-4A8B-929F-F44D834DD4C9";
shapes = (
{
closed = 1;
nodes = (
(276,0,l),
(355,166,o),
(404,398,o),
(423,640,c),
(308,640,l),
(292,433,o),
(264,255,o),
(226,122,c),
(186,255,o),
(156,433,o),
(140,640,c),
(25,640,l),
(44,398,o),
(93,166,o),
(172,0,c)
);
}
);
width = 448;
},
{
anchors = (
{
name = bottom;
pos = (224,0);
},
{
name = top;
pos = (224,640);
}
);
background = {
anchors = (
{
name = bottom;
pos = (224,0);
},
{
name = top;
pos = (224,640);
}
);
shapes = (
{
closed = 1;
nodes = (
(244,-3,l),
(329,164,o),
(385,397,o),
(407,640,c),
(356,640,l),
(333,397,o),
(283,192,o),
(219,51,c),
(229,51,l),
(165,192,o),
(115,397,o),
(92,640,c),
(41,640,l),
(63,397,o),
(119,164,o),
(204,-3,c)
);
}
);
};
layerId = "7DDCEF54-C770-4FAD-B154-EE8058BAA7E5";
shapes = (
{
closed = 1;
nodes = (
(244,-3,l),
(329,164,o),
(385,397,o),
(407,640,c),
(356,640,l),
(334,404,o),
(286,203,o),
(224,62,c),
(162,203,o),
(114,404,o),
(92,640,c),
(41,640,l),
(63,397,o),
(119,164,o),
(204,-3,c)
);
}
);
width = 448;
}
);
unicode = 86;
}
{
glyphname = Y;
kernLeft = Y;
kernRight = Y;
layers = (
{
anchors = (
{
name = bottom;
pos = (224,0);
},
{
name = top;
pos = (224,640);
}
);
background = {
anchors = (
{
name = bottom;
pos = (224,0);
},
{
name = top;
pos = (224,640);
}
);
hints = (
{
horizontal = 1;
origin = (1,3);
type = TTSnap;
},
{
horizontal = 1;
options = 4;
origin = (0,4);
target = (2,3);
type = TTShift;
},
{
horizontal = 1;
options = 8;
origin = (1,3);
other1 = (1,2);
target = (0,4);
type = TTInterpolate;
},
{
horizontal = 1;
options = 4;
origin = (1,2);
target = (0,7,2,3);
type = TTShift;
},
{
options = 8;
origin = (2,4);
type = TTSnap;
},
{
options = 8;
origin = (0,3);
type = TTSnap;
},
{
options = 4;
origin = (2,4);
target = (2,3);
type = TTStem;
},
{
options = 4;
origin = (0,3);
target = (0,4);
type = TTStem;
},
{
options = 8;
origin = (1,3);
type = TTSnap;
},
{
options = 4;
origin = (1,3);
target = (1,0);
type = TTStem;
},
{
options = 4;
origin = (1,3);
other1 = (0,7,2,3);
target = (1,0);
type = TTInterpolate;
}
);
shapes = (
{
closed = 1;
nodes = (
(260,202,l),
(342,312,o),
(391,449,o),
(412,640,c),
(340,640,l),
(318,456,o),
(282,348,o),
(192,202,c)
);
},
{
closed = 1;
nodes = (
(260,0,l),
(260,202,l),
(188,202,l),
(188,0,l)
);
},
{
closed = 1;
nodes = (
(256,202,l),
(166,348,o),
(130,456,o),
(108,640,c),
(36,640,l),
(57,449,o),
(106,312,o),
(188,202,c)
);
}
);
};
hints = (
{
horizontal = 1;
origin = (0,16);
type = TTSnap;
},
{
horizontal = 1;
options = 4;
origin = (0,5);
target = (0,11);
type = TTShift;
},
{
horizontal = 1;
options = 8;
origin = (0,16);
other1 = (0,15);
target = (0,5);
type = TTInterpolate;
},
{
horizontal = 1;
options = 4;
origin = (0,15);
target = (0,8);
type = TTShift;
},
{
options = 8;
origin = (0,12);
type = TTSnap;
},
{
options = 8;
origin = (0,4);
type = TTSnap;
},
{
options = 4;
origin = (0,12);
target = (0,11);
type = TTStem;
},
{
options = 4;
origin = (0,4);
target = (0,5);
type = TTStem;
},
{
options = 8;
origin = (0,16);
type = TTSnap;
},
{
options = 4;
origin = (0,16);
target = (0,0);
type = TTStem;
},
{
options = 4;
origin = (0,16);
other1 = (0,8);
target = (0,0);
type = TTInterpolate;
}
);
layerId = "95FB0C11-C828-4064-8966-34220AA4D426";
shapes = (
{
closed = 1;
nodes = (
(260,0,l),
(260,202,l),
(342,312,o),
(391,449,o),
(412,640,c),
(340,640,l),
(321,480,o),
(291,376,o),
(224,256,c),
(157,376,o),
(127,480,o),
(108,640,c),
(36,640,l),
(57,449,o),
(106,312,o),
(188,202,c),
(188,0,l)
);
}
);
width = 448;
},
{
anchors = (
{
name = bottom;
pos = (224,0);
},
{
name = top;
pos = (224,640);
}
);
background = {
anchors = (
{
name = bottom;
pos = (224,0);
},
{
name = top;
pos = (224,640);
}
);
shapes = (
{
closed = 1;
nodes = (
(280,202,l),
(357,312,o),
(402,449,o),
(422,640,c),
(310,640,l),
(301,449,o),
(271,358,o),
(185,202,c)
);
},
{
closed = 1;
nodes = (
(280,0,l),
(280,202,l),
(168,202,l),
(168,0,l)
);
},
{
closed = 1;
nodes = (
(263,202,l),
(177,358,o),
(147,449,o),
(138,640,c),
(26,640,l),
(46,449,o),
(91,312,o),
(168,202,c)
);
}
);
};
layerId = "92967D72-867E-4A8B-929F-F44D834DD4C9";
shapes = (
{
closed = 1;
nodes = (
(280,0,l),
(280,202,l),
(357,312,o),
(402,449,o),
(422,640,c),
(310,640,l),
(303,482,o),
(282,392,o),
(226,276,c),
(170,392,o),
(147,482,o),
(138,640,c),
(26,640,l),
(46,449,o),
(91,312,o),
(168,202,c),
(168,0,l)
);
}
);
width = 448;
},
{
anchors = (
{
name = bottom;
pos = (224,0);
},
{
name = top;
pos = (224,640);
}
);
background = {
anchors = (
{
name = bottom;
pos = (224,0);
},
{
name = top;
pos = (224,640);
}
);
shapes = (
{
closed = 1;
nodes = (
(248,202,l),
(333,312,o),
(384,449,o),
(406,640,c),
(358,640,l),
(335,458,o),
(292,335,o),
(205,202,c)
);
},
{
closed = 1;
nodes = (
(248,0,l),
(248,202,l),
(200,202,l),
(200,0,l)
);
},
{
closed = 1;
nodes = (
(243,202,l),
(156,335,o),
(113,458,o),
(90,640,c),
(42,640,l),
(64,449,o),
(115,312,o),
(200,202,c)
);
}
);
};
layerId = "7DDCEF54-C770-4FAD-B154-EE8058BAA7E5";
shapes = (
{
closed = 1;
nodes = (
(248,0,l),
(248,202,l),
(333,312,o),
(384,449,o),
(406,640,c),
(358,640,l),
(337,473,o),
(299,355,o),
(224,232,c),
(149,355,o),
(111,473,o),
(90,640,c),
(42,640,l),
(64,449,o),
(115,312,o),
(200,202,c),
(200,0,l)
);
}
);
width = 448;
}
);
unicode = 89;
}
{
glyphname = Z;
kernLeft = Z;
kernRight = Z;
layers = (
{
anchors = (
{
name = "#center";
pos = (224,320);
},
{
name = bottom;
pos = (224,0);
},
{
name = top;
pos = (224,640);
}
);
background = {
anchors = (
{
name = bottom;
pos = (224,0);
},
{
name = center;
pos = (224,320);
},
{
name = top;
pos = (224,640);
}
);
hints = (
{
options = 8;
origin = (0,11);
type = TTSnap;
},
{
options = 8;
origin = (0,0);
type = TTSnap;
},
{
options = 4;
origin = (0,0);
target = (0,5);
type = TTShift;
},
{
options = 4;
origin = (0,11);
target = (0,6);
type = TTShift;
},
{
horizontal = 1;
options = 4;
origin = (0,6);
target = (0,7);
type = TTStem;
},
{
horizontal = 1;
options = 4;
origin = (0,0);
target = (0,1);
type = TTStem;
},
{
horizontal = 1;
options = 4;
origin = (0,1);
other1 = (0,10);
target = (0,0);
type = TTInterpolate;
},
{
horizontal = 1;
options = 4;
origin = (0,6);
other1 = (0,4);
target = (0,7);
type = TTInterpolate;
},
{
horizontal = 1;
options = 4;
origin = (0,4);
target = (0,9);
type = TTShift;
},
{
horizontal = 1;
options = 4;
origin = (0,10);
target = (0,3);
type = TTShift;
}
);
shapes = (
{
closed = 1;
nodes = (
(388,0,l),
(388,64,l),
(91,64,l),
(133,52,l),
(388,588,l),
(388,640,l),
(67,640,l),
(67,576,l),
(352,576,l),
(310,588,l),
(55,52,l),
(55,0,l)
);
}
);
};
hints = (
{
options = 8;
origin = (0,9);
type = TTSnap;
},
{
options = 8;
origin = (0,0);
type = TTSnap;
},
{
options = 4;
origin = (0,0);
target = (0,4);
type = TTShift;
},
{
options = 4;
origin = (0,9);
target = (0,5);
type = TTShift;
},
{
horizontal = 1;
options = 4;
origin = (0,5);
target = (0,6);
type = TTStem;
},
{
horizontal = 1;
options = 4;
origin = (0,0);
target = (0,1);
type = TTStem;
},
{
horizontal = 1;
options = 4;
origin = (0,1);
other1 = (0,8);
target = (0,0);
type = TTInterpolate;
},
{
horizontal = 1;
options = 4;
origin = (0,5);
other1 = (0,3);
target = (0,6);
type = TTInterpolate;
},
{
horizontal = 1;
options = 4;
origin = (0,3);
target = (0,3);
type = TTShift;
},
{
horizontal = 1;
options = 4;
origin = (0,8);
target = (0,8);
type = TTShift;
}
);
layerId = "95FB0C11-C828-4064-8966-34220AA4D426";
shapes = (
{
closed = 1;
nodes = (
(388,0,l),
(388,64,l),
(139,64,l),
(388,588,l),
(388,640,l),
(67,640,l),
(67,576,l),
(304,576,l),
(55,52,l),
(55,0,l)
);
}
);
width = 448;
},
{
anchors = (
{
name = "#center";
pos = (224,320);
},
{
name = bottom;
pos = (224,0);
},
{
name = top;
pos = (224,640);
}
);
background = {
anchors = (
{
name = bottom;
pos = (224,0);
},
{
name = center;
pos = (224,320);
},
{
name = top;
pos = (224,640);
}
);
shapes = (
{
closed = 1;
nodes = (
(398,0,l),
(398,80,l),
(91,80,l),
(163,60,l),
(398,580,l),
(398,640,l),
(57,640,l),
(57,560,l),
(352,560,l),
(280,580,l),
(45,60,l),
(45,0,l)
);
}
);
};
layerId = "92967D72-867E-4A8B-929F-F44D834DD4C9";
shapes = (
{
closed = 1;
nodes = (
(398,0,l),
(398,80,l),
(172,80,l),
(398,580,l),
(398,640,l),
(57,640,l),
(57,560,l),
(271,560,l),
(45,60,l),
(45,0,l)
);
}
);
width = 448;
},
{
anchors = (
{
name = "#center";
pos = (224,320);
},
{
name = bottom;
pos = (224,0);
},
{
name = top;
pos = (224,640);
}
);
background = {
anchors = (
{
name = bottom;
pos = (224,0);
},
{
name = center;
pos = (224,320);
},
{
name = top;
pos = (224,640);
}
);
shapes = (
{
closed = 1;
nodes = (
(382,0,l),
(382,44,l),
(91,44,l),
(114,37,l),
(382,603,l),
(382,640,l),
(73,640,l),
(73,596,l),
(352,596,l),
(329,603,l),
(61,37,l),
(61,0,l)
);
}
);
};
layerId = "7DDCEF54-C770-4FAD-B154-EE8058BAA7E5";
shapes = (
{
closed = 1;
nodes = (
(382,0,l),
(382,44,l),
(117,44,l),
(382,603,l),
(382,640,l),
(73,640,l),
(73,596,l),
(326,596,l),
(61,37,l),
(61,0,l)
);
}
);
width = 448;
}
);
unicode = 90;
}
{
glyphname = bracketleft;
kernRight = parenleft;
layers = (
{
hints = (
{
horizontal = 1;
options = 4;
origin = (0,3);
target = (0,4);
type = TTStem;
},
{
horizontal = 1;
options = 4;
origin = (0,0);
target = (0,7);
type = TTStem;
},
{
options = 8;
origin = (0,2);
type = TTSnap;
},
{
options = 4;
origin = (0,2);
target = (0,5);
type = TTStem;
},
{
options = 8;
origin = (0,3);
type = TTSnap;
},
{
options = 4;
origin = (0,3);
target = (0,0);
type = TTShift;
},
{
horizontal = 1;
origin = (0,3);
type = TTSnap;
},
{
horizontal = 1;
origin = (0,0);
type = TTSnap;
}
);
layerId = "95FB0C11-C828-4064-8966-34220AA4D426";
shapes = (
{
closed = 1;
nodes = (
(340,704,l),
(144,704,l),
(144,-64,l),
(340,-64,l),
(340,0,l),
(216,0,l),
(216,640,l),
(340,640,l)
);
}
);
width = 448;
},
{
layerId = "92967D72-867E-4A8B-929F-F44D834DD4C9";
shapes = (
{
closed = 1;
nodes = (
(360,704,l),
(124,704,l),
(124,-64,l),
(360,-64,l),
(360,16,l),
(236,16,l),
(236,624,l),
(360,624,l)
);
}
);
width = 448;
},
{
layerId = "7DDCEF54-C770-4FAD-B154-EE8058BAA7E5";
shapes = (
{
closed = 1;
nodes = (
(328,704,l),
(156,704,l),
(156,-64,l),
(328,-64,l),
(328,-20,l),
(204,-20,l),
(204,660,l),
(328,660,l)
);
}
);
width = 448;
}
);
unicode = 91;
}
{
glyphname = asciicircum;
layers = (
{
background = {
hints = (
{
horizontal = 1;
place = (0,0);
type = TTSnap;
},
{
horizontal = 1;
options = 4;
place = (0,192);
target = (1,2);
type = TTShift;
},
{
horizontal = 1;
place = (0,0);
type = TTSnap;
},
{
horizontal = 1;
options = 4;
other1 = (0,2,1,2);
place = (0,566);
target = (0,3);
type = TTInterpolate;
}
);
shapes = (
{
closed = 1;
nodes = (
(48,192,l),
(124,192,l),
(250,566,l),
(181,566,l)
);
},
{
closed = 1;
nodes = (
(267,566,l),
(198,566,l),
(324,192,l),
(400,192,l)
);
}
);
};
hints = (
{
horizontal = 1;
origin = (0,1);
type = TTSnap;
},
{
horizontal = 1;
options = 4;
origin = (0,1);
target = (0,3);
type = TTShift;
},
{
horizontal = 1;
origin = (0,6);
type = TTSnap;
},
{
horizontal = 1;
options = 4;
origin = (0,1);
other1 = (0,2);
target = (0,6);
type = TTInterpolate;
}
);
layerId = "95FB0C11-C828-4064-8966-34220AA4D426";
shapes = (
{
closed = 1;
nodes = (
(48,192,l),
(124,192,l),
(224,489,l),
(324,192,l),
(400,192,l),
(267,566,l),
(181,566,l)
);
}
);
width = 448;
},
{
background = {
shapes = (
{
closed = 1;
nodes = (
(38,192,l),
(154,192,l),
(266,566,l),
(171,566,l)
);
},
{
closed = 1;
nodes = (
(277,566,l),
(182,566,l),
(294,192,l),
(410,192,l)
);
}
);
};
layerId = "92967D72-867E-4A8B-929F-F44D834DD4C9";
shapes = (
{
closed = 1;
nodes = (
(38,192,l),
(154,192,l),
(224,426,l),
(294,192,l),
(410,192,l),
(277,566,l),
(171,566,l)
);
}
);
width = 448;
},
{
background = {
shapes = (
{
closed = 1;
nodes = (
(54,192,l),
(104,192,l),
(240,566,l),
(191,566,l)
);
},
{
closed = 1;
nodes = (
(257,566,l),
(208,566,l),
(344,192,l),
(394,192,l)
);
}
);
};
layerId = "7DDCEF54-C770-4FAD-B154-EE8058BAA7E5";
shapes = (
{
closed = 1;
nodes = (
(54,192,l),
(104,192,l),
(224,522,l),
(344,192,l),
(394,192,l),
(257,566,l),
(191,566,l)
);
}
);
width = 448;
}
);
unicode = 94;
}
{
glyphname = underscore;
layers = (
{
hints = (
{
horizontal = 1;
options = 4;
origin = (0,1);
target = (0,2);
type = TTStem;
},
{
origin = lsb;
other1 = (0,1);
target = rsb;
type = TTInterpolate;
},
{
origin = lsb;
other1 = (0,0);
target = rsb;
type = TTInterpolate;
}
);
layerId = "95FB0C11-C828-4064-8966-34220AA4D426";
shapes = (
{
closed = 1;
nodes = (
(384,0,l),
(64,0,l),
(64,-64,l),
(384,-64,l)
);
}
);
width = 448;
},
{
layerId = "92967D72-867E-4A8B-929F-F44D834DD4C9";
shapes = (
{
closed = 1;
nodes = (
(384,0,l),
(64,0,l),
(64,-96,l),
(384,-96,l)
);
}
);
width = 448;
},
{
layerId = "7DDCEF54-C770-4FAD-B154-EE8058BAA7E5";
shapes = (
{
closed = 1;
nodes = (
(384,0,l),
(64,0,l),
(64,-44,l),
(384,-44,l)
);
}
);
width = 448;
}
);
unicode = 95;
}
{
glyphname = a;
kernLeft = a;
kernRight = n;
layers = (
{
anchors = (
{
name = bottom;
pos = (224,0);
},
{
name = bottomAttach;
pos = (382,0);
},
{
name = top;
pos = (228,448);
}
);
background = {
anchors = (
{
name = bottom;
pos = (224,0);
},
{
name = bottomAttach;
pos = (382,0);
},
{
name = top;
pos = (228,448);
}
);
hints = (
{
horizontal = 1;
options = 4;
place = (0,60);
target = (1,13);
type = TTStem;
},
{
horizontal = 1;
options = 4;
place = (0,388);
target = (0,15);
type = TTStem;
},
{
horizontal = 1;
place = (0,0);
type = TTSnap;
},
{
horizontal = 1;
other1 = (0,0,1,3);
place = (0,453);
target = (0,8);
type = TTInterpolate;
},
{
horizontal = 1;
options = 4;
place = (0,206);
stem = 0;
target = (0,0,1,19);
type = TTStem;
},
{
options = 4;
place = (0,126);
target = (1,16);
type = TTStem;
},
{
options = 4;
place = (0,308);
target = (0,18);
type = TTStem;
},
{
options = 4;
place = (0,308);
target = (0,0,1,19);
type = TTShift;
},
{
options = 4;
place = (0,312);
target = (0,2,1,9);
type = TTShift;
},
{
options = 4;
place = (0,73);
target = (0,11);
type = TTShift;
},
{
options = 8;
place = (0,0);
type = TTSnap;
},
{
options = 8;
place = (0,0);
type = TTSnap;
},
{
place = (0,0);
settings = {
deltaH = {
"{400, 0, -188, 0, 0, 0}" = {
"16" = 4;
};
"{700, 0, -188, 0, 0, 0}" = {
"16" = 0;
};
};
};
type = TTDelta;
}
);
shapes = (
{
closed = 1;
nodes = (
(308,64,l),
(310,64,l),
(316,0,l),
(382,0,l),
(380,64,l),
(380,299,ls),
(380,409,o),
(321,453,o),
(221,453,cs),
(164,453,o),
(113,437,o),
(73,419,c),
(94,361,l),
(131,375,o),
(175,388,o),
(216,388,cs),
(283,388,o),
(308,363,o),
(308,285,cs)
);
},
{
closed = 1;
nodes = (
(341,266,l),
(129,266,o),
(50,215,o),
(50,119,cs),
(50,37,o),
(109,-4,o),
(176,-4,cs),
(244,-4,o),
(298,30,o),
(345,59,c),
(329,111,l),
(281,85,o),
(236,60,o),
(191,60,cs),
(145,60,o),
(126,86,o),
(126,123,cs),
(126,178,o),
(178,206,o),
(341,206,c)
);
}
);
};
hints = (
{
horizontal = 1;
options = 4;
origin = (0,6);
target = (1,6);
type = TTStem;
},
{
horizontal = 1;
options = 4;
origin = (0,16);
target = (0,23);
type = TTStem;
},
{
horizontal = 1;
origin = (0,10);
type = TTSnap;
},
{
horizontal = 1;
origin = (0,6);
other1 = (0,0);
target = (0,16);
type = TTInterpolate;
},
{
horizontal = 1;
options = 4;
origin = (0,0);
stem = 0;
target = (1,2);
type = TTStem;
},
{
options = 4;
origin = (0,3);
target = (1,9);
type = TTStem;
},
{
options = 4;
origin = (0,13);
target = (0,26);
type = TTStem;
},
{
options = 4;
origin = (0,26);
target = (1,2);
type = TTShift;
},
{
options = 4;
origin = (1,2);
target = (0,9);
type = TTShift;
},
{
options = 4;
origin = (0,3);
target = (0,19);
type = TTShift;
},
{
options = 8;
origin = (0,3);
type = TTSnap;
},
{
options = 8;
origin = (0,13);
type = TTSnap;
},
{
origin = (0,4);
settings = {
deltaH = {
"{400, 0, -188, 0, 0, 0}" = {
"16" = 4;
};
"{700, 0, -188, 0, 0, 0}" = {
"16" = 0;
};
};
};
type = TTDelta;
}
);
layerId = "95FB0C11-C828-4064-8966-34220AA4D426";
shapes = (
{
closed = 1;
nodes = (
(308,266,l),
(120,260,o),
(50,210,o),
(50,119,cs),
(50,37,o),
(109,-4,o),
(176,-4,cs),
(229,-4,o),
(274,17,o),
(312,39,c),
(316,0,l),
(382,0,l),
(380,64,l),
(380,299,ls),
(380,409,o),
(321,453,o),
(221,453,cs),
(164,453,o),
(113,437,o),
(73,419,c),
(94,361,l),
(131,375,o),
(175,388,o),
(216,388,cs),
(283,388,o),
(308,363,o),
(308,285,cs)
);
},
{
closed = 1;
nodes = (
(126,174,o),
(170,202,o),
(308,206,c),
(308,100,l),
(267,78,o),
(229,60,o),
(191,60,cs),
(145,60,o),
(126,86,o),
(126,123,cs)
);
}
);
width = 448;
},
{
anchors = (
{
name = bottom;
pos = (224,0);
},
{
name = bottomAttach;
pos = (390,0);
},
{
name = top;
pos = (224,448);
}
);
background = {
anchors = (
{
name = bottom;
pos = (224,0);
},
{
name = bottomAttach;
pos = (390,0);
},
{
name = top;
pos = (224,448);
}
);
shapes = (
{
closed = 1;
nodes = (
(276,64,l),
(281,64,l),
(289,0,l),
(390,0,l),
(388,64,l),
(388,299,ls),
(388,407,o),
(331,454,o),
(220,454,cs),
(151,454,o),
(94,437,o),
(56,423,c),
(74,344,l),
(106,354,o),
(151,366,o),
(196,366,cs),
(256,366,o),
(276,346,o),
(276,285,cs)
);
},
{
closed = 1;
nodes = (
(339,276,l),
(124,276,o),
(38,228,o),
(38,123,cs),
(38,39,o),
(93,-4,o),
(170,-4,cs),
(246,-4,o),
(299,33,o),
(353,75,c),
(326,130,l),
(271,91,o),
(239,76,o),
(207,76,cs),
(170,76,o),
(154,98,o),
(154,128,cs),
(154,176,o),
(198,207,o),
(339,207,c)
);
}
);
};
layerId = "92967D72-867E-4A8B-929F-F44D834DD4C9";
shapes = (
{
closed = 1;
nodes = (
(276,274,l),
(108,265,o),
(38,217,o),
(38,123,cs),
(38,39,o),
(93,-4,o),
(170,-4,cs),
(215,-4,o),
(252,9,o),
(285,28,c),
(289,0,l),
(390,0,l),
(388,64,l),
(388,299,ls),
(388,407,o),
(331,454,o),
(220,454,cs),
(151,454,o),
(94,437,o),
(56,423,c),
(74,344,l),
(106,354,o),
(151,366,o),
(196,366,cs),
(256,366,o),
(276,346,o),
(276,285,cs)
);
},
{
closed = 1;
nodes = (
(154,168,o),
(185,196,o),
(276,204,c),
(276,98,l),
(249,83,o),
(228,76,o),
(207,76,cs),
(170,76,o),
(154,98,o),
(154,128,cs)
);
}
);
width = 448;
},
{
anchors = (
{
name = bottom;
pos = (224,0);
},
{
name = bottomAttach;
pos = (370,0);
},
{
name = top;
pos = (224,448);
}
);
background = {
anchors = (
{
name = bottom;
pos = (224,0);
},
{
name = bottomAttach;
pos = (370,0);
},
{
name = top;
pos = (224,448);
}
);
shapes = (
{
closed = 1;
nodes = (
(320,78,l),
(321,78,l),
(326,0,l),
(370,0,l),
(368,78,l),
(368,312,ls),
(368,415,o),
(311,452,o),
(226,452,cs),
(166,452,o),
(108,433,o),
(70,417,c),
(82,379,l),
(128,395,o),
(173,407,o),
(222,407,cs),
(291,407,o),
(320,382,o),
(320,298,cs)
);
},
{
closed = 1;
nodes = (
(335,258,l),
(138,258,o),
(50,204,o),
(50,113,cs),
(50,35,o),
(108,-4,o),
(172,-4,cs),
(236,-4,o),
(283,30,o),
(338,71,c),
(324,107,l),
(268,65,o),
(227,41,o),
(174,41,cs),
(128,41,o),
(102,70,o),
(102,115,cs),
(102,180,o),
(165,217,o),
(335,217,c)
);
}
);
};
layerId = "7DDCEF54-C770-4FAD-B154-EE8058BAA7E5";
shapes = (
{
closed = 1;
nodes = (
(320,258,l),
(133,255,o),
(50,202,o),
(50,113,cs),
(50,35,o),
(108,-4,o),
(172,-4,cs),
(230,-4,o),
(273,23,o),
(322,59,c),
(326,0,l),
(370,0,l),
(368,78,l),
(368,312,ls),
(368,415,o),
(311,452,o),
(226,452,cs),
(166,452,o),
(108,433,o),
(70,417,c),
(82,379,l),
(128,395,o),
(173,407,o),
(222,407,cs),
(291,407,o),
(320,382,o),
(320,298,cs)
);
},
{
closed = 1;
nodes = (
(102,178,o),
(162,215,o),
(320,217,c),
(320,104,l),
(265,63,o),
(226,41,o),
(174,41,cs),
(128,41,o),
(102,70,o),
(102,115,cs)
);
}
);
width = 448;
}
);
unicode = 97;
}
{
glyphname = e;
kernLeft = o;
kernRight = e;
layers = (
{
anchors = (
{
name = bottom;
pos = (224,0);
},
{
name = bottomAttach;
pos = (331,0);
},
{
name = top;
pos = (224,448);
}
);
background = {
anchors = (
{
name = bottom;
pos = (224,0);
},
{
name = bottomAttach;
pos = (331,0);
},
{
name = top;
pos = (224,448);
}
);
hints = (
{
horizontal = 1;
options = 4;
place = (0,51);
target = (0,9);
type = TTStem;
},
{
horizontal = 1;
options = 4;
place = (0,397);
target = (0,15);
type = TTStem;
},
{
horizontal = 1;
other1 = (0,12,0,22);
place = (0,461);
target = (0,25);
type = TTInterpolate;
},
{
horizontal = 1;
options = 4;
place = (0,262);
target = (0,15,0,20);
type = TTStem;
},
{
options = 4;
place = (0,127);
target = (0,15,0,20);
type = TTStem;
},
{
options = 4;
place = (0,321);
target = (0,18,0,20);
type = TTStem;
},
{
options = 4;
place = (0,375);
target = (0,5);
type = TTShift;
},
{
options = 4;
place = (0,126);
target = (0,12,0,22);
type = TTShift;
},
{
options = 8;
place = (0,0);
type = TTSnap;
},
{
options = 8;
place = (0,0);
type = TTSnap;
}
);
shapes = (
{
closed = 1;
nodes = (
(50,93,o),
(95,-13,o),
(242,-13,cs),
(285,-13,o),
(330,-4,o),
(375,16,c),
(361,74,l),
(323,61,o),
(286,51,o),
(246,51,cs),
(156,51,o),
(126,95,o),
(126,224,cs),
(126,351,o),
(155,397,o),
(224,397,cs),
(294,397,o),
(326,343,o),
(320,224,c),
(360,262,l),
(92,262,l),
(92,202,l),
(395,202,l),
(407,360,o),
(346,461,o),
(224,461,cs),
(95,461,o),
(50,355,o),
(50,224,cs)
);
}
);
};
hints = (
{
horizontal = 1;
options = 4;
origin = (0,2);
target = (0,9);
type = TTStem;
},
{
horizontal = 1;
options = 4;
origin = (0,16);
target = (1,2);
type = TTStem;
},
{
horizontal = 1;
origin = (0,2);
other1 = (0,12);
target = (0,16);
type = TTInterpolate;
},
{
horizontal = 1;
options = 4;
origin = (0,12);
target = (1,6);
type = TTStem;
},
{
options = 4;
origin = (0,19);
target = (1,6);
type = TTStem;
},
{
options = 4;
origin = (0,13);
target = (1,5);
type = TTStem;
},
{
options = 4;
origin = (0,13);
target = (0,5);
type = TTShift;
},
{
options = 4;
origin = (1,6);
target = (0,12);
type = TTShift;
},
{
options = 8;
origin = (0,19);
type = TTSnap;
},
{
options = 8;
origin = (0,13);
type = TTSnap;
}
);
layerId = "95FB0C11-C828-4064-8966-34220AA4D426";
shapes = (
{
closed = 1;
nodes = (
(50,93,o),
(95,-13,o),
(242,-13,cs),
(285,-13,o),
(330,-4,o),
(375,16,c),
(361,74,l),
(323,61,o),
(286,51,o),
(246,51,cs),
(161,51,o),
(130,89,o),
(126,202,c),
(395,202,l),
(407,360,o),
(346,461,o),
(224,461,cs),
(95,461,o),
(50,355,o),
(50,224,cs)
);
},
{
closed = 1;
nodes = (
(133,361,o),
(162,397,o),
(224,397,cs),
(286,397,o),
(318,355,o),
(321,262,c),
(127,262,l)
);
}
);
width = 448;
},
{
anchors = (
{
name = bottom;
pos = (224,0);
},
{
name = bottomAttach;
pos = (331,0);
},
{
name = top;
pos = (224,448);
}
);
background = {
anchors = (
{
name = bottom;
pos = (224,0);
},
{
name = bottomAttach;
pos = (331,0);
},
{
name = top;
pos = (224,448);
}
);
shapes = (
{
closed = 1;
nodes = (
(40,93,o),
(87,-13,o),
(242,-13,cs),
(293,-13,o),
(343,1,o),
(389,20,c),
(371,92,l),
(333,79,o),
(291,67,o),
(258,67,cs),
(183,67,o),
(156,107,o),
(156,224,cs),
(156,339,o),
(176,381,o),
(224,381,cs),
(272,381,o),
(298,331,o),
(290,224,c),
(330,265,l),
(102,265,l),
(102,189,l),
(403,189,l),
(423,341,o),
(364,461,o),
(224,461,cs),
(87,461,o),
(40,355,o),
(40,224,cs)
);
}
);
};
layerId = "92967D72-867E-4A8B-929F-F44D834DD4C9";
shapes = (
{
closed = 1;
nodes = (
(40,93,o),
(87,-13,o),
(242,-13,cs),
(293,-13,o),
(343,1,o),
(389,20,c),
(371,92,l),
(333,79,o),
(291,67,o),
(258,67,cs),
(191,67,o),
(162,100,o),
(157,189,c),
(403,189,l),
(423,341,o),
(364,461,o),
(224,461,cs),
(87,461,o),
(40,355,o),
(40,224,cs)
);
},
{
closed = 1;
nodes = (
(162,350,o),
(182,381,o),
(224,381,cs),
(265,381,o),
(290,345,o),
(291,265,c),
(157,265,l)
);
}
);
width = 448;
},
{
anchors = (
{
name = bottom;
pos = (224,0);
},
{
name = bottomAttach;
pos = (341,0);
},
{
name = top;
pos = (224,448);
}
);
background = {
anchors = (
{
name = bottom;
pos = (224,0);
},
{
name = bottomAttach;
pos = (341,0);
},
{
name = top;
pos = (224,448);
}
);
shapes = (
{
closed = 1;
nodes = (
(56,93,o),
(100,-13,o),
(242,-13,cs),
(289,-13,o),
(333,-5,o),
(372,10,c),
(363,47,l),
(325,36,o),
(286,29,o),
(251,29,cs),
(140,29,o),
(108,103,o),
(108,224,cs),
(108,356,o),
(142,417,o),
(224,417,cs),
(307,417,o),
(344,346,o),
(338,224,c),
(378,256,l),
(86,256,l),
(86,214,l),
(390,214,l),
(397,372,o),
(335,461,o),
(224,461,cs),
(100,461,o),
(56,355,o),
(56,224,cs)
);
}
);
};
layerId = "7DDCEF54-C770-4FAD-B154-EE8058BAA7E5";
shapes = (
{
closed = 1;
nodes = (
(56,93,o),
(100,-13,o),
(242,-13,cs),
(289,-13,o),
(333,-5,o),
(372,10,c),
(363,47,l),
(325,36,o),
(286,29,o),
(251,29,cs),
(143,29,o),
(110,98,o),
(108,214,c),
(390,214,l),
(397,372,o),
(335,461,o),
(224,461,cs),
(100,461,o),
(56,355,o),
(56,224,cs)
);
},
{
closed = 1;
nodes = (
(114,365,o),
(149,417,o),
(224,417,cs),
(299,417,o),
(337,359,o),
(339,256,c),
(109,256,l)
);
}
);
width = 448;
}
);
unicode = 101;
}
{
glyphname = f;
kernLeft = f;
kernRight = f;
layers = (
{
anchors = (
{
name = bottom;
pos = (170,0);
},
{
name = top;
pos = (270,640);
}
);
hints = (
{
horizontal = 1;
options = 4;
origin = (0,16);
target = (0,9);
type = TTStem;
},
{
horizontal = 1;
options = 4;
origin = (0,5);
target = (0,2);
type = TTStem;
},
{
horizontal = 1;
origin = (0,1);
type = TTSnap;
},
{
horizontal = 1;
options = 4;
origin = (0,5);
target = (0,20);
type = TTShift;
},
{
horizontal = 1;
options = 4;
origin = (0,2);
target = (0,23);
type = TTShift;
},
{
options = 4;
origin = (0,2);
target = (0,23);
type = TTStem;
},
{
options = 4;
origin = (0,2);
target = (0,5);
type = TTShift;
},
{
options = 4;
origin = (0,23);
target = (0,20);
type = TTShift;
},
{
origin = (0,23);
stem = -1;
target = (0,22);
type = TTStem;
},
{
options = 8;
origin = (0,13);
type = TTSnap;
},
{
options = 4;
origin = (0,13);
target = (0,3);
type = TTShift;
},
{
options = 8;
origin = (0,2);
type = TTSnap;
}
);
layerId = "95FB0C11-C828-4064-8966-34220AA4D426";
shapes = (
{
closed = 1;
nodes = (
(134,0,l),
(206,0,l),
(206,384,l),
(350,384,l),
(350,448,l),
(206,448,l),
(206,509,ls),
(206,549,o),
(221,584,o),
(274,584,cs),
(304,584,o),
(334,580,o),
(367,575,c),
(378,638,l),
(340,645,o),
(304,648,o),
(270,648,cs),
(192,648,o),
(134,605,o),
(134,504,cs),
(134,448,l),
(59,448,l),
(59,386,l),
(134,383,l)
);
}
);
width = 448;
},
{
anchors = (
{
name = bottom;
pos = (190,0);
},
{
name = top;
pos = (288,640);
}
);
layerId = "92967D72-867E-4A8B-929F-F44D834DD4C9";
shapes = (
{
closed = 1;
nodes = (
(134,0,l),
(246,0,l),
(246,364,l),
(370,364,l),
(370,448,l),
(246,448,l),
(246,506,ls),
(246,540,o),
(261,568,o),
(316,568,cs),
(343,568,o),
(371,565,o),
(395,561,c),
(407,633,l),
(375,641,o),
(323,648,o),
(288,648,cs),
(197,648,o),
(134,605,o),
(134,504,cs),
(134,448,l),
(59,448,l),
(59,366,l),
(134,363,l)
);
}
);
width = 448;
},
{
anchors = (
{
name = bottom;
pos = (158,0);
},
{
name = top;
pos = (259,640);
}
);
layerId = "7DDCEF54-C770-4FAD-B154-EE8058BAA7E5";
shapes = (
{
closed = 1;
nodes = (
(134,0,l),
(182,0,l),
(182,406,l),
(338,406,l),
(338,448,l),
(182,448,l),
(182,511,ls),
(182,559,o),
(202,604,o),
(268,604,cs),
(295,604,o),
(329,600,o),
(360,593,c),
(369,635,l),
(338,642,o),
(303,648,o),
(259,648,cs),
(189,648,o),
(134,605,o),
(134,504,cs),
(134,448,l),
(59,448,l),
(59,408,l),
(134,405,l)
);
}
);
width = 448;
}
);
unicode = 102;
}
{
glyphname = g;
kernLeft = g;
kernRight = g;
layers = (
{
anchors = (
{
name = "#center";
pos = (320,224);
},
{
name = bottom;
pos = (224,-192);
},
{
name = top;
pos = (224,448);
}
);
background = {
anchors = (
{
name = "#center";
pos = (320,224);
},
{
name = bottom;
pos = (224,-192);
},
{
name = top;
pos = (224,448);
}
);
hints = (
{
horizontal = 1;
place = (0,0);
type = TTSnap;
},
{
horizontal = 1;
options = 4;
place = (0,-132);
target = (0,11);
type = TTStem;
},
{
options = 8;
place = (0,0);
type = TTSnap;
},
{
options = 4;
place = (0,316);
target = (0,8,1,21);
type = TTStem;
},
{
options = 4;
place = (0,316);
target = (0,8,1,8);
type = TTShift;
},
{
horizontal = 1;
options = 4;
place = (0,392);
target = (1,18);
type = TTStem;
},
{
horizontal = 1;
options = 4;
place = (0,56);
target = (1,12);
type = TTStem;
},
{
horizontal = 1;
place = (0,0);
stem = -1;
type = TTSnap;
},
{
options = 8;
place = (0,0);
type = TTSnap;
},
{
options = 4;
place = (0,124);
target = (1,15);
type = TTStem;
},
{
place = (0,102);
target = (0,15);
type = TTShift;
},
{
options = 4;
place = (0,324);
target = (0,6,1,25);
type = TTShift;
}
);
shapes = (
{
closed = 1;
nodes = (
(319,-196,o),
(388,-154,o),
(388,-36,cs),
(388,384,l),
(390,448,l),
(329,448,l),
(320,383,l),
(316,367,l),
(316,-49,ls),
(316,-105,o),
(298,-132,o),
(222,-132,cs),
(189,-132,o),
(151,-131,o),
(112,-123,c),
(102,-181,l),
(142,-191,o),
(183,-196,o),
(223,-196,cs)
);
},
{
closed = 1;
nodes = (
(108,456,o),
(46,370,o),
(46,224,cs),
(46,79,o),
(108,-8,o),
(212,-8,cs),
(274,-8,o),
(329,20,o),
(358,88,c),
(323,109,l),
(300,70,o),
(263,56,o),
(221,56,cs),
(149,56,o),
(124,99,o),
(124,224,cs),
(124,347,o),
(150,392,o),
(221,392,cs),
(262,392,o),
(299,378,o),
(322,341,c),
(357,364,l),
(327,429,o),
(274,456,o),
(213,456,cs)
);
}
);
};
hints = (
{
horizontal = 1;
origin = (0,4);
type = TTSnap;
},
{
horizontal = 1;
options = 4;
origin = (0,29);
target = (0,22);
type = TTStem;
},
{
options = 8;
origin = (0,3);
type = TTSnap;
},
{
options = 4;
origin = (0,3);
target = (1,8);
type = TTStem;
},
{
options = 4;
origin = (1,8);
target = (0,18);
type = TTShift;
},
{
horizontal = 1;
options = 4;
origin = (0,9);
target = (1,5);
type = TTStem;
},
{
horizontal = 1;
options = 4;
origin = (0,15);
target = (1,12);
type = TTStem;
},
{
horizontal = 1;
origin = (0,15);
stem = -1;
type = TTSnap;
},
{
options = 8;
origin = (0,12);
type = TTSnap;
},
{
options = 4;
origin = (0,12);
target = (1,2);
type = TTStem;
},
{
origin = (0,12);
target = (0,26);
type = TTShift;
},
{
options = 4;
origin = (1,8);
target = (0,6);
type = TTShift;
}
);
layerId = "95FB0C11-C828-4064-8966-34220AA4D426";
shapes = (
{
closed = 1;
nodes = (
(319,-196,o),
(388,-154,o),
(388,-36,cs),
(388,384,l),
(390,448,l),
(329,448,l),
(324,413,l),
(295,442,o),
(256,456,o),
(213,456,cs),
(108,456,o),
(46,370,o),
(46,224,cs),
(46,79,o),
(108,-8,o),
(212,-8,cs),
(251,-8,o),
(287,3,o),
(316,28,c),
(316,-49,ls),
(316,-105,o),
(298,-132,o),
(222,-132,cs),
(189,-132,o),
(151,-131,o),
(112,-123,c),
(102,-181,l),
(142,-191,o),
(183,-196,o),
(223,-196,cs)
);
},
{
closed = 1;
nodes = (
(149,56,o),
(124,99,o),
(124,224,cs),
(124,347,o),
(150,392,o),
(221,392,cs),
(259,392,o),
(293,380,o),
(316,350,c),
(316,98,l),
(293,67,o),
(259,56,o),
(221,56,cs)
);
}
);
width = 448;
},
{
anchors = (
{
name = "#center";
pos = (320,224);
},
{
name = bottom;
pos = (224,-192);
},
{
name = top;
pos = (224,448);
}
);
background = {
anchors = (
{
name = "#center";
pos = (320,224);
},
{
name = bottom;
pos = (224,-192);
},
{
name = top;
pos = (224,448);
}
);
shapes = (
{
closed = 1;
nodes = (
(324,-196,o),
(397,-154,o),
(397,-36,cs),
(397,384,l),
(399,448,l),
(311,448,l),
(295,356,l),
(285,356,l),
(285,-49,ls),
(285,-94,o),
(269,-116,o),
(199,-116,cs),
(171,-116,o),
(128,-111,o),
(89,-105,c),
(78,-179,l),
(123,-189,o),
(179,-196,o),
(219,-196,cs)
);
},
{
closed = 1;
nodes = (
(93,456,o),
(34,373,o),
(34,224,cs),
(34,75,o),
(92,-8,o),
(198,-8,cs),
(260,-8,o),
(306,20,o),
(335,88,c),
(289,112,l),
(271,84,o),
(247,74,o),
(218,74,cs),
(170,74,o),
(152,117,o),
(152,224,cs),
(152,336,o),
(169,374,o),
(218,374,cs),
(247,374,o),
(270,364,o),
(288,336,c),
(338,364,l),
(308,429,o),
(260,456,o),
(199,456,cs)
);
}
);
};
layerId = "92967D72-867E-4A8B-929F-F44D834DD4C9";
shapes = (
{
closed = 1;
nodes = (
(324,-196,o),
(397,-154,o),
(397,-36,cs),
(397,384,l),
(399,448,l),
(311,448,l),
(305,414,l),
(277,443,o),
(241,456,o),
(199,456,cs),
(93,456,o),
(34,373,o),
(34,224,cs),
(34,75,o),
(92,-8,o),
(198,-8,cs),
(232,-8,o),
(260,0,o),
(285,19,c),
(285,-49,ls),
(285,-94,o),
(269,-116,o),
(199,-116,cs),
(171,-116,o),
(128,-111,o),
(89,-105,c),
(78,-179,l),
(123,-189,o),
(179,-196,o),
(219,-196,cs)
);
},
{
closed = 1;
nodes = (
(170,74,o),
(152,117,o),
(152,224,cs),
(152,336,o),
(169,374,o),
(218,374,cs),
(245,374,o),
(268,364,o),
(285,340,c),
(285,106,l),
(268,83,o),
(245,74,o),
(218,74,cs)
);
}
);
width = 448;
},
{
anchors = (
{
name = "#center";
pos = (320,224);
},
{
name = bottom;
pos = (224,-192);
},
{
name = top;
pos = (224,448);
}
);
background = {
anchors = (
{
name = "#center";
pos = (320,224);
},
{
name = bottom;
pos = (224,-192);
},
{
name = top;
pos = (224,448);
}
);
shapes = (
{
closed = 1;
nodes = (
(323,-196,o),
(382,-151,o),
(382,-49,cs),
(382,384,l),
(384,448,l),
(339,448,l),
(334,399,l),
(334,374,l),
(334,-46,ls),
(334,-123,o),
(305,-154,o),
(220,-154,cs),
(189,-154,o),
(153,-149,o),
(120,-142,c),
(116,-182,l),
(153,-192,o),
(185,-196,o),
(225,-196,cs)
);
},
{
closed = 1;
nodes = (
(113,456,o),
(54,373,o),
(54,224,cs),
(54,76,o),
(114,-8,o),
(220,-8,cs),
(284,-8,o),
(322,20,o),
(361,60,c),
(342,83,l),
(308,53,o),
(273,34,o),
(222,34,cs),
(143,34,o),
(106,95,o),
(106,224,cs),
(106,357,o),
(141,414,o),
(221,414,cs),
(272,414,o),
(308,395,o),
(342,365,c),
(361,388,l),
(322,428,o),
(283,456,o),
(219,456,cs)
);
}
);
};
layerId = "7DDCEF54-C770-4FAD-B154-EE8058BAA7E5";
shapes = (
{
closed = 1;
nodes = (
(323,-196,o),
(382,-151,o),
(382,-49,cs),
(382,384,l),
(384,448,l),
(339,448,l),
(335,412,l),
(303,439,o),
(269,456,o),
(219,456,cs),
(113,456,o),
(54,373,o),
(54,224,cs),
(54,76,o),
(114,-8,o),
(220,-8,cs),
(269,-8,o),
(303,9,o),
(334,35,c),
(334,-46,ls),
(334,-123,o),
(305,-154,o),
(220,-154,cs),
(189,-154,o),
(153,-149,o),
(120,-142,c),
(116,-182,l),
(153,-192,o),
(185,-196,o),
(225,-196,cs)
);
},
{
closed = 1;
nodes = (
(143,34,o),
(106,95,o),
(106,224,cs),
(106,357,o),
(141,414,o),
(221,414,cs),
(268,414,o),
(302,398,o),
(334,372,c),
(334,76,l),
(302,50,o),
(269,34,o),
(222,34,cs)
);
}
);
width = 448;
},
{
anchors = (
{
name = "#center";
pos = (320,275);
},
{
name = bottom;
pos = (224,-64);
},
{
name = top;
pos = (224,448);
}
);
associatedMasterId = "95FB0C11-C828-4064-8966-34220AA4D426";
attr = {
coordinates = (
400,
-64,
0
);
};
background = {
anchors = (
{
name = "#center";
pos = (320,275);
},
{
name = bottom;
pos = (224,-64);
},
{
name = top;
pos = (224,448);
}
);
shapes = (
{
closed = 1;
nodes = (
(319,-68,o),
(388,-26,o),
(388,92,cs),
(388,384,l),
(390,448,l),
(329,448,l),
(320,383,l),
(316,367,l),
(316,79,ls),
(316,23,o),
(298,-4,o),
(222,-4,cs),
(189,-4,o),
(151,-3,o),
(112,5,c),
(102,-53,l),
(142,-63,o),
(183,-68,o),
(223,-68,cs)
);
},
{
closed = 1;
nodes = (
(108,456,o),
(46,388,o),
(46,272,cs),
(46,156,o),
(108,88,o),
(212,88,cs),
(274,88,o),
(329,110,o),
(358,164,c),
(323,190,l),
(300,162,o),
(263,152,o),
(221,152,cs),
(149,152,o),
(124,184,o),
(124,272,cs),
(124,362,o),
(149,392,o),
(221,392,cs),
(262,392,o),
(299,382,o),
(322,356,c),
(357,383,l),
(327,435,o),
(274,456,o),
(213,456,cs)
);
},
{
angle = 180;
pos = (448,544);
ref = _part.bowl.descender;
}
);
};
layerId = "0C4DA497-234A-4933-A06A-0B2437F8261E";
name = "{400, 0, -64}";
shapes = (
{
closed = 1;
nodes = (
(319,-68,o),
(388,-26,o),
(388,92,cs),
(388,384,l),
(390,448,l),
(329,448,l),
(325,421,l),
(296,445,o),
(256,456,o),
(213,456,cs),
(108,456,o),
(46,388,o),
(46,272,cs),
(46,156,o),
(108,88,o),
(212,88,cs),
(251,88,o),
(287,97,o),
(316,117,c),
(316,79,ls),
(316,23,o),
(298,-4,o),
(222,-4,cs),
(189,-4,o),
(151,-3,o),
(112,5,c),
(102,-53,l),
(142,-63,o),
(183,-68,o),
(223,-68,cs)
);
},
{
closed = 1;
nodes = (
(149,152,o),
(124,184,o),
(124,272,cs),
(124,362,o),
(149,392,o),
(221,392,cs),
(259,392,o),
(292,384,o),
(316,362,c),
(316,182,l),
(293,160,o),
(259,152,o),
(221,152,cs)
);
}
);
width = 448;
},
{
anchors = (
{
name = "#center";
pos = (320,275);
},
{
name = bottom;
pos = (224,-64);
},
{
name = top;
pos = (224,448);
}
);
associatedMasterId = "92967D72-867E-4A8B-929F-F44D834DD4C9";
attr = {
coordinates = (
700,
-64,
0
);
};
background = {
anchors = (
{
name = "#center";
pos = (320,224);
},
{
name = bottom;
pos = (224,-64);
},
{
name = top;
pos = (224,448);
}
);
shapes = (
{
closed = 1;
nodes = (
(324,-68,o),
(397,-26,o),
(397,92,cs),
(397,384,l),
(399,448,l),
(311,448,l),
(295,356,l),
(285,356,l),
(285,79,ls),
(285,34,o),
(269,12,o),
(199,12,cs),
(171,12,o),
(128,17,o),
(89,23,c),
(78,-51,l),
(123,-61,o),
(179,-68,o),
(219,-68,cs)
);
},
{
angle = 180;
pos = (446,544);
ref = _part.bowl.descender;
}
);
};
layerId = "9268B4CA-772C-4D3C-B4A4-EBF62D095069";
name = "5. Mar 25 at 12:27";
shapes = (
{
closed = 1;
nodes = (
(324,-68,o),
(397,-26,o),
(397,92,cs),
(397,384,l),
(399,448,l),
(311,448,l),
(307,427,l),
(279,447,o),
(248,456,o),
(202,456,cs),
(93,456,o),
(34,381,o),
(34,263,cs),
(34,150,o),
(92,88,o),
(198,88,cs),
(232,88,o),
(260,94,o),
(285,109,c),
(285,79,ls),
(285,34,o),
(269,12,o),
(199,12,cs),
(171,12,o),
(128,17,o),
(89,23,c),
(78,-51,l),
(123,-61,o),
(179,-68,o),
(219,-68,cs)
);
},
{
closed = 1;
nodes = (
(168,173,o),
(151,193,o),
(151,263,cs),
(151,334,o),
(164,372,o),
(223,372,cs),
(246,372,o),
(269,366,o),
(285,354,c),
(285,193,l),
(267,179,o),
(244,173,o),
(219,173,cs)
);
}
);
width = 448;
},
{
anchors = (
{
name = "#center";
pos = (320,275);
},
{
name = bottom;
pos = (224,-64);
},
{
name = top;
pos = (224,448);
}
);
associatedMasterId = "7DDCEF54-C770-4FAD-B154-EE8058BAA7E5";
attr = {
coordinates = (
200,
-64,
0
);
};
background = {
shapes = (
{
closed = 1;
nodes = (
(170,456,o),
(130,441,o),
(103,413,cs),
(71,381,o),
(54,333,o),
(54,270,cs),
(54,207,o),
(71,162,o),
(101,131,cs),
(129,104,o),
(168,88,o),
(219,88,cs),
(280,88,o),
(326,107,o),
(362,139,c),
(340,167,l),
(309,146,o),
(270,133,o),
(221,133,cs),
(186,133,o),
(159,140,o),
(140,159,cs),
(117,182,o),
(106,218,o),
(106,270,cs),
(106,323,o),
(117,362,o),
(140,385,cs),
(157,402,o),
(187,411,o),
(223,411,cs),
(272,411,o),
(311,398,o),
(344,378,c),
(365,406,l),
(327,437,o),
(282,456,o),
(222,456,cs)
);
},
{
closed = 1;
nodes = (
(323,-68,o),
(382,-23,o),
(382,79,cs),
(382,384,l),
(384,448,l),
(339,448,l),
(334,399,l),
(334,374,l),
(334,82,ls),
(334,5,o),
(305,-26,o),
(220,-26,cs),
(189,-26,o),
(153,-21,o),
(120,-14,c),
(116,-54,l),
(153,-64,o),
(185,-68,o),
(225,-68,cs)
);
}
);
};
hints = (
{
horizontal = 1;
options = 4;
origin = (0,9);
target = (1,5);
type = TTStem;
},
{
horizontal = 1;
options = 4;
origin = (0,15);
target = (1,12);
type = TTStem;
},
{
origin = (1,2);
type = TTSnap;
},
{
options = 4;
origin = (1,2);
target = (0,12);
type = TTStem;
}
);
layerId = "43143C02-E11C-4899-8D4D-00EF2E076783";
name = "5. Mar 25 at 12:36";
shapes = (
{
closed = 1;
nodes = (
(323,-68,o),
(382,-23,o),
(382,79,cs),
(382,384,l),
(384,448,l),
(339,448,l),
(337,426,l),
(305,445,o),
(268,456,o),
(222,456,cs),
(109,456,o),
(54,383,o),
(54,270,cs),
(54,157,o),
(111,88,o),
(219,88,cs),
(265,88,o),
(303,99,o),
(334,118,c),
(334,82,ls),
(334,5,o),
(305,-26,o),
(220,-26,cs),
(189,-26,o),
(153,-21,o),
(120,-14,c),
(116,-54,l),
(153,-64,o),
(185,-68,o),
(225,-68,cs)
);
},
{
closed = 1;
nodes = (
(137,133,o),
(106,180,o),
(106,270,cs),
(106,360,o),
(133,411,o),
(223,411,cs),
(267,411,o),
(304,400,o),
(334,384,c),
(334,163,l),
(305,145,o),
(267,133,o),
(221,133,cs)
);
}
);
width = 448;
}
);
unicode = 103;
}
{
glyphname = h;
kernLeft = h;
kernRight = n;
layers = (
{
anchors = (
{
name = "#center";
pos = (138,534);
},
{
name = bottom;
pos = (224,0);
},
{
name = origin.hook;
pos = (316,0);
},
{
name = top;
pos = (224,640);
}
);
background = {
anchors = (
{
name = "#center";
pos = (138,534);
},
{
name = bottom;
pos = (224,0);
},
{
name = origin.hook;
pos = (316,0);
},
{
name = top;
pos = (224,640);
}
);
hints = (
{
horizontal = 1;
place = (0,0);
type = TTSnap;
},
{
horizontal = 1;
options = 4;
place = (0,388);
target = (1,11);
type = TTStem;
},
{
options = 4;
place = (0,316);
target = (1,14);
type = TTStem;
},
{
options = 4;
place = (0,132);
target = (0,0);
type = TTStem;
},
{
options = 4;
place = (0,132);
target = (0,1,1,7);
type = TTShift;
},
{
options = 8;
place = (0,0);
type = TTSnap;
},
{
options = 8;
place = (0,0);
type = TTSnap;
},
{
horizontal = 1;
options = 4;
place = (0,0);
target = (1,15);
type = TTShift;
}
);
shapes = (
{
closed = 1;
nodes = (
(132,0,l),
(132,640,l),
(60,640,l),
(60,0,l)
);
},
{
closed = 1;
nodes = (
(388,0,l),
(388,304,ls),
(388,409,o),
(332,452,o),
(259,452,cs),
(186,452,o),
(126,398,o),
(85,342,c),
(117,314,l),
(152,354,o),
(198,388,o),
(245,388,cs),
(293,388,o),
(316,358,o),
(316,301,cs),
(316,0,l)
);
}
);
};
hints = (
{
horizontal = 1;
origin = (0,17);
type = TTSnap;
},
{
horizontal = 1;
options = 4;
origin = (0,13);
target = (0,4);
type = TTStem;
},
{
options = 4;
origin = (0,10);
target = (0,7);
type = TTStem;
},
{
options = 4;
origin = (0,19);
target = (0,0);
type = TTStem;
},
{
options = 4;
origin = (0,0);
target = (0,16);
type = TTShift;
},
{
options = 8;
origin = (0,19);
type = TTSnap;
},
{
options = 8;
origin = (0,10);
type = TTSnap;
},
{
horizontal = 1;
options = 4;
origin = (0,0);
target = (0,8);
type = TTShift;
}
);
layerId = "95FB0C11-C828-4064-8966-34220AA4D426";
shapes = (
{
closed = 1;
nodes = (
(132,0,l),
(132,330,l),
(164,362,o),
(204,388,o),
(245,388,cs),
(293,388,o),
(316,358,o),
(316,301,cs),
(316,0,l),
(388,0,l),
(388,304,ls),
(388,409,o),
(332,452,o),
(259,452,cs),
(210,452,o),
(168,428,o),
(132,395,c),
(132,640,l),
(60,640,l),
(60,0,l)
);
}
);
width = 448;
},
{
anchors = (
{
name = "#center";
pos = (138,534);
},
{
name = bottom;
pos = (224,0);
},
{
name = origin.hook;
pos = (286,0);
},
{
name = top;
pos = (224,640);
}
);
background = {
anchors = (
{
name = "#center";
pos = (138,534);
},
{
name = bottom;
pos = (224,0);
},
{
name = origin.hook;
pos = (286,0);
},
{
name = top;
pos = (224,640);
}
);
shapes = (
{
closed = 1;
nodes = (
(162,0,l),
(162,640,l),
(50,640,l),
(50,0,l)
);
},
{
closed = 1;
nodes = (
(398,0,l),
(398,314,ls),
(398,410,o),
(348,452,o),
(272,452,cs),
(192,452,o),
(134,396,o),
(80,334,c),
(124,292,l),
(157,336,o),
(200,368,o),
(234,368,cs),
(270,368,o),
(286,347,o),
(286,306,cs),
(286,0,l)
);
}
);
};
layerId = "92967D72-867E-4A8B-929F-F44D834DD4C9";
shapes = (
{
closed = 1;
nodes = (
(162,0,l),
(162,333,l),
(186,354,o),
(212,368,o),
(234,368,cs),
(270,368,o),
(286,347,o),
(286,306,cs),
(286,0,l),
(398,0,l),
(398,314,ls),
(398,410,o),
(348,452,o),
(272,452,cs),
(230,452,o),
(195,437,o),
(162,413,c),
(162,640,l),
(50,640,l),
(50,0,l)
);
}
);
width = 448;
},
{
anchors = (
{
name = "#center";
pos = (138,534);
},
{
name = bottom;
pos = (224,0);
},
{
name = origin.hook;
pos = (334,0);
},
{
name = top;
pos = (224,640);
}
);
background = {
anchors = (
{
name = "#center";
pos = (138,534);
},
{
name = bottom;
pos = (224,0);
},
{
name = origin.hook;
pos = (334,0);
},
{
name = top;
pos = (224,640);
}
);
shapes = (
{
closed = 1;
nodes = (
(114,0,l),
(114,640,l),
(66,640,l),
(66,0,l)
);
},
{
closed = 1;
nodes = (
(382,0,l),
(382,309,ls),
(382,422,o),
(323,452,o),
(261,452,cs),
(188,452,o),
(120,394,o),
(83,345,c),
(103,328,l),
(150,373,o),
(197,408,o),
(252,408,cs),
(311,408,o),
(334,379,o),
(334,305,cs),
(334,0,l)
);
}
);
};
layerId = "7DDCEF54-C770-4FAD-B154-EE8058BAA7E5";
shapes = (
{
closed = 1;
nodes = (
(114,0,l),
(114,338,l),
(157,378,o),
(201,408,o),
(252,408,cs),
(311,408,o),
(334,379,o),
(334,305,cs),
(334,0,l),
(382,0,l),
(382,309,ls),
(382,422,o),
(323,452,o),
(261,452,cs),
(205,452,o),
(152,418,o),
(114,380,c),
(114,640,l),
(66,640,l),
(66,0,l)
);
}
);
width = 448;
}
);
unicode = 104;
}
{
glyphname = l;
layers = (
{
anchors = (
{
name = "#center";
pos = (193,351);
},
{
name = "#slash";
pos = (210,384);
},
{
name = bottom;
pos = (238,0);
},
{
name = top;
pos = (188,640);
}
);
hints = (
{
horizontal = 1;
options = 4;
origin = (0,5);
target = (0,12);
type = TTStem;
},
{
horizontal = 1;
options = 4;
origin = (0,16);
target = (0,1);
type = TTStem;
},
{
options = 8;
origin = (0,2);
type = TTSnap;
},
{
options = 4;
origin = (0,2);
target = (0,15);
type = TTStem;
},
{
origin = (0,15);
target = (0,8);
type = TTShift;
},
{
origin = (0,2);
target = (0,0);
type = TTShift;
}
);
layerId = "95FB0C11-C828-4064-8966-34220AA4D426";
shapes = (
{
closed = 1;
nodes = (
(77,581,l),
(152,576,l),
(152,124,ls),
(152,28,o),
(211,-4,o),
(284,-4,cs),
(305,-4,o),
(323,-3,o),
(346,0,c),
(341,63,l),
(321,61,o),
(301,60,o),
(287,60,cs),
(241,60,o),
(224,83,o),
(224,119,cs),
(224,640,l),
(77,640,l)
);
}
);
width = 448;
},
{
anchors = (
{
name = "#center";
pos = (193,351);
},
{
name = "#slash";
pos = (210,384);
},
{
name = bottom;
pos = (238,0);
},
{
name = top;
pos = (192,640);
}
);
layerId = "92967D72-867E-4A8B-929F-F44D834DD4C9";
shapes = (
{
closed = 1;
nodes = (
(61,567,l),
(136,560,l),
(136,139,ls),
(136,30,o),
(207,-4,o),
(298,-4,cs),
(321,-4,o),
(342,-3,o),
(370,1,c),
(363,79,l),
(343,77,o),
(325,76,o),
(311,76,cs),
(265,76,o),
(248,100,o),
(248,137,cs),
(248,640,l),
(61,640,l)
);
}
);
width = 448;
},
{
anchors = (
{
name = "#center";
pos = (193,351);
},
{
name = "#slash";
pos = (210,384);
},
{
name = bottom;
pos = (238,0);
},
{
name = top;
pos = (186,640);
}
);
layerId = "7DDCEF54-C770-4FAD-B154-EE8058BAA7E5";
shapes = (
{
closed = 1;
nodes = (
(87,599,l),
(162,596,l),
(162,115,ls),
(162,27,o),
(213,-4,o),
(276,-4,cs),
(298,-4,o),
(316,-2,o),
(337,2,c),
(333,43,l),
(315,41,o),
(295,39,o),
(281,39,cs),
(232,39,o),
(210,64,o),
(210,114,cs),
(210,640,l),
(87,640,l)
);
}
);
width = 448;
}
);
unicode = 108;
}
{
glyphname = o;
kernLeft = o;
kernRight = o;
layers = (
{
anchors = (
{
name = "#center";
pos = (224,224);
},
{
name = bottom;
pos = (224,0);
},
{
name = bottomAttach;
pos = (292,0);
},
{
name = top;
pos = (224,448);
},
{
name = topright;
pos = (296,448);
}
);
hints = (
{
horizontal = 1;
options = 4;
origin = (0,5);
target = (1,5);
type = TTStem;
},
{
horizontal = 1;
options = 4;
origin = (0,11);
target = (1,11);
type = TTStem;
},
{
options = 8;
origin = (0,2);
type = TTSnap;
},
{
options = 8;
origin = (0,8);
type = TTSnap;
},
{
options = 4;
origin = (0,8);
target = (1,2);
type = TTStem;
},
{
options = 4;
origin = (0,2);
target = (1,8);
type = TTStem;
}
);
layerId = "95FB0C11-C828-4064-8966-34220AA4D426";
shapes = (
{
closed = 1;
nodes = (
(353,-13,o),
(402,93,o),
(402,224,cs),
(402,355,o),
(356,461,o),
(224,461,cs),
(92,461,o),
(46,355,o),
(46,224,cs),
(46,93,o),
(92,-13,o),
(224,-13,cs)
);
},
{
closed = 1;
nodes = (
(152,51,o),
(122,95,o),
(122,224,cs),
(122,351,o),
(152,397,o),
(224,397,cs),
(296,397,o),
(326,351,o),
(326,224,cs),
(326,95,o),
(296,51,o),
(224,51,cs)
);
}
);
width = 448;
},
{
anchors = (
{
name = "#center";
pos = (224,224);
},
{
name = bottom;
pos = (224,0);
},
{
name = bottomAttach;
pos = (296,0);
},
{
name = top;
pos = (224,448);
},
{
name = topright;
pos = (296,448);
}
);
layerId = "92967D72-867E-4A8B-929F-F44D834DD4C9";
shapes = (
{
closed = 1;
nodes = (
(363,-13,o),
(414,93,o),
(414,224,cs),
(414,355,o),
(363,461,o),
(224,461,cs),
(85,461,o),
(34,355,o),
(34,224,cs),
(34,93,o),
(85,-13,o),
(224,-13,cs)
);
},
{
closed = 1;
nodes = (
(172,69,o),
(152,107,o),
(152,224,cs),
(152,339,o),
(172,379,o),
(224,379,cs),
(276,379,o),
(296,339,o),
(296,224,cs),
(296,107,o),
(276,69,o),
(224,69,cs)
);
}
);
width = 448;
},
{
anchors = (
{
name = "#center";
pos = (224,224);
},
{
name = bottom;
pos = (224,0);
},
{
name = bottomAttach;
pos = (290,0);
},
{
name = top;
pos = (224,448);
},
{
name = topright;
pos = (278,448);
}
);
layerId = "7DDCEF54-C770-4FAD-B154-EE8058BAA7E5";
shapes = (
{
closed = 1;
nodes = (
(347,-13,o),
(395,93,o),
(395,224,cs),
(395,355,o),
(352,461,o),
(224,461,cs),
(96,461,o),
(53,355,o),
(53,224,cs),
(53,93,o),
(96,-13,o),
(224,-13,cs)
);
},
{
closed = 1;
nodes = (
(144,29,o),
(104,80,o),
(104,224,cs),
(104,366,o),
(141,419,o),
(224,419,cs),
(307,419,o),
(344,366,o),
(344,224,cs),
(344,80,o),
(304,29,o),
(224,29,cs)
);
}
);
width = 448;
}
);
unicode = 111;
}
{
color = 7;
glyphname = p;
kernLeft = p;
kernRight = o;
layers = (
{
anchors = (
{
name = bottom;
pos = (244,0);
},
{
name = top;
pos = (224,448);
}
);
hints = (
{
options = 8;
origin = (0,6);
type = TTSnap;
},
{
options = 4;
origin = (0,6);
target = (0,0);
type = TTStem;
},
{
options = 4;
origin = (0,0);
target = (0,3);
type = TTShift;
},
{
horizontal = 1;
origin = (0,6);
type = TTSnap;
},
{
horizontal = 1;
origin = (0,4);
type = TTSnap;
}
);
layerId = "95FB0C11-C828-4064-8966-34220AA4D426";
shapes = (
{
closed = 1;
nodes = (
(132,-192,l),
(132,367,l),
(128,383,l),
(119,448,l),
(58,448,l),
(60,384,l),
(60,-192,l)
);
},
{
ref = _part.bowl.descender;
}
);
width = 448;
},
{
anchors = (
{
name = bottom;
pos = (264,0);
},
{
name = top;
pos = (224,448);
}
);
layerId = "92967D72-867E-4A8B-929F-F44D834DD4C9";
shapes = (
{
closed = 1;
nodes = (
(162,-192,l),
(162,356,l),
(152,356,l),
(136,448,l),
(48,448,l),
(50,383,l),
(50,-192,l)
);
},
{
ref = _part.bowl.descender;
}
);
width = 448;
},
{
anchors = (
{
name = bottom;
pos = (244,0);
},
{
name = top;
pos = (224,448);
}
);
layerId = "7DDCEF54-C770-4FAD-B154-EE8058BAA7E5";
shapes = (
{
closed = 1;
nodes = (
(114,-192,l),
(114,374,l),
(114,399,l),
(109,448,l),
(64,448,l),
(66,385,l),
(66,-192,l)
);
},
{
ref = _part.bowl.descender;
}
);
width = 448;
},
{
anchors = (
{
name = bottom;
pos = (244,96);
},
{
name = top;
pos = (224,448);
}
);
associatedMasterId = "95FB0C11-C828-4064-8966-34220AA4D426";
attr = {
coordinates = (
400,
-64,
0
);
};
layerId = "668ECF97-6F00-482E-97C7-1F7CE84CF7A5";
name = "{400, 0, -64}";
shapes = (
{
closed = 1;
nodes = (
(132,-64,l),
(132,367,l),
(128,383,l),
(119,448,l),
(58,448,l),
(60,384,l),
(60,-64,l)
);
},
{
ref = _part.bowl.descender;
}
);
width = 448;
}
);
unicode = 112;
}
{
glyphname = r;
layers = (
{
anchors = (
{
name = bottom;
pos = (139,0);
},
{
name = top;
pos = (224,448);
}
);
background = {
anchors = (
{
name = bottom;
pos = (139,0);
},
{
name = top;
pos = (224,448);
}
);
hints = (
{
horizontal = 1;
place = (0,0);
type = TTSnap;
},
{
horizontal = 1;
place = (0,0);
type = TTSnap;
},
{
horizontal = 1;
options = 4;
place = (0,384);
target = (1,2);
type = TTStem;
},
{
options = 8;
place = (0,0);
type = TTSnap;
},
{
options = 4;
place = (0,176);
target = (0,0);
type = TTStem;
},
{
options = 8;
place = (0,0);
type = TTSnap;
},
{
options = 4;
place = (0,176);
target = (0,2,1,12);
type = TTShift;
},
{
horizontal = 1;
options = 4;
other1 = (0,2,1,12);
place = (0,452);
target = (1,9);
type = TTInterpolate;
},
{
horizontal = 1;
options = 4;
other1 = (0,1,1,2);
place = (0,452);
target = (1,9);
type = TTInterpolate;
}
);
shapes = (
{
closed = 1;
nodes = (
(176,0,l),
(176,369,l),
(170,448,l),
(102,448,l),
(104,383,l),
(104,0,l)
);
},
{
closed = 1;
nodes = (
(191,354,o),
(244,384,o),
(305,384,cs),
(320,384,o),
(337,382,o),
(349,380,c),
(356,448,l),
(343,450,o),
(323,452,o),
(306,452,cs),
(216,452,o),
(169,385,o),
(133,275,c),
(163,256,l)
);
}
);
};
hints = (
{
horizontal = 1;
origin = (0,18);
type = TTSnap;
},
{
horizontal = 1;
origin = (0,16);
type = TTSnap;
},
{
horizontal = 1;
options = 4;
origin = (0,11);
target = (0,4);
type = TTStem;
},
{
options = 8;
origin = (0,18);
type = TTSnap;
},
{
options = 4;
origin = (0,18);
target = (0,0);
type = TTStem;
},
{
options = 8;
origin = (0,8);
type = TTSnap;
},
{
options = 4;
origin = (0,0);
target = (0,14);
type = TTShift;
},
{
horizontal = 1;
options = 4;
origin = (0,18);
other1 = (0,14);
target = (0,11);
type = TTInterpolate;
},
{
horizontal = 1;
options = 4;
origin = (0,18);
other1 = (0,1);
target = (0,11);
type = TTInterpolate;
}
);
layerId = "95FB0C11-C828-4064-8966-34220AA4D426";
shapes = (
{
closed = 1;
nodes = (
(176,0,l),
(176,293,l),
(206,362,o),
(252,384,o),
(305,384,cs),
(320,384,o),
(337,382,o),
(349,380,c),
(356,448,l),
(343,450,o),
(323,452,o),
(306,452,cs),
(247,452,o),
(207,424,o),
(176,373,c),
(170,448,l),
(102,448,l),
(104,383,l),
(104,0,l)
);
}
);
width = 448;
},
{
anchors = (
{
name = bottom;
pos = (151,0);
},
{
name = top;
pos = (224,448);
}
);
background = {
anchors = (
{
name = bottom;
pos = (151,0);
},
{
name = top;
pos = (224,448);
}
);
guides = (
{
angle = 45;
pos = (268,375);
}
);
shapes = (
{
closed = 1;
nodes = (
(207,0,l),
(207,349,l),
(191,448,l),
(93,448,l),
(95,383,l),
(95,0,l)
);
},
{
closed = 1;
nodes = (
(212,330,o),
(247,358,o),
(308,358,cs),
(330,358,o),
(350,355,o),
(368,352,c),
(386,444,l),
(369,448,o),
(344,452,o),
(323,452,cs),
(237,452,o),
(178,394,o),
(137,311,c),
(182,277,l)
);
}
);
};
guides = (
{
angle = 45;
pos = (268,375);
}
);
layerId = "92967D72-867E-4A8B-929F-F44D834DD4C9";
shapes = (
{
closed = 1;
nodes = (
(207,0,l),
(207,313,l),
(232,342,o),
(263,358,o),
(308,358,cs),
(330,358,o),
(350,355,o),
(368,352,c),
(386,444,l),
(369,448,o),
(344,452,o),
(323,452,cs),
(273,452,o),
(233,433,o),
(199,400,c),
(191,448,l),
(93,448,l),
(95,383,l),
(95,0,l)
);
}
);
width = 448;
},
{
anchors = (
{
name = bottom;
pos = (135,0);
},
{
name = top;
pos = (224,448);
}
);
background = {
anchors = (
{
name = bottom;
pos = (135,0);
},
{
name = top;
pos = (224,448);
}
);
guides = (
{
angle = 45;
pos = (225,399);
}
);
shapes = (
{
closed = 1;
nodes = (
(159,0,l),
(159,360,l),
(153,448,l),
(109,448,l),
(111,370,l),
(111,0,l)
);
},
{
closed = 1;
nodes = (
(183,360,o),
(210,406,o),
(279,406,cs),
(301,406,o),
(323,404,o),
(342,401,c),
(348,442,l),
(328,446,o),
(304,450,o),
(276,450,cs),
(213,450,o),
(169,416,o),
(131,310,c),
(153,300,l)
);
}
);
};
guides = (
{
angle = 45;
pos = (225,399);
}
);
layerId = "7DDCEF54-C770-4FAD-B154-EE8058BAA7E5";
shapes = (
{
closed = 1;
nodes = (
(159,0,l),
(159,312,l),
(186,365,o),
(215,406,o),
(279,406,cs),
(301,406,o),
(323,404,o),
(342,401,c),
(348,442,l),
(328,446,o),
(304,450,o),
(276,450,cs),
(227,450,o),
(190,430,o),
(158,372,c),
(153,448,l),
(109,448,l),
(111,370,l),
(111,0,l)
);
}
);
width = 448;
}
);
unicode = 114;
}
{
glyphname = s;
layers = (
{
anchors = (
{
name = bottom;
pos = (224,0);
},
{
name = top;
pos = (224,448);
},
{
name = topright;
pos = (448,448);
}
);
hints = (
{
horizontal = 1;
options = 4;
origin = (0,15);
target = (0,8);
type = TTStem;
},
{
horizontal = 1;
options = 4;
origin = (0,31);
target = (0,24);
type = TTStem;
},
{
horizontal = 1;
options = 4;
origin = (0,8);
other1 = (0,21,0);
target = (0,31);
type = TTInterpolate;
},
{
horizontal = 1;
options = 4;
origin = (0,15);
other1 = (0,5,0);
target = (0,24);
type = TTInterpolate;
},
{
options = 8;
origin = (0,18);
type = TTSnap;
},
{
options = 8;
origin = (0,2);
type = TTSnap;
},
{
options = 4;
origin = (0,2);
target = (0,21);
type = TTStem;
},
{
options = 4;
origin = (0,18);
target = (0,5);
type = TTStem;
},
{
origin = (0,2);
target = (0,12);
type = TTShift;
},
{
origin = (0,18);
target = (0,28);
type = TTShift;
}
);
layerId = "95FB0C11-C828-4064-8966-34220AA4D426";
shapes = (
{
closed = 1;
nodes = (
(305,-8,o),
(381,33,o),
(381,120,cs),
(381,280,o),
(143,235,o),
(143,334,cs),
(143,364,o),
(162,392,o),
(242,392,cs),
(267,392,o),
(309,389,o),
(351,378,c),
(364,439,l),
(320,451,o),
(275,456,o),
(238,456,cs),
(132,456,o),
(69,404,o),
(69,330,cs),
(69,170,o),
(307,207,o),
(307,112,cs),
(307,81,o),
(285,56,o),
(209,56,cs),
(162,56,o),
(113,66,o),
(76,77,c),
(60,18,l),
(103,3,o),
(156,-8,o),
(212,-8,cs)
);
}
);
width = 448;
},
{
anchors = (
{
name = bottom;
pos = (224,0);
},
{
name = top;
pos = (224,448);
},
{
name = topright;
pos = (448,448);
}
);
layerId = "92967D72-867E-4A8B-929F-F44D834DD4C9";
shapes = (
{
closed = 1;
nodes = (
(311,-8,o),
(391,31,o),
(391,134,cs),
(391,307,o),
(167,247,o),
(167,330,cs),
(167,353,o),
(188,374,o),
(244,374,cs),
(283,374,o),
(324,366,o),
(357,357,c),
(374,434,l),
(327,449,o),
(279,456,o),
(237,456,cs),
(127,456,o),
(59,407,o),
(59,314,cs),
(59,148,o),
(283,199,o),
(283,118,cs),
(283,97,o),
(269,74,o),
(200,74,cs),
(152,74,o),
(107,84,o),
(73,95,c),
(53,25,l),
(97,5,o),
(155,-8,o),
(211,-8,cs)
);
}
);
width = 448;
},
{
anchors = (
{
name = bottom;
pos = (224,0);
},
{
name = top;
pos = (224,448);
},
{
name = topright;
pos = (448,448);
}
);
layerId = "7DDCEF54-C770-4FAD-B154-EE8058BAA7E5";
shapes = (
{
closed = 1;
nodes = (
(296,-8,o),
(367,35,o),
(367,114,cs),
(367,265,o),
(131,225,o),
(131,339,cs),
(131,375,o),
(153,412,o),
(238,412,cs),
(268,412,o),
(303,409,o),
(342,401,c),
(350,442,l),
(311,452,o),
(271,456,o),
(239,456,cs),
(131,456,o),
(83,400,o),
(83,337,cs),
(83,191,o),
(319,217,o),
(319,112,cs),
(319,72,o),
(289,36,o),
(211,36,cs),
(171,36,o),
(120,44,o),
(81,53,c),
(72,14,l),
(113,1,o),
(160,-8,o),
(211,-8,cs)
);
}
);
width = 448;
}
);
unicode = 115;
}
{
glyphname = t;
layers = (
{
anchors = (
{
name = "#center";
pos = (192,219);
},
{
name = bottom;
pos = (224,0);
},
{
name = top;
pos = (186,576);
},
{
name = top_comma;
pos = (186,448);
},
{
name = topright;
pos = (156,576);
}
);
hints = (
{
horizontal = 1;
options = 4;
origin = (0,21);
target = (0,18);
type = TTStem;
},
{
horizontal = 1;
options = 4;
origin = (0,21);
target = (0,0);
type = TTShift;
},
{
horizontal = 1;
options = 4;
origin = (0,18);
target = (0,3);
type = TTShift;
},
{
horizontal = 1;
origin = (0,22);
type = TTSnap;
},
{
options = 4;
origin = (0,3);
target = (0,18);
type = TTStem;
},
{
options = 4;
origin = (0,3);
target = (0,0);
type = TTShift;
},
{
options = 4;
origin = (0,18);
target = (0,21);
type = TTShift;
},
{
horizontal = 1;
options = 4;
origin = (0,7);
target = (0,14);
type = TTStem;
},
{
options = 8;
origin = (0,19);
type = TTSnap;
},
{
options = 4;
origin = (0,19);
target = (0,10);
type = TTShift;
},
{
origin = (0,3);
stem = -1;
target = (0,2);
type = TTStem;
},
{
options = 8;
origin = (0,3);
type = TTSnap;
}
);
layerId = "95FB0C11-C828-4064-8966-34220AA4D426";
shapes = (
{
closed = 1;
nodes = (
(114,448,l),
(39,448,l),
(39,387,l),
(114,383,l),
(114,139,ls),
(114,35,o),
(166,-8,o),
(255,-8,cs),
(284,-8,o),
(320,-5,o),
(358,2,c),
(349,65,l),
(314,59,o),
(286,57,o),
(259,57,cs),
(201,57,o),
(186,94,o),
(186,133,cs),
(186,384,l),
(344,384,l),
(344,448,l),
(186,448,l),
(186,576,l),
(114,576,l)
);
}
);
width = 448;
},
{
anchors = (
{
name = "#center";
pos = (192,219);
},
{
name = bottom;
pos = (224,0);
},
{
name = top;
pos = (186,576);
},
{
name = top_comma;
pos = (212,448);
},
{
name = topright;
pos = (156,576);
}
);
layerId = "92967D72-867E-4A8B-929F-F44D834DD4C9";
shapes = (
{
closed = 1;
nodes = (
(100,448,l),
(25,448,l),
(25,370,l),
(100,367,l),
(100,142,ls),
(100,35,o),
(168,-8,o),
(258,-8,cs),
(298,-8,o),
(335,-4,o),
(377,4,c),
(366,79,l),
(334,74,o),
(309,72,o),
(284,72,cs),
(227,72,o),
(212,103,o),
(212,140,cs),
(212,368,l),
(356,368,l),
(356,448,l),
(212,448,l),
(212,576,l),
(100,576,l)
);
}
);
width = 448;
},
{
anchors = (
{
name = "#center";
pos = (192,219);
},
{
name = bottom;
pos = (224,0);
},
{
name = top;
pos = (186,576);
},
{
name = top_comma;
pos = (170,448);
},
{
name = topright;
pos = (128,576);
}
);
layerId = "7DDCEF54-C770-4FAD-B154-EE8058BAA7E5";
shapes = (
{
closed = 1;
nodes = (
(122,448,l),
(47,448,l),
(47,408,l),
(122,403,l),
(122,132,ls),
(122,35,o),
(165,-8,o),
(253,-8,cs),
(286,-8,o),
(323,-3,o),
(359,5,c),
(352,46,l),
(318,40,o),
(283,36,o),
(259,36,cs),
(194,36,o),
(170,63,o),
(170,129,cs),
(170,404,l),
(337,404,l),
(337,448,l),
(170,448,l),
(170,576,l),
(122,576,l)
);
}
);
width = 448;
}
);
unicode = 116;
}
{
glyphname = u;
kernLeft = u;
kernRight = u;
layers = (
{
anchors = (
{
name = bottom;
pos = (224,0);
},
{
name = bottomAttach;
pos = (390,0);
},
{
name = top;
pos = (224,448);
},
{
name = topright;
pos = (320,448);
}
);
background = {
anchors = (
{
name = bottom;
pos = (224,0);
},
{
name = bottomAttach;
pos = (390,0);
},
{
name = top;
pos = (224,448);
},
{
name = topright;
pos = (320,448);
}
);
hints = (
{
horizontal = 1;
options = 4;
place = (0,448);
target = (1,3);
type = TTShift;
},
{
horizontal = 1;
options = 4;
place = (0,60);
target = (0,6);
type = TTStem;
},
{
horizontal = 1;
place = (0,0);
type = TTSnap;
},
{
options = 4;
place = (0,132);
target = (0,9);
type = TTStem;
},
{
options = 4;
place = (0,318);
target = (1,5);
type = TTShift;
},
{
options = 8;
place = (0,0);
type = TTSnap;
},
{
options = 8;
place = (0,0);
type = TTSnap;
},
{
options = 4;
place = (0,316);
target = (1,3);
type = TTStem;
}
);
shapes = (
{
closed = 1;
nodes = (
(262,-4,o),
(322,50,o),
(363,106,c),
(331,134,l),
(296,94,o),
(250,60,o),
(203,60,cs),
(156,60,o),
(132,90,o),
(132,147,cs),
(132,448,l),
(60,448,l),
(60,145,ls),
(60,39,o),
(116,-4,o),
(189,-4,cs)
);
},
{
closed = 1;
nodes = (
(390,0,l),
(388,64,l),
(388,448,l),
(316,448,l),
(316,64,l),
(318,64,l),
(324,0,l)
);
}
);
};
hints = (
{
horizontal = 1;
options = 4;
origin = (0,15);
target = (0,7);
type = TTShift;
},
{
horizontal = 1;
options = 4;
origin = (0,20);
target = (0,11);
type = TTStem;
},
{
horizontal = 1;
origin = (0,3);
type = TTSnap;
},
{
options = 4;
origin = (0,17);
target = (0,14);
type = TTStem;
},
{
options = 4;
origin = (0,7);
target = (0,2);
type = TTShift;
},
{
options = 8;
origin = (0,17);
type = TTSnap;
},
{
options = 8;
origin = (0,6);
type = TTSnap;
},
{
options = 4;
origin = (0,6);
target = (0,7);
type = TTStem;
}
);
layerId = "95FB0C11-C828-4064-8966-34220AA4D426";
shapes = (
{
closed = 1;
nodes = (
(239,-4,o),
(283,21,o),
(319,55,c),
(324,0,l),
(390,0,l),
(388,64,l),
(388,448,l),
(316,448,l),
(316,118,l),
(284,86,o),
(244,60,o),
(203,60,cs),
(156,60,o),
(132,90,o),
(132,147,cs),
(132,448,l),
(60,448,l),
(60,145,ls),
(60,39,o),
(116,-4,o),
(189,-4,cs)
);
}
);
width = 448;
},
{
anchors = (
{
name = bottom;
pos = (224,0);
},
{
name = bottomAttach;
pos = (400,0);
},
{
name = top;
pos = (224,448);
},
{
name = topright;
pos = (320,448);
}
);
background = {
anchors = (
{
name = bottom;
pos = (224,0);
},
{
name = bottomAttach;
pos = (400,0);
},
{
name = top;
pos = (224,448);
},
{
name = topright;
pos = (320,448);
}
);
shapes = (
{
closed = 1;
nodes = (
(256,-4,o),
(314,52,o),
(368,114,c),
(324,156,l),
(291,112,o),
(248,80,o),
(214,80,cs),
(178,80,o),
(162,101,o),
(162,142,cs),
(162,448,l),
(50,448,l),
(50,134,ls),
(50,38,o),
(100,-4,o),
(176,-4,cs)
);
},
{
closed = 1;
nodes = (
(400,0,l),
(398,64,l),
(398,448,l),
(286,448,l),
(286,64,l),
(291,64,l),
(299,0,l)
);
}
);
};
layerId = "92967D72-867E-4A8B-929F-F44D834DD4C9";
shapes = (
{
closed = 1;
nodes = (
(221,-4,o),
(259,14,o),
(294,41,c),
(299,0,l),
(400,0,l),
(398,64,l),
(398,448,l),
(286,448,l),
(286,115,l),
(262,94,o),
(236,80,o),
(214,80,cs),
(178,80,o),
(162,101,o),
(162,142,cs),
(162,448,l),
(50,448,l),
(50,134,ls),
(50,38,o),
(100,-4,o),
(176,-4,cs)
);
}
);
width = 448;
},
{
anchors = (
{
name = bottom;
pos = (224,0);
},
{
name = bottomAttach;
pos = (384,0);
},
{
name = top;
pos = (224,448);
},
{
name = topright;
pos = (320,448);
}
);
background = {
anchors = (
{
name = bottom;
pos = (224,0);
},
{
name = bottomAttach;
pos = (384,0);
},
{
name = top;
pos = (224,448);
},
{
name = topright;
pos = (320,448);
}
);
shapes = (
{
closed = 1;
nodes = (
(260,-4,o),
(328,54,o),
(365,103,c),
(345,120,l),
(298,75,o),
(251,40,o),
(196,40,cs),
(137,40,o),
(114,69,o),
(114,143,cs),
(114,448,l),
(66,448,l),
(66,139,ls),
(66,26,o),
(125,-4,o),
(187,-4,cs)
);
},
{
closed = 1;
nodes = (
(384,0,l),
(382,78,l),
(382,448,l),
(334,448,l),
(334,78,l),
(335,78,l),
(340,0,l)
);
}
);
};
layerId = "7DDCEF54-C770-4FAD-B154-EE8058BAA7E5";
shapes = (
{
closed = 1;
nodes = (
(244,-4,o),
(298,31,o),
(336,69,c),
(340,0,l),
(384,0,l),
(382,78,l),
(382,448,l),
(334,448,l),
(334,110,l),
(291,70,o),
(247,40,o),
(196,40,cs),
(137,40,o),
(114,69,o),
(114,143,cs),
(114,448,l),
(66,448,l),
(66,139,ls),
(66,26,o),
(125,-4,o),
(187,-4,cs)
);
}
);
width = 448;
}
);
unicode = 117;
}
{
glyphname = v;
kernLeft = v;
kernRight = v;
layers = (
{
anchors = (
{
name = bottom;
pos = (224,0);
},
{
name = top;
pos = (224,448);
}
);
background = {
anchors = (
{
name = bottom;
pos = (224,0);
},
{
name = top;
pos = (224,448);
}
);
hints = (
{
horizontal = 1;
place = (0,0);
type = TTSnap;
},
{
horizontal = 1;
options = 4;
other1 = (0,3,0,15);
place = (0,448);
target = (0,3);
type = TTInterpolate;
},
{
options = 4;
place = (0,117);
target = (0,3);
type = TTStem;
},
{
options = 4;
place = (0,331);
target = (0,12);
type = TTStem;
},
{
horizontal = 1;
options = 4;
place = (0,448);
target = (0,12);
type = TTShift;
},
{
options = 8;
place = (0,0);
type = TTSnap;
},
{
options = 8;
place = (0,0);
type = TTSnap;
},
{
options = 4;
other1 = (0,7);
place = (0,331);
target = (0,12);
type = TTInterpolate;
},
{
options = 4;
other1 = (0,8);
place = (0,406);
target = (0,11);
type = TTInterpolate;
}
);
shapes = (
{
closed = 1;
nodes = (
(237,64,l),
(171,173,o),
(134,260,o),
(117,448,c),
(42,448,l),
(59,250,o),
(116,121,o),
(199,-2,c),
(249,-2,l),
(332,121,o),
(389,250,o),
(406,448,c),
(331,448,l),
(314,260,o),
(277,173,o),
(211,64,c)
);
}
);
};
hints = (
{
horizontal = 1;
origin = (0,2);
type = TTSnap;
},
{
horizontal = 1;
options = 4;
origin = (0,2);
other1 = (0,10);
target = (0,13);
type = TTInterpolate;
},
{
options = 4;
origin = (0,14);
target = (0,13);
type = TTStem;
},
{
options = 4;
origin = (0,6);
target = (0,7);
type = TTStem;
},
{
horizontal = 1;
options = 4;
origin = (0,13);
target = (0,7);
type = TTShift;
},
{
options = 8;
origin = (0,14);
type = TTSnap;
},
{
options = 8;
origin = (0,6);
type = TTSnap;
},
{
options = 4;
origin = (0,14);
other1 = (0,2);
target = (0,7);
type = TTInterpolate;
},
{
options = 4;
origin = (0,13);
other1 = (0,3);
target = (0,6);
type = TTInterpolate;
}
);
layerId = "95FB0C11-C828-4064-8966-34220AA4D426";
shapes = (
{
closed = 1;
nodes = (
(59,250,o),
(116,121,o),
(199,-2,c),
(249,-2,l),
(332,121,o),
(389,250,o),
(406,448,c),
(331,448,l),
(315,272,o),
(282,186,o),
(224,86,c),
(166,186,o),
(133,272,o),
(117,448,c),
(42,448,l)
);
}
);
width = 448;
},
{
anchors = (
{
name = bottom;
pos = (224,0);
},
{
name = top;
pos = (224,448);
}
);
background = {
anchors = (
{
name = bottom;
pos = (224,0);
},
{
name = top;
pos = (224,448);
}
);
shapes = (
{
closed = 1;
nodes = (
(236,64,l),
(182,173,o),
(151,260,o),
(137,448,c),
(22,448,l),
(39,250,o),
(96,121,o),
(179,-2,c),
(269,-2,l),
(352,121,o),
(409,250,o),
(426,448,c),
(311,448,l),
(297,260,o),
(266,173,o),
(212,64,c)
);
}
);
};
layerId = "92967D72-867E-4A8B-929F-F44D834DD4C9";
shapes = (
{
closed = 1;
nodes = (
(39,250,o),
(96,121,o),
(179,-2,c),
(269,-2,l),
(352,121,o),
(409,250,o),
(426,448,c),
(311,448,l),
(298,274,o),
(271,188,o),
(224,89,c),
(177,188,o),
(150,274,o),
(137,448,c),
(22,448,l)
);
}
);
width = 448;
},
{
anchors = (
{
name = bottom;
pos = (224,0);
},
{
name = top;
pos = (224,448);
}
);
background = {
anchors = (
{
name = bottom;
pos = (224,0);
},
{
name = top;
pos = (224,448);
}
);
shapes = (
{
closed = 1;
nodes = (
(238,42,l),
(162,165,o),
(124,257,o),
(105,448,c),
(54,448,l),
(71,250,o),
(129,121,o),
(213,-2,c),
(235,-2,l),
(319,121,o),
(377,250,o),
(394,448,c),
(343,448,l),
(324,257,o),
(286,165,o),
(210,42,c)
);
}
);
};
layerId = "7DDCEF54-C770-4FAD-B154-EE8058BAA7E5";
shapes = (
{
closed = 1;
nodes = (
(71,250,o),
(129,121,o),
(213,-2,c),
(235,-2,l),
(319,121,o),
(377,250,o),
(394,448,c),
(343,448,l),
(325,268,o),
(290,176,o),
(224,65,c),
(158,176,o),
(123,268,o),
(105,448,c),
(54,448,l)
);
}
);
width = 448;
}
);
unicode = 118;
}
{
glyphname = braceright;
kernLeft = parenright;
layers = (
{
hints = (
{
horizontal = 1;
options = 4;
origin = (0,18);
stem = 0;
target = (0,19);
type = TTStem;
},
{
horizontal = 1;
options = 4;
origin = (0,38);
stem = 0;
target = (0,37);
type = TTStem;
},
{
options = 8;
origin = (0,2);
type = TTSnap;
},
{
options = 4;
origin = (0,2);
target = (0,34);
type = TTStem;
},
{
options = 4;
origin = (0,2);
target = (0,15);
type = TTShift;
},
{
options = 4;
origin = (0,34);
target = (0,22);
type = TTShift;
},
{
horizontal = 1;
origin = (0,18);
type = TTSnap;
},
{
horizontal = 1;
origin = (0,38);
type = TTSnap;
},
{
origin = (0,2);
target = (0,37);
type = TTShift;
},
{
options = 4;
origin = (0,37);
target = (0,19);
type = TTShift;
},
{
origin = (0,2);
target = (0,8);
type = TTShift;
},
{
options = 4;
origin = (0,34);
other1 = (0,28);
target = (0,8);
type = TTInterpolate;
},
{
horizontal = 1;
options = 4;
origin = (0,19);
other1 = (0,8);
target = (0,38);
type = TTInterpolate;
},
{
horizontal = 1;
options = 4;
origin = (0,18);
other1 = (0,9);
target = (0,37);
type = TTInterpolate;
},
{
horizontal = 1;
options = 4;
origin = (0,8);
other1 = (0,28);
target = (0,9);
type = TTInterpolate;
}
);
layerId = "95FB0C11-C828-4064-8966-34220AA4D426";
shapes = (
{
closed = 1;
nodes = (
(220,-51,o),
(296,-25,o),
(296,74,cs),
(296,112,o),
(284,146,o),
(284,192,cs),
(284,240,o),
(309,267,o),
(364,276,c),
(364,364,l),
(309,373,o),
(284,400,o),
(284,448,cs),
(284,494,o),
(296,528,o),
(296,566,cs),
(296,665,o),
(220,691,o),
(117,704,c),
(107,647,l),
(195,631,o),
(228,616,o),
(228,566,cs),
(228,530,o),
(216,496,o),
(216,448,cs),
(216,368,o),
(252,339,o),
(314,320,c),
(252,301,o),
(216,272,o),
(216,192,cs),
(216,144,o),
(228,110,o),
(228,74,cs),
(228,24,o),
(195,9,o),
(107,-7,c),
(117,-64,l)
);
}
);
width = 448;
},
{
layerId = "92967D72-867E-4A8B-929F-F44D834DD4C9";
shapes = (
{
closed = 1;
nodes = (
(213,-51,o),
(306,-26,o),
(306,70,cs),
(306,107,o),
(294,140,o),
(294,185,cs),
(294,232,o),
(319,258,o),
(374,267,c),
(374,373,l),
(319,382,o),
(294,408,o),
(294,455,cs),
(294,500,o),
(306,533,o),
(306,570,cs),
(306,666,o),
(213,691,o),
(87,704,c),
(77,631,l),
(165,615,o),
(198,601,o),
(198,552,cs),
(198,517,o),
(186,484,o),
(186,437,cs),
(186,370,o),
(221,339,o),
(282,320,c),
(221,301,o),
(186,270,o),
(186,203,cs),
(186,156,o),
(198,123,o),
(198,88,cs),
(198,39,o),
(165,25,o),
(77,9,c),
(87,-64,l)
);
}
);
width = 448;
},
{
layerId = "7DDCEF54-C770-4FAD-B154-EE8058BAA7E5";
shapes = (
{
closed = 1;
nodes = (
(224,-52,o),
(290,-26,o),
(290,70,cs),
(290,111,o),
(278,148,o),
(278,196,cs),
(278,253,o),
(303,285,o),
(358,295,c),
(358,345,l),
(303,355,o),
(278,387,o),
(278,444,cs),
(278,492,o),
(290,529,o),
(290,570,cs),
(290,666,o),
(224,692,o),
(135,704,c),
(128,667,l),
(214,651,o),
(246,631,o),
(246,574,cs),
(246,536,o),
(234,499,o),
(234,448,cs),
(234,368,o),
(264,339,o),
(317,320,c),
(264,301,o),
(234,272,o),
(234,192,cs),
(234,141,o),
(246,104,o),
(246,66,cs),
(246,9,o),
(214,-11,o),
(128,-27,c),
(135,-64,l)
);
}
);
width = 448;
}
);
unicode = 125;
}
{
glyphname = cent;
layers = (
{
background = {
hints = (
{
horizontal = 1;
place = (0,0);
type = TTSnap;
},
{
horizontal = 1;
place = (0,0);
type = TTSnap;
},
{
horizontal = 1;
options = 4;
place = (0,455);
target = (0,22);
type = TTStem;
},
{
horizontal = 1;
options = 4;
place = (0,121);
target = (0,16);
type = TTStem;
},
{
options = 4;
place = (0,126);
target = (0,19);
type = TTStem;
},
{
options = 8;
place = (0,0);
type = TTSnap;
},
{
place = (0,358);
target = (0,0);
type = TTShift;
},
{
options = 8;
place = (0,0);
type = TTSnap;
},
{
horizontal = 1;
options = 4;
place = (0,515);
target = (0,6,1,3);
type = TTShift;
},
{
horizontal = 1;
options = 4;
place = (0,61);
target = (0,9,2,1);
type = TTShift;
}
);
shapes = (
{
closed = 1;
nodes = (
(358,500,l),
(317,514,o),
(276,519,o),
(238,519,cs),
(94,519,o),
(50,416,o),
(50,288,cs),
(50,160,o),
(94,57,o),
(238,57,cs),
(276,57,o),
(317,62,o),
(358,76,c),
(345,136,l),
(309,126,o),
(278,121,o),
(242,121,cs),
(155,121,o),
(126,163,o),
(126,288,cs),
(126,413,o),
(155,455,o),
(242,455,cs),
(278,455,o),
(309,450,o),
(345,440,c)
);
},
{
closed = 1;
nodes = (
(256,481,l),
(256,640,l),
(192,640,l),
(192,481,l)
);
},
{
closed = 1;
nodes = (
(192,96,l),
(192,-64,l),
(256,-64,l),
(256,96,l)
);
}
);
};
hints = (
{
horizontal = 1;
origin = (0,13);
type = TTSnap;
},
{
horizontal = 1;
origin = (0,4);
type = TTSnap;
},
{
horizontal = 1;
options = 4;
origin = (0,3);
target = (0,28);
type = TTStem;
},
{
horizontal = 1;
options = 4;
origin = (0,15);
target = (0,22);
type = TTStem;
},
{
options = 4;
origin = (0,9);
target = (0,25);
type = TTStem;
},
{
options = 8;
origin = (0,18);
type = TTSnap;
},
{
origin = (0,18);
target = (0,0);
type = TTShift;
},
{
options = 8;
origin = (0,9);
type = TTSnap;
},
{
horizontal = 1;
options = 4;
origin = (0,3);
target = (0,6);
type = TTShift;
},
{
horizontal = 1;
options = 4;
origin = (0,15);
target = (0,12);
type = TTShift;
}
);
layerId = "95FB0C11-C828-4064-8966-34220AA4D426";
shapes = (
{
closed = 1;
nodes = (
(358,500,l),
(323,512,o),
(290,517,o),
(256,519,c),
(256,640,l),
(192,640,l),
(192,515,l),
(85,495,o),
(50,401,o),
(50,288,cs),
(50,175,o),
(85,81,o),
(192,61,c),
(192,-64,l),
(256,-64,l),
(256,57,l),
(290,59,o),
(323,64,o),
(358,76,c),
(345,136,l),
(309,126,o),
(278,121,o),
(242,121,cs),
(155,121,o),
(126,163,o),
(126,288,cs),
(126,413,o),
(155,455,o),
(242,455,cs),
(278,455,o),
(309,450,o),
(345,440,c)
);
}
);
width = 448;
},
{
background = {
shapes = (
{
closed = 1;
nodes = (
(378,495,l),
(334,513,o),
(290,519,o),
(249,519,cs),
(93,519,o),
(50,416,o),
(50,288,cs),
(50,160,o),
(93,57,o),
(249,57,cs),
(290,57,o),
(334,63,o),
(378,81,c),
(361,155,l),
(332,147,o),
(301,141,o),
(271,141,cs),
(192,141,o),
(166,178,o),
(166,288,cs),
(166,398,o),
(192,435,o),
(271,435,cs),
(304,435,o),
(337,429,o),
(361,421,c)
);
},
{
closed = 1;
nodes = (
(276,481,l),
(276,640,l),
(172,640,l),
(172,481,l)
);
},
{
closed = 1;
nodes = (
(172,96,l),
(172,-64,l),
(276,-64,l),
(276,96,l)
);
}
);
};
layerId = "92967D72-867E-4A8B-929F-F44D834DD4C9";
shapes = (
{
closed = 1;
nodes = (
(378,495,l),
(344,509,o),
(308,516,o),
(276,518,c),
(276,640,l),
(172,640,l),
(172,508,l),
(79,479,o),
(50,392,o),
(50,288,cs),
(50,184,o),
(79,97,o),
(172,68,c),
(172,-64,l),
(276,-64,l),
(276,58,l),
(308,60,o),
(344,67,o),
(378,81,c),
(361,155,l),
(332,147,o),
(301,141,o),
(271,141,cs),
(192,141,o),
(166,178,o),
(166,288,cs),
(166,398,o),
(192,435,o),
(271,435,cs),
(304,435,o),
(337,429,o),
(361,421,c)
);
}
);
width = 448;
},
{
background = {
shapes = (
{
closed = 1;
nodes = (
(349,501,l),
(313,513,o),
(268,519,o),
(229,519,cs),
(95,519,o),
(50,416,o),
(50,288,cs),
(50,160,o),
(95,57,o),
(228,57,cs),
(270,57,o),
(310,65,o),
(349,77,c),
(340,117,l),
(300,105,o),
(264,100,o),
(234,100,cs),
(140,100,o),
(102,163,o),
(102,288,cs),
(102,412,o),
(134,477,o),
(233,477,cs),
(264,477,o),
(297,473,o),
(340,461,c)
);
},
{
closed = 1;
nodes = (
(248,497,l),
(248,640,l),
(200,640,l),
(200,497,l)
);
},
{
closed = 1;
nodes = (
(200,80,l),
(200,-64,l),
(248,-64,l),
(248,80,l)
);
}
);
};
layerId = "7DDCEF54-C770-4FAD-B154-EE8058BAA7E5";
shapes = (
{
closed = 1;
nodes = (
(349,501,l),
(319,511,o),
(283,517,o),
(248,519,c),
(248,640,l),
(200,640,l),
(200,517,l),
(89,503,o),
(50,406,o),
(50,288,cs),
(50,169,o),
(89,72,o),
(200,59,c),
(200,-64,l),
(248,-64,l),
(248,58,l),
(282,60,o),
(316,67,o),
(349,77,c),
(340,117,l),
(300,105,o),
(264,100,o),
(234,100,cs),
(140,100,o),
(102,163,o),
(102,288,cs),
(102,412,o),
(134,477,o),
(233,477,cs),
(264,477,o),
(297,473,o),
(340,461,c)
);
}
);
width = 448;
}
);
unicode = 162;
}
{
glyphname = section;
layers = (
{
background = {
hints = (
{
horizontal = 1;
place = (0,0);
type = TTSnap;
},
{
horizontal = 1;
options = 4;
place = (0,-68);
target = (3,13);
type = TTStem;
},
{
horizontal = 1;
place = (0,0);
type = TTSnap;
},
{
horizontal = 1;
options = 4;
place = (0,516);
target = (2,6);
type = TTStem;
},
{
horizontal = 1;
other1 = (1,3);
place = (0,516);
target = (2,6);
type = TTInterpolate;
},
{
horizontal = 1;
other1 = (1,9);
place = (0,580);
target = (2,13);
type = TTInterpolate;
},
{
horizontal = 1;
options = 4;
place = (0,320);
target = (0,3);
type = TTStem;
},
{
horizontal = 1;
options = 4;
place = (0,192);
target = (0,9);
type = TTStem;
}
);
shapes = (
{
closed = 1;
nodes = (
(133,256,cs),
(133,299,o),
(159,320,o),
(224,320,cs),
(299,320,o),
(315,299,o),
(315,256,cs),
(315,213,o),
(289,192,o),
(224,192,cs),
(159,192,o),
(133,213,o)
);
},
{
closed = 1;
nodes = (
(60,256,cs),
(60,185,o),
(120,128,o),
(224,128,cs),
(328,128,o),
(388,185,o),
(388,256,cs),
(388,337,o),
(328,384,o),
(224,384,cs),
(120,384,o),
(60,327,o)
);
},
{
closed = 1;
nodes = (
(199,357,l),
(187,387,o),
(182,417,o),
(182,441,cs),
(182,480,o),
(196,516,o),
(266,516,cs),
(296,516,o),
(326,512,o),
(357,506,c),
(368,567,l),
(332,576,o),
(292,580,o),
(260,580,cs),
(165,580,o),
(112,530,o),
(112,446,cs),
(112,414,o),
(123,371,o),
(140,338,c)
);
},
{
closed = 1;
nodes = (
(249,155,l),
(261,125,o),
(266,95,o),
(266,71,cs),
(266,32,o),
(252,-4,o),
(182,-4,cs),
(152,-4,o),
(122,0,o),
(91,6,c),
(80,-55,l),
(116,-64,o),
(156,-68,o),
(188,-68,cs),
(283,-68,o),
(336,-18,o),
(336,66,cs),
(336,98,o),
(325,141,o),
(308,174,c)
);
}
);
};
hints = (
{
horizontal = 1;
origin = (1,43);
type = TTSnap;
},
{
horizontal = 1;
options = 4;
origin = (1,36);
target = (1,43);
type = TTStem;
},
{
horizontal = 1;
origin = (1,15);
type = TTSnap;
},
{
horizontal = 1;
options = 4;
origin = (1,15);
target = (1,8);
type = TTStem;
},
{
horizontal = 1;
origin = (1,43);
other1 = (1,27);
target = (1,8);
type = TTInterpolate;
},
{
horizontal = 1;
origin = (1,36);
other1 = (1,55);
target = (1,15);
type = TTInterpolate;
},
{
horizontal = 1;
options = 4;
origin = (1,55);
target = (0,5);
type = TTStem;
},
{
horizontal = 1;
options = 4;
origin = (1,27);
target = (0,11);
type = TTStem;
}
);
layerId = "95FB0C11-C828-4064-8966-34220AA4D426";
shapes = (
{
closed = 1;
nodes = (
(159,192,o),
(133,213,o),
(133,256,cs),
(133,299,o),
(159,320,o),
(224,320,cs),
(299,320,o),
(315,299,o),
(315,256,cs),
(315,213,o),
(289,192,o),
(224,192,cs)
);
},
{
closed = 1;
nodes = (
(212,384,o),
(200,383,o),
(191,382,c),
(185,403,o),
(182,424,o),
(182,441,cs),
(182,480,o),
(196,516,o),
(266,516,cs),
(296,516,o),
(326,512,o),
(357,506,c),
(368,567,l),
(332,576,o),
(292,580,o),
(260,580,cs),
(165,580,o),
(112,530,o),
(112,446,cs),
(112,422,o),
(118,392,o),
(129,363,c),
(84,340,o),
(60,301,o),
(60,256,cs),
(60,185,o),
(120,128,o),
(224,128,cs),
(236,128,o),
(248,129,o),
(257,130,c),
(263,109,o),
(266,88,o),
(266,71,cs),
(266,32,o),
(252,-4,o),
(182,-4,cs),
(152,-4,o),
(122,0,o),
(91,6,c),
(80,-55,l),
(116,-64,o),
(156,-68,o),
(188,-68,cs),
(283,-68,o),
(336,-18,o),
(336,66,cs),
(336,90,o),
(330,120,o),
(319,149,c),
(364,172,o),
(388,211,o),
(388,256,cs),
(388,337,o),
(328,384,o),
(224,384,cs)
);
}
);
width = 448;
},
{
background = {
shapes = (
{
closed = 1;
nodes = (
(153,256,cs),
(153,290,o),
(175,312,o),
(224,312,cs),
(283,312,o),
(295,290,o),
(295,256,cs),
(295,222,o),
(273,200,o),
(224,200,cs),
(175,200,o),
(153,222,o)
);
},
{
closed = 1;
nodes = (
(50,256,cs),
(50,181,o),
(114,120,o),
(224,120,cs),
(334,120,o),
(398,181,o),
(398,256,cs),
(398,342,o),
(334,392,o),
(224,392,cs),
(114,392,o),
(50,331,o)
);
},
{
closed = 1;
nodes = (
(214,357,l),
(202,384,o),
(197,411,o),
(197,433,cs),
(197,468,o),
(209,500,o),
(266,500,cs),
(299,500,o),
(333,496,o),
(367,490,c),
(378,567,l),
(339,576,o),
(295,580,o),
(260,580,cs),
(155,580,o),
(97,530,o),
(97,446,cs),
(97,414,o),
(108,371,o),
(125,338,c)
);
},
{
closed = 1;
nodes = (
(234,155,l),
(246,128,o),
(251,101,o),
(251,79,cs),
(251,44,o),
(239,12,o),
(182,12,cs),
(149,12,o),
(115,16,o),
(81,22,c),
(70,-55,l),
(109,-64,o),
(153,-68,o),
(188,-68,cs),
(293,-68,o),
(351,-18,o),
(351,66,cs),
(351,98,o),
(340,141,o),
(323,174,c)
);
}
);
};
layerId = "92967D72-867E-4A8B-929F-F44D834DD4C9";
shapes = (
{
closed = 1;
nodes = (
(175,200,o),
(153,222,o),
(153,256,cs),
(153,290,o),
(175,312,o),
(224,312,cs),
(283,312,o),
(295,290,o),
(295,256,cs),
(295,222,o),
(273,200,o),
(224,200,cs)
);
},
{
closed = 1;
nodes = (
(217,392,o),
(210,392,o),
(202,391,c),
(198,407,o),
(197,420,o),
(197,433,cs),
(197,468,o),
(209,500,o),
(266,500,cs),
(299,500,o),
(333,496,o),
(367,490,c),
(378,567,l),
(339,576,o),
(295,580,o),
(260,580,cs),
(155,580,o),
(97,530,o),
(97,446,cs),
(97,422,o),
(103,392,o),
(113,365,c),
(72,340,o),
(50,300,o),
(50,256,cs),
(50,181,o),
(114,120,o),
(224,120,cs),
(231,120,o),
(238,120,o),
(246,121,c),
(250,105,o),
(251,92,o),
(251,79,cs),
(251,44,o),
(239,12,o),
(182,12,cs),
(149,12,o),
(115,16,o),
(81,22,c),
(70,-55,l),
(109,-64,o),
(153,-68,o),
(188,-68,cs),
(293,-68,o),
(351,-18,o),
(351,66,cs),
(351,90,o),
(345,120,o),
(335,147,c),
(376,172,o),
(398,212,o),
(398,256,cs),
(398,342,o),
(334,392,o),
(224,392,cs)
);
}
);
width = 448;
},
{
background = {
shapes = (
{
closed = 1;
nodes = (
(121,256,cs),
(121,302,o),
(152,330,o),
(224,330,cs),
(296,330,o),
(327,302,o),
(327,256,cs),
(327,210,o),
(296,182,o),
(224,182,cs),
(152,182,o),
(121,210,o)
);
},
{
closed = 1;
nodes = (
(66,256,cs),
(66,190,o),
(124,138,o),
(224,138,cs),
(324,138,o),
(382,190,o),
(382,256,cs),
(382,331,o),
(324,374,o),
(224,374,cs),
(124,374,o),
(66,322,o)
);
},
{
closed = 1;
nodes = (
(190,357,l),
(178,389,o),
(173,421,o),
(173,446,cs),
(173,492,o),
(188,536,o),
(266,536,cs),
(294,536,o),
(322,532,o),
(351,526,c),
(362,567,l),
(328,576,o),
(290,580,o),
(260,580,cs),
(171,580,o),
(121,530,o),
(121,446,cs),
(121,414,o),
(132,371,o),
(149,338,c)
);
},
{
closed = 1;
nodes = (
(258,155,l),
(270,123,o),
(275,91,o),
(275,66,cs),
(275,20,o),
(260,-24,o),
(182,-24,cs),
(154,-24,o),
(126,-20,o),
(97,-14,c),
(86,-55,l),
(120,-64,o),
(158,-68,o),
(188,-68,cs),
(277,-68,o),
(327,-18,o),
(327,66,cs),
(327,98,o),
(316,141,o),
(299,174,c)
);
}
);
};
layerId = "7DDCEF54-C770-4FAD-B154-EE8058BAA7E5";
shapes = (
{
closed = 1;
nodes = (
(152,182,o),
(121,210,o),
(121,256,cs),
(121,302,o),
(152,330,o),
(224,330,cs),
(296,330,o),
(327,302,o),
(327,256,cs),
(327,210,o),
(296,182,o),
(224,182,cs)
);
},
{
closed = 1;
nodes = (
(210,374,o),
(198,373,o),
(185,371,c),
(176,399,o),
(173,425,o),
(173,446,cs),
(173,492,o),
(188,536,o),
(266,536,cs),
(294,536,o),
(322,532,o),
(351,526,c),
(362,567,l),
(328,576,o),
(290,580,o),
(260,580,cs),
(171,580,o),
(121,530,o),
(121,446,cs),
(121,420,o),
(128,388,o),
(140,359,c),
(93,339,o),
(66,300,o),
(66,256,cs),
(66,190,o),
(124,138,o),
(224,138,cs),
(238,138,o),
(250,139,o),
(263,141,c),
(272,113,o),
(275,87,o),
(275,66,cs),
(275,20,o),
(260,-24,o),
(182,-24,cs),
(154,-24,o),
(126,-20,o),
(97,-14,c),
(86,-55,l),
(120,-64,o),
(158,-68,o),
(188,-68,cs),
(277,-68,o),
(327,-18,o),
(327,66,cs),
(327,92,o),
(320,124,o),
(308,153,c),
(355,173,o),
(382,212,o),
(382,256,cs),
(382,331,o),
(324,374,o),
(224,374,cs)
);
}
);
width = 448;
}
);
unicode = 167;
}
{
glyphname = ordfeminine;
kernLeft = zerosuperior;
kernRight = zerosuperior;
layers = (
{
background = {
hints = (
{
horizontal = 1;
options = 4;
place = (0,591);
target = (0,12);
type = TTStem;
},
{
horizontal = 1;
options = 4;
place = (0,373);
target = (1,6);
type = TTStem;
},
{
horizontal = 1;
place = (0,0);
type = TTSnap;
},
{
options = 4;
place = (0,129);
target = (1,9);
type = TTStem;
},
{
options = 4;
place = (0,256);
target = (0,15);
type = TTStem;
},
{
place = (0,88);
target = (0,8);
type = TTShift;
},
{
options = 8;
place = (0,0);
type = TTSnap;
},
{
options = 8;
place = (0,0);
type = TTSnap;
},
{
options = 4;
place = (0,256);
target = (0,16,1,12);
type = TTShift;
},
{
options = 4;
place = (0,264);
target = (0,17);
type = TTShift;
},
{
horizontal = 1;
other1 = (0,16,1,16);
place = (0,317);
target = (1,19);
type = TTInterpolate;
},
{
horizontal = 1;
options = 4;
place = (0,463);
target = (0,16,1,12);
type = TTStem;
}
);
shapes = (
{
closed = 1;
nodes = (
(322,320,l),
(320,384,l),
(320,531,ls),
(320,619,o),
(276,646,o),
(198,646,cs),
(163,646,o),
(125,640,o),
(88,631,c),
(100,579,l),
(133,587,o),
(164,591,o),
(192,591,cs),
(243,591,o),
(256,576,o),
(256,525,cs),
(256,366,l),
(264,320,l)
);
},
{
closed = 1;
nodes = (
(202,317,o),
(237,334,o),
(288,366,c),
(274,410,l),
(237,388,o),
(206,373,o),
(168,373,cs),
(145,373,o),
(129,384,o),
(129,409,cs),
(129,447,o),
(173,463,o),
(284,463,c),
(284,516,l),
(122,516,o),
(63,479,o),
(63,405,cs),
(63,350,o),
(103,317,o),
(155,317,cs)
);
}
);
};
hints = (
{
horizontal = 1;
options = 4;
origin = (0,5);
target = (0,12);
type = TTStem;
},
{
horizontal = 1;
options = 4;
origin = (0,22);
target = (1,6);
type = TTStem;
},
{
horizontal = 1;
origin = (0,26);
type = TTSnap;
},
{
options = 4;
origin = (0,19);
target = (1,9);
type = TTStem;
},
{
options = 4;
origin = (0,2);
target = (0,15);
type = TTStem;
},
{
origin = (0,19);
target = (0,8);
type = TTShift;
},
{
options = 8;
origin = (0,19);
type = TTSnap;
},
{
options = 8;
origin = (0,2);
type = TTSnap;
},
{
options = 4;
origin = (0,15);
target = (1,2);
type = TTShift;
},
{
options = 4;
origin = (0,15);
target = (0,26);
type = TTShift;
},
{
horizontal = 1;
origin = (0,5);
other1 = (0,16);
target = (0,22);
type = TTInterpolate;
},
{
horizontal = 1;
options = 4;
origin = (0,16);
target = (1,2);
type = TTStem;
}
);
layerId = "95FB0C11-C828-4064-8966-34220AA4D426";
shapes = (
{
closed = 1;
nodes = (
(322,320,l),
(320,384,l),
(320,531,ls),
(320,619,o),
(276,646,o),
(198,646,cs),
(163,646,o),
(125,640,o),
(88,631,c),
(100,579,l),
(133,587,o),
(164,591,o),
(192,591,cs),
(243,591,o),
(256,576,o),
(256,525,cs),
(256,516,l),
(114,511,o),
(63,475,o),
(63,405,cs),
(63,350,o),
(103,317,o),
(155,317,cs),
(193,317,o),
(222,328,o),
(259,349,c),
(264,320,l)
);
},
{
closed = 1;
nodes = (
(129,444,o),
(165,460,o),
(256,463,c),
(256,400,l),
(227,384,o),
(200,373,o),
(168,373,cs),
(145,373,o),
(129,384,o),
(129,409,cs)
);
}
);
width = 448;
},
{
background = {
shapes = (
{
closed = 1;
nodes = (
(337,320,l),
(335,384,l),
(335,531,ls),
(335,616,o),
(285,646,o),
(198,646,cs),
(158,646,o),
(115,638,o),
(73,627,c),
(86,556,l),
(116,564,o),
(148,570,o),
(180,570,cs),
(217,570,o),
(231,558,o),
(231,525,cs),
(231,384,l),
(239,320,l)
);
},
{
closed = 1;
nodes = (
(203,317,o),
(240,336,o),
(291,381,c),
(265,414,l),
(237,398,o),
(214,387,o),
(185,387,cs),
(167,387,o),
(154,396,o),
(154,415,cs),
(154,443,o),
(184,457,o),
(259,457,c),
(259,516,l),
(104,516,o),
(48,475,o),
(48,407,cs),
(48,351,o),
(89,317,o),
(153,317,cs)
);
}
);
};
layerId = "92967D72-867E-4A8B-929F-F44D834DD4C9";
shapes = (
{
closed = 1;
nodes = (
(337,320,l),
(335,384,l),
(335,531,ls),
(335,616,o),
(285,646,o),
(198,646,cs),
(158,646,o),
(115,638,o),
(73,627,c),
(86,556,l),
(116,564,o),
(148,570,o),
(180,570,cs),
(217,570,o),
(231,558,o),
(231,525,cs),
(231,516,l),
(96,511,o),
(48,471,o),
(48,407,cs),
(48,351,o),
(89,317,o),
(153,317,cs),
(184,317,o),
(209,324,o),
(236,340,c),
(239,320,l)
);
},
{
closed = 1;
nodes = (
(154,439,o),
(177,453,o),
(231,456,c),
(231,397,l),
(216,391,o),
(202,387,o),
(185,387,cs),
(167,387,o),
(154,396,o),
(154,415,cs)
);
}
);
width = 448;
},
{
background = {
shapes = (
{
closed = 1;
nodes = (
(315,320,l),
(312,384,l),
(312,531,ls),
(312,620,o),
(267,646,o),
(201,646,cs),
(155,646,o),
(114,634,o),
(79,619,c),
(90,588,l),
(125,601,o),
(162,610,o),
(196,610,cs),
(248,610,o),
(272,592,o),
(272,525,cs),
(272,384,l),
(280,320,l)
);
},
{
closed = 1;
nodes = (
(214,316,o),
(253,341,o),
(297,372,c),
(287,400,l),
(241,369,o),
(208,352,o),
(166,352,cs),
(129,352,o),
(108,370,o),
(108,403,cs),
(108,448,o),
(158,474,o),
(294,474,c),
(294,507,l),
(134,507,o),
(63,469,o),
(63,402,cs),
(63,343,o),
(110,316,o),
(162,316,cs)
);
}
);
};
layerId = "7DDCEF54-C770-4FAD-B154-EE8058BAA7E5";
shapes = (
{
closed = 1;
nodes = (
(315,320,l),
(312,384,l),
(312,531,ls),
(312,620,o),
(267,646,o),
(201,646,cs),
(155,646,o),
(114,634,o),
(79,619,c),
(90,588,l),
(125,601,o),
(162,610,o),
(196,610,cs),
(248,610,o),
(272,592,o),
(272,525,cs),
(272,507,l),
(127,503,o),
(63,466,o),
(63,402,cs),
(63,343,o),
(110,316,o),
(162,316,cs),
(205,316,o),
(239,333,o),
(275,357,c),
(280,320,l)
);
},
{
closed = 1;
nodes = (
(108,445,o),
(152,471,o),
(272,474,c),
(272,390,l),
(233,365,o),
(203,352,o),
(166,352,cs),
(129,352,o),
(108,370,o),
(108,403,cs)
);
}
);
width = 448;
}
);
unicode = 170;
}
{
glyphname = guillemetleft;
kernLeft = hyphen;
kernRight = guillemetleft;
layers = (
{
hints = (
{
horizontal = 1;
origin = (0,3);
type = TTSnap;
},
{
horizontal = 1;
origin = (0,5);
type = TTSnap;
},
{
horizontal = 1;
options = 4;
origin = (0,5);
target = (1,5);
type = TTShift;
},
{
horizontal = 1;
options = 4;
origin = (0,3);
target = (1,3);
type = TTShift;
}
);
layerId = "95FB0C11-C828-4064-8966-34220AA4D426";
shapes = (
{
closed = 1;
nodes = (
(198,51,l),
(141,224,l),
(198,397,l),
(128,417,l),
(64,224,l),
(128,31,l)
);
},
{
closed = 1;
nodes = (
(372,57,l),
(317,224,l),
(372,391,l),
(302,411,l),
(240,224,l),
(302,37,l)
);
}
);
width = 448;
},
{
layerId = "92967D72-867E-4A8B-929F-F44D834DD4C9";
shapes = (
{
closed = 1;
nodes = (
(216,56,l),
(165,224,l),
(215,392,l),
(109,422,l),
(38,224,l),
(108,25,l)
);
},
{
closed = 1;
nodes = (
(391,63,l),
(342,224,l),
(390,386,l),
(284,416,l),
(215,224,l),
(283,32,l)
);
}
);
width = 448;
},
{
layerId = "7DDCEF54-C770-4FAD-B154-EE8058BAA7E5";
shapes = (
{
closed = 1;
nodes = (
(186,48,l),
(130,224,l),
(185,400,l),
(141,413,l),
(75,224,l),
(141,35,l)
);
},
{
closed = 1;
nodes = (
(360,54,l),
(306,224,l),
(359,395,l),
(315,408,l),
(251,224,l),
(315,41,l)
);
}
);
width = 448;
}
);
unicode = 171;
}
{
glyphname = registered;
layers = (
{
background = {
hints = (
{
horizontal = 1;
place = (0,0);
type = TTSnap;
},
{
horizontal = 1;
place = (0,0);
type = TTSnap;
},
{
horizontal = 1;
options = 4;
place = (0,644);
target = (2,5);
type = TTStem;
},
{
horizontal = 1;
options = 4;
place = (0,250);
target = (2,11);
type = TTStem;
},
{
horizontal = 1;
other1 = (3,0);
place = (0,692);
target = (0,5);
type = TTInterpolate;
},
{
horizontal = 1;
other1 = (3,10);
place = (0,692);
target = (0,5);
type = TTInterpolate;
},
{
horizontal = 1;
options = 4;
place = (0,535);
target = (4,1);
type = TTStem;
},
{
horizontal = 1;
place = (0,319);
target = (1,7);
type = TTShift;
},
{
horizontal = 1;
other1 = (3,1);
place = (0,580);
target = (3,10);
type = TTInterpolate;
},
{
horizontal = 1;
options = 4;
place = (0,413);
target = (3,1);
type = TTStem;
},
{
horizontal = 1;
options = 4;
other1 = (1,3,3,7);
place = (0,413);
target = (3,1);
type = TTInterpolate;
}
);
shapes = (
{
closed = 1;
nodes = (
(332,202,o),
(440,284,o),
(440,447,cs),
(440,612,o),
(332,692,o),
(224,692,cs),
(116,692,o),
(8,612,o),
(8,447,cs),
(8,284,o),
(116,202,o),
(224,202,cs)
);
},
{
closed = 1;
nodes = (
(325,319,l),
(315,376,o),
(290,408,o),
(254,429,c),
(205,419,l),
(238,398,o),
(258,370,o),
(267,319,c)
);
},
{
closed = 1;
nodes = (
(127,250,o),
(60,318,o),
(60,447,cs),
(60,576,o),
(127,644,o),
(224,644,cs),
(321,644,o),
(388,576,o),
(388,447,cs),
(388,318,o),
(321,250,o),
(224,250,cs)
);
},
{
closed = 1;
nodes = (
(192,319,l),
(192,413,l),
(219,413,l),
(219,421,l),
(221,421,ls),
(287,421,o),
(325,450,o),
(325,499,cs),
(325,552,o),
(288,580,o),
(227,580,cs),
(140,580,l),
(140,319,l)
);
},
{
closed = 1;
nodes = (
(192,535,l),
(221,535,ls),
(257,535,o),
(269,522,o),
(269,497,cs),
(269,473,o),
(257,458,o),
(221,458,cs),
(192,458,l)
);
}
);
};
hints = (
{
horizontal = 1;
origin = (0,11);
type = TTSnap;
},
{
horizontal = 1;
origin = (0,5);
type = TTSnap;
},
{
horizontal = 1;
options = 4;
origin = (0,5);
target = (2,5);
type = TTStem;
},
{
horizontal = 1;
options = 4;
origin = (0,11);
target = (2,11);
type = TTStem;
},
{
horizontal = 1;
origin = (0,11);
other1 = (1,12);
target = (0,5);
type = TTInterpolate;
},
{
horizontal = 1;
origin = (0,11);
other1 = (1,9);
target = (0,5);
type = TTInterpolate;
},
{
horizontal = 1;
options = 4;
origin = (1,9);
target = (3,1);
type = TTStem;
},
{
horizontal = 1;
origin = (1,12);
target = (1,17);
type = TTShift;
},
{
horizontal = 1;
origin = (1,12);
other1 = (1,13);
target = (1,9);
type = TTInterpolate;
},
{
horizontal = 1;
options = 4;
origin = (3,8);
target = (1,13);
type = TTStem;
},
{
horizontal = 1;
options = 4;
origin = (1,9);
other1 = (1,3);
target = (1,13);
type = TTInterpolate;
}
);
layerId = "95FB0C11-C828-4064-8966-34220AA4D426";
shapes = (
{
closed = 1;
nodes = (
(332,202,o),
(440,284,o),
(440,447,cs),
(440,612,o),
(332,692,o),
(224,692,cs),
(116,692,o),
(8,612,o),
(8,447,cs),
(8,284,o),
(116,202,o),
(224,202,cs)
);
},
{
closed = 1;
nodes = (
(325,319,l),
(316,372,o),
(293,404,o),
(260,425,c),
(303,435,o),
(325,461,o),
(325,499,cs),
(325,552,o),
(288,580,o),
(227,580,cs),
(140,580,l),
(140,319,l),
(192,319,l),
(192,413,l),
(214,413,l),
(241,393,o),
(259,365,o),
(267,319,c)
);
},
{
closed = 1;
nodes = (
(127,250,o),
(60,318,o),
(60,447,cs),
(60,576,o),
(127,644,o),
(224,644,cs),
(321,644,o),
(388,576,o),
(388,447,cs),
(388,318,o),
(321,250,o),
(224,250,cs)
);
},
{
closed = 1;
nodes = (
(192,535,l),
(221,535,ls),
(257,535,o),
(269,522,o),
(269,497,cs),
(269,473,o),
(257,458,o),
(221,458,cs),
(192,458,l)
);
}
);
width = 448;
},
{
background = {
shapes = (
{
closed = 1;
nodes = (
(336,194,o),
(448,279,o),
(448,447,cs),
(448,617,o),
(336,700,o),
(224,700,cs),
(112,700,o),
(0,617,o),
(0,447,cs),
(0,279,o),
(112,194,o),
(224,194,cs)
);
},
{
closed = 1;
nodes = (
(333,319,l),
(323,376,o),
(296,408,o),
(260,429,c),
(185,419,l),
(219,401,o),
(240,370,o),
(249,319,c)
);
},
{
closed = 1;
nodes = (
(126,258,o),
(70,334,o),
(70,447,cs),
(70,560,o),
(126,636,o),
(224,636,cs),
(322,636,o),
(378,560,o),
(378,447,cs),
(378,334,o),
(322,258,o),
(224,258,cs)
);
},
{
closed = 1;
nodes = (
(203,319,l),
(203,405,l),
(213,405,l),
(213,417,l),
(215,417,ls),
(286,417,o),
(330,447,o),
(330,497,cs),
(330,552,o),
(288,580,o),
(219,580,cs),
(123,580,l),
(123,319,l)
);
},
{
closed = 1;
nodes = (
(203,524,l),
(217,524,ls),
(240,524,o),
(249,513,o),
(249,493,cs),
(249,473,o),
(240,461,o),
(217,461,cs),
(203,461,l)
);
}
);
};
layerId = "92967D72-867E-4A8B-929F-F44D834DD4C9";
shapes = (
{
closed = 1;
nodes = (
(336,194,o),
(448,279,o),
(448,447,cs),
(448,617,o),
(336,700,o),
(224,700,cs),
(112,700,o),
(0,617,o),
(0,447,cs),
(0,279,o),
(112,194,o),
(224,194,cs)
);
},
{
closed = 1;
nodes = (
(333,319,l),
(324,371,o),
(300,403,o),
(268,424,c),
(308,436,o),
(330,461,o),
(330,497,cs),
(330,552,o),
(288,580,o),
(219,580,cs),
(123,580,l),
(123,319,l),
(203,319,l),
(203,405,l),
(206,405,l),
(227,387,o),
(242,359,o),
(249,319,c)
);
},
{
closed = 1;
nodes = (
(126,258,o),
(70,334,o),
(70,447,cs),
(70,560,o),
(126,636,o),
(224,636,cs),
(322,636,o),
(378,560,o),
(378,447,cs),
(378,334,o),
(322,258,o),
(224,258,cs)
);
},
{
closed = 1;
nodes = (
(203,524,l),
(217,524,ls),
(240,524,o),
(249,513,o),
(249,493,cs),
(249,473,o),
(240,461,o),
(217,461,cs),
(203,461,l)
);
}
);
width = 448;
},
{
background = {
shapes = (
{
closed = 1;
nodes = (
(331,206,o),
(437,286,o),
(437,446,cs),
(437,608,o),
(331,686,o),
(224,686,cs),
(118,686,o),
(11,608,o),
(11,446,cs),
(11,285,o),
(116,206,o),
(224,206,cs)
);
},
{
closed = 1;
nodes = (
(322,319,l),
(312,376,o),
(285,408,o),
(249,429,c),
(208,419,l),
(242,396,o),
(264,370,o),
(273,319,c)
);
},
{
closed = 1;
nodes = (
(134,246,o),
(55,306,o),
(55,446,cs),
(55,586,o),
(134,646,o),
(224,646,cs),
(314,646,o),
(393,586,o),
(393,446,cs),
(393,306,o),
(314,246,o),
(224,246,cs)
);
},
{
closed = 1;
nodes = (
(176,319,l),
(176,414,l),
(217,414,l),
(217,417,l),
(219,417,ls),
(279,417,o),
(319,446,o),
(319,497,cs),
(319,552,o),
(278,580,o),
(219,580,cs),
(134,580,l),
(134,319,l)
);
},
{
closed = 1;
nodes = (
(176,544,l),
(219,544,ls),
(257,544,o),
(275,528,o),
(275,497,cs),
(275,469,o),
(257,450,o),
(219,450,cs),
(176,450,l)
);
}
);
};
layerId = "7DDCEF54-C770-4FAD-B154-EE8058BAA7E5";
shapes = (
{
closed = 1;
nodes = (
(331,206,o),
(437,286,o),
(437,446,cs),
(437,608,o),
(331,686,o),
(224,686,cs),
(118,686,o),
(11,608,o),
(11,446,cs),
(11,285,o),
(116,206,o),
(224,206,cs)
);
},
{
closed = 1;
nodes = (
(322,319,l),
(313,370,o),
(291,401,o),
(260,422,c),
(297,433,o),
(319,459,o),
(319,497,cs),
(319,552,o),
(278,580,o),
(219,580,cs),
(134,580,l),
(134,319,l),
(176,319,l),
(176,414,l),
(215,414,l),
(245,392,o),
(265,366,o),
(273,319,c)
);
},
{
closed = 1;
nodes = (
(134,246,o),
(55,306,o),
(55,446,cs),
(55,586,o),
(134,646,o),
(224,646,cs),
(314,646,o),
(393,586,o),
(393,446,cs),
(393,306,o),
(314,246,o),
(224,246,cs)
);
},
{
closed = 1;
nodes = (
(176,544,l),
(219,544,ls),
(257,544,o),
(275,528,o),
(275,497,cs),
(275,469,o),
(257,450,o),
(219,450,cs),
(176,450,l)
);
}
);
width = 448;
}
);
unicode = 174;
}
{
glyphname = twosuperior;
kernLeft = zerosuperior;
kernRight = zerosuperior;
layers = (
{
background = {
hints = (
{
horizontal = 1;
options = 4;
place = (0,374);
type = TTStem;
},
{
horizontal = 1;
options = 4;
place = (0,586);
type = TTStem;
},
{
horizontal = 1;
options = 4;
place = (0,150);
type = TTInterpolate;
},
{
horizontal = 1;
options = 4;
place = (0,150);
type = TTInterpolate;
}
);
shapes = (
{
closed = 1;
nodes = (
(259,320,l),
(259,374,l),
(125,374,l),
(125,422,o),
(193,438,o),
(227,472,cs),
(247,492,o),
(257,516,o),
(257,547,cs),
(257,603,o),
(225,640,o),
(145,640,cs),
(115,640,o),
(88,636,o),
(65,631,c),
(73,579,l),
(96,583,o),
(115,586,o),
(139,586,cs),
(181,586,o),
(191,570,o),
(191,544,cs),
(191,528,o),
(187,516,o),
(176,505,cs),
(147,476,o),
(44,458,o),
(59,320,c)
);
}
);
};
hints = (
{
horizontal = 1;
options = 4;
origin = (0,27);
target = (0,2);
type = TTStem;
},
{
horizontal = 1;
options = 4;
origin = (0,11);
target = (0,18);
type = TTStem;
},
{
horizontal = 1;
options = 4;
origin = (0,27);
other1 = (0,5,0);
target = (0,18);
type = TTInterpolate;
},
{
horizontal = 1;
options = 4;
origin = (0,2);
other1 = (0,27,0);
target = (0,11);
type = TTInterpolate;
}
);
layerId = "95FB0C11-C828-4064-8966-34220AA4D426";
shapes = (
{
closed = 1;
nodes = (
(259,320,l),
(259,374,l),
(125,374,l),
(125,426,o),
(193,438,o),
(227,472,cs),
(247,492,o),
(257,516,o),
(257,547,cs),
(257,603,o),
(225,640,o),
(145,640,cs),
(115,640,o),
(88,636,o),
(65,631,c),
(73,579,l),
(96,583,o),
(115,586,o),
(139,586,cs),
(181,586,o),
(191,570,o),
(191,544,cs),
(191,528,o),
(187,516,o),
(176,505,cs),
(139,468,o),
(44,458,o),
(59,320,c)
);
}
);
width = 448;
},
{
background = {
shapes = (
{
closed = 1;
nodes = (
(269,320,l),
(269,390,l),
(84,390,l),
(149,386,l),
(149,425,o),
(204,431,o),
(239,466,cs),
(255,482,o),
(267,504,o),
(267,541,cs),
(267,603,o),
(232,640,o),
(145,640,cs),
(110,640,o),
(78,634,o),
(52,628,c),
(63,563,l),
(83,567,o),
(99,570,o),
(115,570,cs),
(149,570,o),
(161,555,o),
(161,534,cs),
(161,518,o),
(154,508,o),
(144,498,cs),
(116,470,o),
(34,458,o),
(49,320,c)
);
}
);
};
layerId = "92967D72-867E-4A8B-929F-F44D834DD4C9";
shapes = (
{
closed = 1;
nodes = (
(269,320,l),
(269,390,l),
(149,390,l),
(153,426,o),
(206,433,o),
(239,466,cs),
(255,482,o),
(267,504,o),
(267,541,cs),
(267,603,o),
(232,640,o),
(145,640,cs),
(110,640,o),
(78,634,o),
(52,628,c),
(63,563,l),
(83,567,o),
(99,570,o),
(115,570,cs),
(149,570,o),
(161,555,o),
(161,534,cs),
(161,518,o),
(153,507,o),
(144,498,cs),
(116,470,o),
(34,458,o),
(49,320,c)
);
}
);
width = 448;
},
{
background = {
shapes = (
{
closed = 1;
nodes = (
(253,320,l),
(253,358,l),
(84,358,l),
(106,353,l),
(106,430,o),
(182,440,o),
(225,483,cs),
(244,502,o),
(253,523,o),
(253,552,cs),
(253,603,o),
(222,640,o),
(146,640,cs),
(121,640,o),
(94,636,o),
(73,630,c),
(79,595,l),
(101,599,o),
(120,602,o),
(141,602,cs),
(189,602,o),
(207,584,o),
(207,551,cs),
(207,532,o),
(203,519,o),
(190,506,cs),
(137,453,o),
(51,453,o),
(65,320,c)
);
}
);
};
layerId = "7DDCEF54-C770-4FAD-B154-EE8058BAA7E5";
shapes = (
{
closed = 1;
nodes = (
(253,320,l),
(253,358,l),
(106,358,l),
(106,430,o),
(184,442,o),
(225,483,cs),
(243,501,o),
(253,523,o),
(253,552,cs),
(253,603,o),
(222,640,o),
(146,640,cs),
(121,640,o),
(94,636,o),
(73,630,c),
(79,595,l),
(101,599,o),
(120,602,o),
(141,602,cs),
(189,602,o),
(207,584,o),
(207,551,cs),
(207,532,o),
(202,518,o),
(190,506,cs),
(132,448,o),
(51,453,o),
(65,320,c)
);
}
);
width = 448;
}
);
unicode = 178;
}
{
glyphname = paragraph;
layers = (
{
hints = (
{
horizontal = 1;
origin = (0,11);
type = TTSnap;
},
{
horizontal = 1;
options = 4;
origin = (0,11);
target = (0,8);
type = TTStem;
},
{
horizontal = 1;
origin = (0,4);
type = TTSnap;
},
{
horizontal = 1;
options = 4;
origin = (0,4);
target = (0,3);
type = TTStem;
},
{
horizontal = 1;
options = 4;
origin = (0,4);
target = (0,3);
type = TTStem;
},
{
horizontal = 1;
origin = (0,17);
type = TTSnap;
}
);
layerId = "95FB0C11-C828-4064-8966-34220AA4D426";
shapes = (
{
closed = 1;
nodes = (
(252,64,ls),
(252,-16,o),
(236,-48,o),
(148,-74,c),
(165,-136,l),
(291,-107,o),
(324,-41,o),
(324,69,cs),
(324,448,l),
(394,448,l),
(394,512,l),
(263,512,ls),
(111,512,o),
(55,448,o),
(55,347,cs),
(55,263,o),
(108,198,o),
(252,192,c)
);
}
);
width = 448;
},
{
layerId = "92967D72-867E-4A8B-929F-F44D834DD4C9";
shapes = (
{
closed = 1;
nodes = (
(232,64,ls),
(232,-4,o),
(213,-40,o),
(135,-54,c),
(151,-136,l),
(293,-115,o),
(344,-41,o),
(344,69,cs),
(344,432,l),
(404,432,l),
(404,512,l),
(263,512,ls),
(104,512,o),
(45,448,o),
(45,347,cs),
(45,263,o),
(95,198,o),
(232,192,c)
);
}
);
width = 448;
},
{
layerId = "7DDCEF54-C770-4FAD-B154-EE8058BAA7E5";
shapes = (
{
closed = 1;
nodes = (
(264,64,ls),
(264,-27,o),
(238,-72,o),
(160,-96,c),
(173,-136,l),
(276,-107,o),
(312,-41,o),
(312,69,cs),
(312,468,l),
(388,468,l),
(388,512,l),
(263,512,ls),
(115,512,o),
(61,448,o),
(61,347,cs),
(61,263,o),
(116,198,o),
(264,192,c)
);
}
);
width = 448;
}
);
unicode = 182;
}
{
glyphname = onesuperior;
kernLeft = zerosuperior;
kernRight = zerosuperior;
layers = (
{
hints = (
{
horizontal = 1;
options = 4;
origin = (0,10);
target = (0,8);
type = TTStem;
},
{
horizontal = 1;
options = 4;
origin = (0,8);
target = (0,2);
type = TTShift;
},
{
horizontal = 1;
origin = (0,4);
type = TTSnap;
},
{
horizontal = 1;
options = 4;
origin = (0,10);
other1 = (0,7);
target = (0,4);
type = TTInterpolate;
}
);
layerId = "95FB0C11-C828-4064-8966-34220AA4D426";
shapes = (
{
closed = 1;
nodes = (
(266,320,l),
(266,374,l),
(192,374,l),
(193,640,l),
(146,640,l),
(41,551,l),
(75,509,l),
(128,554,l),
(127,374,l),
(49,374,l),
(49,320,l)
);
}
);
width = 448;
},
{
layerId = "92967D72-867E-4A8B-929F-F44D834DD4C9";
shapes = (
{
closed = 1;
nodes = (
(276,320,l),
(276,390,l),
(212,390,l),
(213,640,l),
(126,640,l),
(25,554,l),
(71,500,l),
(108,531,l),
(107,390,l),
(39,390,l),
(39,320,l)
);
}
);
width = 448;
},
{
layerId = "7DDCEF54-C770-4FAD-B154-EE8058BAA7E5";
shapes = (
{
closed = 1;
nodes = (
(260,320,l),
(260,358,l),
(182,358,l),
(183,640,l),
(158,640,l),
(51,549,l),
(74,520,l),
(139,574,l),
(138,358,l),
(55,358,l),
(55,320,l)
);
}
);
width = 448;
}
);
unicode = 185;
}
{
glyphname = guillemetright;
kernLeft = guillemetright;
kernRight = hyphen;
layers = (
{
hints = (
{
horizontal = 1;
origin = (0,1);
type = TTSnap;
},
{
horizontal = 1;
origin = (0,5);
type = TTSnap;
},
{
horizontal = 1;
origin = (0,5);
target = (1,5);
type = TTShift;
},
{
horizontal = 1;
origin = (0,1);
target = (1,1);
type = TTShift;
}
);
layerId = "95FB0C11-C828-4064-8966-34220AA4D426";
shapes = (
{
closed = 1;
nodes = (
(384,224,l),
(320,417,l),
(250,397,l),
(307,224,l),
(250,51,l),
(320,31,l)
);
},
{
closed = 1;
nodes = (
(208,224,l),
(146,411,l),
(76,391,l),
(131,224,l),
(76,57,l),
(146,37,l)
);
}
);
width = 448;
},
{
layerId = "92967D72-867E-4A8B-929F-F44D834DD4C9";
shapes = (
{
closed = 1;
nodes = (
(410,223,l),
(340,422,l),
(232,391,l),
(283,223,l),
(233,55,l),
(339,25,l)
);
},
{
closed = 1;
nodes = (
(233,223,l),
(165,415,l),
(57,384,l),
(106,223,l),
(58,61,l),
(164,31,l)
);
}
);
width = 448;
},
{
layerId = "7DDCEF54-C770-4FAD-B154-EE8058BAA7E5";
shapes = (
{
closed = 1;
nodes = (
(373,224,l),
(307,413,l),
(262,400,l),
(318,224,l),
(263,48,l),
(307,35,l)
);
},
{
closed = 1;
nodes = (
(197,224,l),
(133,407,l),
(88,394,l),
(142,224,l),
(89,53,l),
(133,40,l)
);
}
);
width = 448;
}
);
unicode = 187;
}
{
glyphname = Thorn;
layers = (
{
hints = (
{
horizontal = 1;
origin = (0,4);
type = TTSnap;
},
{
horizontal = 1;
origin = (0,1);
type = TTSnap;
},
{
horizontal = 1;
options = 4;
origin = (0,6);
target = (1,8);
type = TTStem;
},
{
horizontal = 1;
options = 4;
origin = (0,12);
target = (1,2);
type = TTStem;
},
{
options = 4;
origin = (0,3);
target = (0,4);
type = TTStem;
},
{
options = 4;
origin = (0,9);
target = (1,5);
type = TTStem;
},
{
options = 4;
origin = (0,4);
target = (1,0);
type = TTShift;
},
{
options = 4;
origin = (1,0);
target = (0,0);
type = TTShift;
},
{
options = 8;
origin = (0,3);
type = TTSnap;
},
{
options = 8;
origin = (0,9);
type = TTSnap;
},
{
horizontal = 1;
origin = (0,4);
other1 = (0,12);
target = (0,1);
type = TTInterpolate;
},
{
horizontal = 1;
origin = (0,4);
other1 = (0,6);
target = (0,1);
type = TTInterpolate;
}
);
layerId = "95FB0C11-C828-4064-8966-34220AA4D426";
shapes = (
{
closed = 1;
nodes = (
(132,512,l),
(132,640,l),
(60,640,l),
(60,0,l),
(132,0,l),
(132,128,l),
(215,128,ls),
(327,128,o),
(401,192,o),
(401,318,cs),
(401,443,o),
(327,512,o),
(215,512,cs)
);
},
{
closed = 1;
nodes = (
(132,192,l),
(132,448,l),
(208,448,ls),
(301,448,o),
(327,399,o),
(327,318,cs),
(327,241,o),
(303,192,o),
(208,192,cs)
);
}
);
width = 448;
},
{
layerId = "92967D72-867E-4A8B-929F-F44D834DD4C9";
shapes = (
{
closed = 1;
nodes = (
(162,520,l),
(162,640,l),
(50,640,l),
(50,0,l),
(162,0,l),
(162,120,l),
(219,120,ls),
(334,120,o),
(411,187,o),
(411,318,cs),
(411,448,o),
(334,520,o),
(219,520,cs)
);
},
{
closed = 1;
nodes = (
(162,200,l),
(162,440,l),
(194,440,ls),
(275,440,o),
(297,394,o),
(297,318,cs),
(297,246,o),
(276,200,o),
(194,200,cs)
);
}
);
width = 448;
},
{
layerId = "7DDCEF54-C770-4FAD-B154-EE8058BAA7E5";
shapes = (
{
closed = 1;
nodes = (
(114,502,l),
(114,640,l),
(66,640,l),
(66,0,l),
(114,0,l),
(114,138,l),
(212,138,ls),
(323,138,o),
(395,198,o),
(395,318,cs),
(395,437,o),
(323,502,o),
(212,502,cs)
);
},
{
closed = 1;
nodes = (
(114,182,l),
(114,458,l),
(209,458,ls),
(314,458,o),
(345,397,o),
(345,318,cs),
(345,239,o),
(314,182,o),
(209,182,cs)
);
}
);
width = 448;
}
);
unicode = 222;
}
{
glyphname = germandbls;
kernLeft = h;
layers = (
{
hints = (
{
horizontal = 1;
origin = (0,39);
type = TTSnap;
},
{
horizontal = 1;
options = 4;
origin = (0,23);
target = (0,16);
type = TTStem;
},
{
horizontal = 1;
options = 4;
origin = (0,35);
target = (0,4);
type = TTStem;
},
{
horizontal = 1;
options = 4;
origin = (0,23);
other1 = (0,13,0);
target = (0,4);
type = TTInterpolate;
},
{
horizontal = 1;
options = 4;
origin = (0,23);
other1 = (0,32,0);
target = (0,4);
type = TTInterpolate;
},
{
horizontal = 1;
options = 4;
origin = (0,16);
other1 = (0,10,0);
target = (0,35);
type = TTInterpolate;
},
{
horizontal = 1;
options = 4;
origin = (0,16);
other1 = (0,29,0);
target = (0,35);
type = TTInterpolate;
},
{
options = 8;
origin = (0,39);
type = TTSnap;
},
{
options = 4;
origin = (0,39);
target = (0,0);
type = TTStem;
},
{
options = 8;
origin = (0,26);
type = TTSnap;
},
{
options = 4;
origin = (0,26);
target = (0,13);
type = TTStem;
},
{
options = 8;
origin = (0,26);
target = (0,32);
type = TTShift;
},
{
options = 4;
origin = (0,32);
target = (0,7);
type = TTStem;
},
{
options = 8;
origin = (0,39);
other1 = (0,29);
target = (0,26);
type = TTInterpolate;
},
{
options = 4;
origin = (0,29);
target = (0,10);
type = TTStem;
}
);
layerId = "95FB0C11-C828-4064-8966-34220AA4D426";
shapes = (
{
closed = 1;
nodes = (
(132,0,l),
(132,502,ls),
(132,553,o),
(156,584,o),
(215,584,cs),
(265,584,o),
(294,562,o),
(294,513,cs),
(294,426,o),
(186,434,o),
(186,327,cs),
(186,199,o),
(332,203,o),
(332,117,cs),
(332,76,o),
(312,58,o),
(267,58,cs),
(242,58,o),
(221,62,o),
(200,67,c),
(188,4,l),
(212,-3,o),
(242,-8,o),
(274,-8,cs),
(347,-8,o),
(408,31,o),
(408,117,cs),
(408,239,o),
(262,247,o),
(262,328,cs),
(262,396,o),
(370,403,o),
(370,516,cs),
(370,603,o),
(302,648,o),
(217,648,cs),
(128,648,o),
(60,605,o),
(60,496,cs),
(60,0,l)
);
}
);
width = 448;
},
{
layerId = "92967D72-867E-4A8B-929F-F44D834DD4C9";
shapes = (
{
closed = 1;
nodes = (
(162,0,l),
(162,500,ls),
(162,543,o),
(177,568,o),
(214,568,cs),
(246,568,o),
(264,550,o),
(264,513,cs),
(264,419,o),
(186,411,o),
(186,316,cs),
(186,190,o),
(302,202,o),
(302,120,cs),
(302,92,o),
(285,74,o),
(248,74,cs),
(227,74,o),
(209,78,o),
(192,83,c),
(180,7,l),
(205,-2,o),
(238,-8,o),
(272,-8,cs),
(352,-8,o),
(418,30,o),
(418,120,cs),
(418,241,o),
(302,254,o),
(302,332,cs),
(302,412,o),
(380,419,o),
(380,518,cs),
(380,601,o),
(313,648,o),
(217,648,cs),
(117,648,o),
(50,605,o),
(50,496,cs),
(50,0,l)
);
}
);
width = 448;
},
{
layerId = "7DDCEF54-C770-4FAD-B154-EE8058BAA7E5";
shapes = (
{
closed = 1;
nodes = (
(114,0,l),
(114,503,ls),
(114,562,o),
(146,604,o),
(216,604,cs),
(276,604,o),
(312,572,o),
(312,517,cs),
(312,423,o),
(198,426,o),
(198,324,cs),
(198,204,o),
(352,209,o),
(352,106,cs),
(352,62,o),
(324,38,o),
(267,38,cs),
(246,38,o),
(224,40,o),
(202,44,c),
(194,2,l),
(217,-4,o),
(244,-8,o),
(273,-8,cs),
(347,-8,o),
(402,35,o),
(402,107,cs),
(402,239,o),
(248,239,o),
(248,326,cs),
(248,403,o),
(362,412,o),
(362,519,cs),
(362,604,o),
(295,648,o),
(217,648,cs),
(135,648,o),
(66,605,o),
(66,496,cs),
(66,0,l)
);
}
);
width = 448;
}
);
unicode = 223;
}
{
glyphname = ae;
kernLeft = a;
kernRight = e;
layers = (
{
anchors = (
{
name = bottom;
pos = (224,0);
},
{
name = top;
pos = (224,448);
}
);
hints = (
{
horizontal = 1;
options = 4;
origin = (0,36);
target = (1,11);
type = TTStem;
},
{
horizontal = 1;
options = 4;
origin = (0,42);
target = (0,6);
type = TTStem;
},
{
horizontal = 1;
options = 4;
origin = (0,13);
target = (2,2);
type = TTStem;
},
{
horizontal = 1;
options = 4;
origin = (0,19);
target = (0,26);
type = TTStem;
},
{
horizontal = 1;
options = 8;
origin = (0,42);
other1 = (0,10);
target = (0,13);
type = TTInterpolate;
},
{
horizontal = 1;
options = 4;
origin = (0,10);
target = (2,5);
type = TTStem;
},
{
horizontal = 1;
options = 4;
origin = (0,10);
target = (1,5);
type = TTShift;
},
{
horizontal = 1;
options = 4;
origin = (2,5);
target = (0,30);
type = TTShift;
},
{
options = 8;
origin = (0,33);
type = TTSnap;
},
{
options = 4;
origin = (0,33);
target = (1,2);
type = TTStem;
},
{
options = 8;
origin = (0,10);
type = TTSnap;
},
{
options = 4;
origin = (0,10);
target = (2,5);
type = TTStem;
},
{
origin = (0,33);
other1 = (1,5);
target = (0,10);
type = TTInterpolate;
},
{
options = 4;
origin = (1,5);
target = (0,9);
type = TTStem;
},
{
options = 4;
origin = (0,9);
target = (2,6);
type = TTShift;
},
{
origin = (1,5);
target = (0,30);
type = TTShift;
},
{
origin = (0,10);
target = (0,2);
type = TTShift;
},
{
options = 4;
origin = (1,5);
other1 = (0,16);
target = (0,9);
type = TTInterpolate;
},
{
options = 4;
origin = (1,5);
other1 = (0,39);
target = (0,2);
type = TTInterpolate;
},
{
origin = (0,33);
target = (0,22);
type = TTShift;
}
);
layerId = "95FB0C11-C828-4064-8966-34220AA4D426";
shapes = (
{
closed = 1;
nodes = (
(376,-9,o),
(410,-2,o),
(446,14,c),
(429,72,l),
(401,62,o),
(374,55,o),
(344,55,cs),
(282,55,o),
(259,93,o),
(256,202,c),
(461,202,l),
(472,358,o),
(441,457,o),
(329,457,cs),
(280,457,o),
(246,433,o),
(224,394,c),
(204,435,o),
(166,453,o),
(113,453,cs),
(73,453,o),
(32,440,o),
(-1,426,c),
(18,368,l),
(49,380,o),
(83,388,o),
(110,388,cs),
(161,388,o),
(181,362,o),
(181,285,cs),
(181,262,l),
(37,256,o),
(-13,206,o),
(-13,122,cs),
(-13,34,o),
(34,-8,o),
(103,-8,cs),
(152,-8,o),
(190,16,o),
(223,46,c),
(248,12,o),
(285,-9,o),
(340,-9,cs)
);
},
{
closed = 1;
nodes = (
(83,56,o),
(61,76,o),
(61,122,cs),
(61,168,o),
(88,197,o),
(181,202,c),
(183,165,o),
(187,131,o),
(197,101,c),
(170,75,o),
(141,56,o),
(113,56,cs)
);
},
{
closed = 1;
nodes = (
(261,358,o),
(283,393,o),
(326,393,cs),
(372,393,o),
(387,352,o),
(387,262,c),
(257,262,l)
);
}
);
width = 448;
},
{
anchors = (
{
name = bottom;
pos = (224,0);
},
{
name = top;
pos = (224,448);
}
);
layerId = "92967D72-867E-4A8B-929F-F44D834DD4C9";
shapes = (
{
closed = 1;
nodes = (
(379,-9,o),
(417,-2,o),
(456,14,c),
(439,88,l),
(413,78,o),
(387,71,o),
(359,71,cs),
(301,71,o),
(279,101,o),
(276,189,c),
(471,189,l),
(483,355,o),
(449,461,o),
(329,461,cs),
(284,461,o),
(250,446,o),
(225,413,c),
(200,446,o),
(162,457,o),
(113,457,cs),
(69,457,o),
(25,444,o),
(-11,430,c),
(8,357,l),
(37,369,o),
(69,376,o),
(95,376,cs),
(142,376,o),
(161,353,o),
(161,285,cs),
(161,267,l),
(24,261,o),
(-23,210,o),
(-23,126,cs),
(-23,35,o),
(28,-8,o),
(103,-8,cs),
(150,-8,o),
(184,9,o),
(218,35,c),
(250,6,o),
(287,-9,o),
(340,-9,cs)
);
},
{
closed = 1;
nodes = (
(107,72,o),
(91,90,o),
(91,130,cs),
(91,164,o),
(107,185,o),
(161,189,c),
(163,155,o),
(167,123,o),
(181,93,c),
(165,82,o),
(148,72,o),
(128,72,cs)
);
},
{
closed = 1;
nodes = (
(280,350,o),
(294,381,o),
(321,381,cs),
(348,381,o),
(357,345,o),
(357,265,c),
(277,265,l)
);
}
);
width = 448;
},
{
anchors = (
{
name = bottom;
pos = (224,0);
},
{
name = top;
pos = (224,448);
}
);
layerId = "7DDCEF54-C770-4FAD-B154-EE8058BAA7E5";
shapes = (
{
closed = 1;
nodes = (
(376,-9,o,{
de.kutilek.instantAxis.effective = (
376,
-9
);
}),
(410,-1,o,{
de.kutilek.instantAxis.effective = (
410,
-1
);
}),
(441,14,c,{
de.kutilek.instantAxis.effective = (
441,
14
);
}),
(432,51,l,{
de.kutilek.instantAxis.effective = (
432,
51
);
}),
(404,40,o,{
de.kutilek.instantAxis.effective = (
404,
40
);
}),
(375,33,o,{
de.kutilek.instantAxis.effective = (
375,
33
);
}),
(349,33,cs,{
de.kutilek.instantAxis.effective = (
349,
33
);
}),
(268,33,o,{
de.kutilek.instantAxis.effective = (
268,
33
);
}),
(244,105,o,{
de.kutilek.instantAxis.effective = (
244,
105
);
}),
(244,214,c,{
de.kutilek.instantAxis.effective = (
244,
213
);
}),
(455,214,l,{
de.kutilek.instantAxis.effective = (
455,
213
);
}),
(463,368,o,{
de.kutilek.instantAxis.effective = (
463,
368
);
}),
(413,455,o,{
de.kutilek.instantAxis.effective = (
413,
455
);
}),
(329,455,cs,{
de.kutilek.instantAxis.effective = (
329,
455
);
}),
(278,455,o,{
de.kutilek.instantAxis.effective = (
278,
455
);
}),
(247,432,o,{
de.kutilek.instantAxis.effective = (
244,
425
);
}),
(228,389,c,{
de.kutilek.instantAxis.effective = (
223,
383
);
}),
(213,434,o,{
de.kutilek.instantAxis.effective = (
206,
428
);
}),
(174,455,o,{
de.kutilek.instantAxis.effective = (
168,
451
);
}),
(124,455,cs,{
de.kutilek.instantAxis.effective = (
113,
451
);
}),
(78,455,o,{
de.kutilek.instantAxis.effective = (
75,
451
);
}),
(34,438,o,{
de.kutilek.instantAxis.effective = (
36,
438
);
}),
(5,424,c,{
de.kutilek.instantAxis.effective = (
5,
424
);
}),
(17,385,l,{
de.kutilek.instantAxis.effective = (
17,
385
);
}),
(52,400,o,{
de.kutilek.instantAxis.effective = (
47,
397
);
}),
(85,410,o,{
de.kutilek.instantAxis.effective = (
80,
405
);
}),
(122,410,cs,{
de.kutilek.instantAxis.effective = (
107,
405
);
}),
(173,410,o,{
de.kutilek.instantAxis.effective = (
169,
405
);
}),
(193,378,o,{
de.kutilek.instantAxis.effective = (
193,
374
);
}),
(193,298,cs,{
de.kutilek.instantAxis.effective = (
193,
285
);
}),
(193,255,l,{
de.kutilek.instantAxis.effective = (
193,
257
);
}),
(44,249,o,{
de.kutilek.instantAxis.effective = (
45,
251
);
}),
(-8,198,o,{
de.kutilek.instantAxis.effective = (
-7,
200
);
}),
(-8,113,cs,{
de.kutilek.instantAxis.effective = (
-7,
115
);
}),
(-8,31,o,{
de.kutilek.instantAxis.effective = (
-7,
31
);
}),
(37,-8,o,{
de.kutilek.instantAxis.effective = (
38,
-8
);
}),
(103,-8,cs,{
de.kutilek.instantAxis.effective = (
103,
-8
);
}),
(153,-8,o,{
de.kutilek.instantAxis.effective = (
153,
-8
);
}),
(194,22,o,{
de.kutilek.instantAxis.effective = (
194,
22
);
}),
(226,55,c,{
de.kutilek.instantAxis.effective = (
226,
55
);
}),
(247,18,o,{
de.kutilek.instantAxis.effective = (
247,
18
);
}),
(284,-9,o,{
de.kutilek.instantAxis.effective = (
284,
-9
);
}),
(340,-9,cs,{
de.kutilek.instantAxis.effective = (
340,
-9
);
})
);
},
{
closed = 1;
nodes = (
(70,36,o,{
de.kutilek.instantAxis.effective = (
69,
36
);
}),
(44,60,o,{
de.kutilek.instantAxis.effective = (
43,
61
);
}),
(44,115,cs,{
de.kutilek.instantAxis.effective = (
43,
117
);
}),
(44,172,o,{
de.kutilek.instantAxis.effective = (
43,
173
);
}),
(78,209,o,{
de.kutilek.instantAxis.effective = (
77,
209
);
}),
(193,214,c,{
de.kutilek.instantAxis.effective = (
193,
214
);
}),
(193,170,o,{
de.kutilek.instantAxis.effective = (
193,
170
);
}),
(197,129,o,{
de.kutilek.instantAxis.effective = (
197,
129
);
}),
(209,94,c,{
de.kutilek.instantAxis.effective = (
209,
94
);
}),
(174,57,o,{
de.kutilek.instantAxis.effective = (
174,
57
);
}),
(143,36,o,{
de.kutilek.instantAxis.effective = (
143,
36
);
}),
(106,36,cs,{
de.kutilek.instantAxis.effective = (
106,
36
);
})
);
},
{
closed = 1;
nodes = (
(249,352,o,{
de.kutilek.instantAxis.effective = (
249,
352
);
}),
(268,411,o,{
de.kutilek.instantAxis.effective = (
268,
411
);
}),
(326,411,cs,{
de.kutilek.instantAxis.effective = (
326,
411
);
}),
(383,411,o,{
de.kutilek.instantAxis.effective = (
383,
411
);
}),
(405,345,o,{
de.kutilek.instantAxis.effective = (
405,
345
);
}),
(405,256,c,{
de.kutilek.instantAxis.effective = (
405,
257
);
}),
(245,256,l,{
de.kutilek.instantAxis.effective = (
245,
257
);
})
);
}
);
width = 448;
}
);
unicode = 230;
}
{
glyphname = eth;
layers = (
{
background = {
hints = (
{
horizontal = 1;
options = 4;
place = (0,56);
target = (0,6);
type = TTStem;
},
{
horizontal = 1;
place = (0,0);
type = TTSnap;
},
{
horizontal = 1;
place = (0,0);
type = TTSnap;
},
{
horizontal = 1;
options = 4;
place = (0,350);
target = (0,12);
type = TTStem;
},
{
options = 8;
place = (0,0);
type = TTSnap;
},
{
options = 4;
place = (0,121);
target = (0,9);
type = TTStem;
},
{
options = 8;
place = (0,0);
type = TTSnap;
},
{
options = 4;
place = (0,327);
target = (0,3);
type = TTStem;
},
{
options = 4;
other1 = (0,31);
place = (0,400);
target = (0,28);
type = TTInterpolate;
}
);
shapes = (
{
closed = 1;
nodes = (
(132,596,l),
(286,491,o),
(327,389,o),
(327,247,cs),
(327,135,o),
(307,56,o),
(224,56,cs),
(145,56,o),
(121,121,o),
(121,203,cs),
(121,280,o),
(140,350,o),
(223,350,cs),
(263,350,o),
(305,334,o),
(335,311,c),
(362,351,l),
(320,391,o),
(269,414,o),
(215,414,cs),
(122,414,o),
(47,338,o),
(47,203,cs),
(47,74,o),
(115,-8,o),
(221,-8,cs),
(336,-8,o),
(400,80,o),
(400,252,cs),
(400,412,o),
(330,542,o),
(168,648,c)
);
},
{
closed = 1;
nodes = (
(154,461,l),
(341,591,l),
(310,635,l),
(123,505,l)
);
}
);
};
hints = (
{
horizontal = 1;
options = 4;
origin = (0,18);
target = (1,11);
type = TTStem;
},
{
horizontal = 1;
origin = (0,30);
type = TTSnap;
},
{
horizontal = 1;
origin = (0,12);
type = TTSnap;
},
{
horizontal = 1;
options = 4;
origin = (0,12);
target = (1,2);
type = TTStem;
},
{
options = 8;
origin = (0,15);
type = TTSnap;
},
{
options = 4;
origin = (0,15);
target = (1,14);
type = TTStem;
},
{
options = 8;
origin = (0,21);
type = TTSnap;
},
{
options = 4;
origin = (0,21);
target = (1,8);
type = TTStem;
},
{
options = 4;
origin = (0,15);
other1 = (0,30);
target = (0,21);
type = TTInterpolate;
}
);
layerId = "95FB0C11-C828-4064-8966-34220AA4D426";
shapes = (
{
closed = 1;
nodes = (
(132,596,l),
(154,581,o),
(172,567,o),
(190,552,c),
(123,505,l),
(154,461,l),
(230,514,l),
(267,475,o),
(291,435,o),
(306,391,c),
(277,406,o),
(247,414,o),
(215,414,cs),
(122,414,o),
(47,338,o),
(47,203,cs),
(47,74,o),
(115,-8,o),
(221,-8,cs),
(336,-8,o),
(400,80,o),
(400,252,cs),
(400,367,o),
(364,466,o),
(284,552,c),
(341,591,l),
(310,635,l),
(245,590,l),
(222,610,o),
(197,629,o),
(168,648,c)
);
},
{
closed = 1;
nodes = (
(121,280,o),
(140,350,o),
(223,350,cs),
(258,350,o),
(294,338,o),
(323,320,c),
(326,297,o),
(327,272,o),
(327,247,cs),
(327,135,o),
(307,56,o),
(224,56,cs),
(145,56,o),
(121,121,o),
(121,203,cs)
);
}
);
width = 448;
},
{
background = {
shapes = (
{
closed = 1;
nodes = (
(114,569,l),
(259,473,o),
(297,380,o),
(297,251,cs),
(297,146,o),
(283,72,o),
(224,72,cs),
(168,72,o),
(151,130,o),
(151,203,cs),
(151,272,o),
(166,334,o),
(234,334,cs),
(268,334,o),
(303,320,o),
(329,301,c),
(362,351,l),
(320,391,o),
(269,414,o),
(215,414,cs),
(116,414,o),
(37,338,o),
(37,203,cs),
(37,74,o),
(109,-8,o),
(221,-8,cs),
(342,-8,o),
(410,80,o),
(410,252,cs),
(410,412,o),
(338,542,o),
(172,648,c)
);
},
{
closed = 1;
nodes = (
(134,435,l),
(355,588,l),
(314,645,l),
(93,492,l)
);
}
);
};
layerId = "92967D72-867E-4A8B-929F-F44D834DD4C9";
shapes = (
{
closed = 1;
nodes = (
(114,569,l),
(129,559,o),
(144,548,o),
(158,537,c),
(93,492,l),
(134,435,l),
(212,489,l),
(237,462,o),
(255,435,o),
(268,407,c),
(250,412,o),
(233,414,o),
(215,414,cs),
(116,414,o),
(37,338,o),
(37,203,cs),
(37,74,o),
(109,-8,o),
(221,-8,cs),
(342,-8,o),
(410,80,o),
(410,252,cs),
(410,364,o),
(374,463,o),
(296,547,c),
(355,588,l),
(314,645,l),
(243,596,l),
(222,614,o),
(197,632,o),
(172,648,c)
);
},
{
closed = 1;
nodes = (
(151,272,o),
(166,334,o),
(234,334,cs),
(254,334,o),
(275,329,o),
(292,322,c),
(295,300,o),
(297,276,o),
(297,251,cs),
(297,146,o),
(283,72,o),
(224,72,cs),
(168,72,o),
(151,130,o),
(151,203,cs)
);
}
);
width = 448;
},
{
background = {
shapes = (
{
closed = 1;
nodes = (
(143,615,l),
(302,504,o),
(345,395,o),
(345,245,cs),
(345,109,o),
(311,36,o),
(224,36,cs),
(140,36,o),
(103,102,o),
(103,203,cs),
(103,290,o),
(130,370,o),
(216,370,cs),
(262,370,o),
(310,352,o),
(345,327,c),
(362,353,l),
(320,393,o),
(269,414,o),
(215,414,cs),
(120,414,o),
(53,338,o),
(53,203,cs),
(53,74,o),
(119,-8,o),
(221,-8,cs),
(332,-8,o),
(394,80,o),
(394,252,cs),
(394,412,o),
(325,542,o),
(166,648,c)
);
},
{
closed = 1;
nodes = (
(164,480,l),
(331,596,l),
(309,628,l),
(142,512,l)
);
}
);
};
layerId = "7DDCEF54-C770-4FAD-B154-EE8058BAA7E5";
shapes = (
{
closed = 1;
nodes = (
(143,615,l),
(169,597,o),
(192,579,o),
(212,561,c),
(142,512,l),
(164,480,l),
(240,533,l),
(286,484,o),
(314,434,o),
(329,379,c),
(294,402,o),
(256,414,o),
(215,414,cs),
(120,414,o),
(53,338,o),
(53,203,cs),
(53,74,o),
(119,-8,o),
(221,-8,cs),
(332,-8,o),
(394,80,o),
(394,252,cs),
(394,369,o),
(357,470,o),
(275,557,c),
(331,596,l),
(309,628,l),
(247,585,l),
(223,607,o),
(196,628,o),
(166,648,c)
);
},
{
closed = 1;
nodes = (
(103,290,o),
(130,370,o),
(216,370,cs),
(259,370,o),
(304,354,o),
(339,331,c),
(343,304,o),
(345,275,o),
(345,245,cs),
(345,109,o),
(311,36,o),
(224,36,cs),
(140,36,o),
(103,102,o),
(103,203,cs)
);
}
);
width = 448;
}
);
unicode = 240;
}
{
glyphname = oe;
layers = (
{
anchors = (
{
name = bottom;
pos = (224,0);
},
{
name = bottomAttach;
pos = (409,0);
},
{
name = top;
pos = (224,448);
}
);
background = {
anchors = (
{
name = bottom;
pos = (224,0);
},
{
name = bottomAttach;
pos = (409,0);
},
{
name = top;
pos = (224,448);
}
);
hints = (
{
horizontal = 1;
options = 4;
place = (0,393);
target = (1,5);
type = TTStem;
},
{
horizontal = 1;
options = 4;
place = (0,55);
target = (1,11);
type = TTStem;
},
{
horizontal = 1;
options = 4;
place = (0,55);
target = (2,6);
type = TTStem;
},
{
horizontal = 1;
options = 4;
place = (0,393);
target = (2,12);
type = TTStem;
},
{
horizontal = 1;
other1 = (2,9,2,19);
place = (0,457);
target = (2,22);
type = TTInterpolate;
},
{
horizontal = 1;
options = 4;
place = (0,262);
target = (2,12,2,17);
type = TTStem;
},
{
options = 8;
place = (0,0);
type = TTSnap;
},
{
options = 4;
place = (0,60);
target = (1,2);
type = TTStem;
},
{
options = 8;
place = (0,0);
type = TTSnap;
},
{
options = 4;
place = (0,384);
target = (2,15,2,17);
type = TTStem;
},
{
options = 4;
place = (0,448);
target = (2,2);
type = TTShift;
},
{
options = 8;
place = (0,0);
type = TTSnap;
},
{
options = 4;
place = (0,263);
target = (2,9,2,19);
type = TTStem;
},
{
options = 4;
other1 = (0,5,2,25);
place = (0,263);
target = (2,9,2,19);
type = TTInterpolate;
},
{
options = 4;
place = (0,225);
target = (0,2,2,28);
type = TTShift;
}
);
shapes = (
{
closed = 1;
nodes = (
(220,-9,o),
(251,95,o),
(251,224,cs),
(251,353,o),
(223,457,o),
(119,457,cs),
(19,457,o),
(-16,353,o),
(-16,224,cs),
(-16,95,o),
(19,-9,o),
(119,-9,cs)
);
},
{
closed = 1;
nodes = (
(79,55,o),
(60,98,o),
(60,224,cs),
(60,348,o),
(79,393,o),
(124,393,cs),
(170,393,o),
(189,348,o),
(189,224,cs),
(189,98,o),
(170,55,o),
(124,55,cs)
);
},
{
closed = 1;
nodes = (
(378,-9,o),
(412,-2,o),
(448,14,c),
(431,72,l),
(403,62,o),
(376,55,o),
(346,55,cs),
(284,55,o),
(263,98,o),
(263,224,cs),
(263,348,o),
(282,393,o),
(328,393,cs),
(377,393,o),
(388,340,o),
(383,224,c),
(423,262,l),
(229,262,l),
(229,202,l),
(458,202,l),
(469,358,o),
(440,457,o),
(331,457,cs),
(229,457,o),
(199,353,o),
(199,224,cs),
(199,95,o),
(229,-9,o),
(342,-9,cs)
);
}
);
};
hints = (
{
horizontal = 1;
options = 4;
origin = (0,25);
target = (1,5);
type = TTStem;
},
{
horizontal = 1;
options = 4;
origin = (0,31);
target = (1,11);
type = TTStem;
},
{
horizontal = 1;
options = 4;
origin = (0,5);
target = (0,12);
type = TTStem;
},
{
horizontal = 1;
options = 4;
origin = (0,19);
target = (2,2);
type = TTStem;
},
{
horizontal = 1;
origin = (0,5);
other1 = (0,15);
target = (0,19);
type = TTInterpolate;
},
{
horizontal = 1;
options = 4;
origin = (0,15);
target = (2,6);
type = TTStem;
},
{
options = 8;
origin = (0,28);
type = TTSnap;
},
{
options = 4;
origin = (0,28);
target = (1,2);
type = TTStem;
},
{
options = 8;
origin = (0,16);
type = TTSnap;
},
{
options = 4;
origin = (0,16);
target = (2,5);
type = TTStem;
},
{
options = 4;
origin = (0,16);
target = (0,8);
type = TTShift;
},
{
options = 8;
origin = (1,8);
type = TTSnap;
},
{
options = 4;
origin = (1,8);
target = (0,15);
type = TTStem;
},
{
options = 4;
origin = (1,8);
other1 = (0,22);
target = (0,15);
type = TTInterpolate;
},
{
options = 4;
origin = (0,22);
target = (0,2);
type = TTShift;
}
);
layerId = "95FB0C11-C828-4064-8966-34220AA4D426";
shapes = (
{
closed = 1;
nodes = (
(172,-9,o),
(205,19,o),
(225,65,c),
(246,20,o),
(283,-9,o),
(342,-9,cs),
(378,-9,o),
(412,-2,o),
(448,14,c),
(431,72,l),
(403,62,o),
(376,55,o),
(346,55,cs),
(288,55,o),
(266,92,o),
(263,202,c),
(458,202,l),
(469,358,o),
(440,457,o),
(331,457,cs),
(279,457,o),
(245,430,o),
(225,386,c),
(205,431,o),
(172,457,o),
(119,457,cs),
(19,457,o),
(-16,353,o),
(-16,224,cs),
(-16,95,o),
(19,-9,o),
(119,-9,cs)
);
},
{
closed = 1;
nodes = (
(79,55,o),
(60,98,o),
(60,224,cs),
(60,348,o),
(79,393,o),
(124,393,cs),
(170,393,o),
(189,348,o),
(189,224,cs),
(189,98,o),
(170,55,o),
(124,55,cs)
);
},
{
closed = 1;
nodes = (
(268,358,o),
(287,393,o),
(328,393,cs),
(371,393,o),
(385,352,o),
(384,262,c),
(264,262,l)
);
}
);
width = 448;
},
{
anchors = (
{
name = bottom;
pos = (224,0);
},
{
name = bottomAttach;
pos = (414,0);
},
{
name = top;
pos = (224,448);
}
);
background = {
anchors = (
{
name = bottom;
pos = (224,0);
},
{
name = bottomAttach;
pos = (414,0);
},
{
name = top;
pos = (224,448);
}
);
shapes = (
{
closed = 1;
nodes = (
(235,-9,o),
(269,95,o),
(269,224,cs),
(269,355,o),
(239,461,o),
(126,461,cs),
(14,461,o),
(-26,355,o),
(-26,224,cs),
(-26,95,o),
(14,-9,o),
(126,-9,cs)
);
},
{
closed = 1;
nodes = (
(102,71,o),
(90,110,o),
(90,224,cs),
(90,339,o),
(102,381,o),
(129,381,cs),
(160,381,o),
(173,339,o),
(173,224,cs),
(173,110,o),
(160,71,o),
(129,71,cs)
);
},
{
closed = 1;
nodes = (
(380,-9,o),
(418,-2,o),
(456,14,c),
(439,88,l),
(413,78,o),
(387,71,o),
(359,71,cs),
(302,71,o),
(287,110,o),
(287,224,cs),
(287,339,o),
(298,381,o),
(323,381,cs),
(352,381,o),
(358,332,o),
(356,224,c),
(423,265,l),
(229,265,l),
(229,189,l),
(471,189,l),
(483,352,o),
(452,461,o),
(331,461,cs),
(221,461,o),
(189,355,o),
(189,224,cs),
(189,95,o),
(222,-9,o),
(344,-9,cs)
);
}
);
};
layerId = "92967D72-867E-4A8B-929F-F44D834DD4C9";
shapes = (
{
closed = 1;
nodes = (
(174,-9,o),
(208,12,o),
(230,45,c),
(254,11,o),
(290,-9,o),
(344,-9,cs),
(380,-9,o),
(418,-2,o),
(456,14,c),
(439,88,l),
(413,78,o),
(387,71,o),
(359,71,cs),
(308,71,o),
(291,103,o),
(288,189,c),
(471,189,l),
(483,352,o),
(452,461,o),
(331,461,cs),
(284,461,o),
(251,442,o),
(229,410,c),
(207,442,o),
(174,461,o),
(126,461,cs),
(14,461,o),
(-26,355,o),
(-26,224,cs),
(-26,95,o),
(14,-9,o),
(126,-9,cs)
);
},
{
closed = 1;
nodes = (
(102,71,o),
(90,110,o),
(90,224,cs),
(90,339,o),
(102,381,o),
(129,381,cs),
(160,381,o),
(173,339,o),
(173,224,cs),
(173,110,o),
(160,71,o),
(129,71,cs)
);
},
{
closed = 1;
nodes = (
(290,348,o),
(301,381,o),
(323,381,cs),
(348,381,o),
(356,344,o),
(356,265,c),
(288,265,l)
);
}
);
width = 448;
},
{
anchors = (
{
name = bottom;
pos = (224,0);
},
{
name = bottomAttach;
pos = (405,0);
},
{
name = top;
pos = (224,448);
}
);
background = {
anchors = (
{
name = bottom;
pos = (224,0);
},
{
name = bottomAttach;
pos = (405,0);
},
{
name = top;
pos = (224,448);
}
);
shapes = (
{
closed = 1;
nodes = (
(214,-9,o),
(250,95,o),
(250,224,cs),
(250,353,o),
(218,457,o),
(122,457,cs),
(23,457,o),
(-10,353,o),
(-10,224,cs),
(-10,95,o),
(23,-9,o),
(122,-9,cs)
);
},
{
closed = 1;
nodes = (
(68,33,o),
(41,83,o),
(41,224,cs),
(41,363,o),
(66,415,o),
(122,415,cs),
(179,415,o),
(204,363,o),
(204,224,cs),
(204,83,o),
(177,33,o),
(122,33,cs)
);
},
{
closed = 1;
nodes = (
(380,-9,o),
(411,-1,o),
(441,14,c),
(432,51,l),
(405,40,o),
(377,33,o),
(352,33,cs),
(276,33,o),
(255,105,o),
(255,224,cs),
(255,362,o),
(277,413,o),
(330,413,cs),
(384,413,o),
(411,354,o),
(404,224,c),
(423,256,l),
(229,256,l),
(229,214,l),
(455,214,l),
(463,369,o),
(414,457,o),
(330,457,cs),
(240,457,o),
(209,353,o),
(209,224,cs),
(209,95,o),
(240,-9,o),
(344,-9,cs)
);
}
);
};
layerId = "7DDCEF54-C770-4FAD-B154-EE8058BAA7E5";
shapes = (
{
closed = 1;
nodes = (
(175,-9,o),
(209,25,o),
(229,79,c),
(248,26,o),
(284,-9,o),
(344,-9,cs),
(380,-9,o),
(411,-1,o),
(441,14,c),
(432,51,l),
(405,40,o),
(377,33,o),
(352,33,cs),
(278,33,o),
(256,102,o),
(255,214,c),
(455,214,l),
(463,369,o),
(414,457,o),
(330,457,cs),
(279,457,o),
(247,423,o),
(229,372,c),
(210,423,o),
(176,457,o),
(122,457,cs),
(23,457,o),
(-10,353,o),
(-10,224,cs),
(-10,95,o),
(23,-9,o),
(122,-9,cs)
);
},
{
closed = 1;
nodes = (
(68,33,o),
(41,83,o),
(41,224,cs),
(41,363,o),
(66,415,o),
(122,415,cs),
(179,415,o),
(204,363,o),
(204,224,cs),
(204,83,o),
(177,33,o),
(122,33,cs)
);
},
{
closed = 1;
nodes = (
(259,371,o),
(281,413,o),
(330,413,cs),
(379,413,o),
(406,363,o),
(405,256,c),
(255,256,l)
);
}
);
width = 448;
}
);
unicode = 339;
}
{
glyphname = Chook;
kernLeft = O;
kernRight = C;
layers = (
{
anchors = (
{
name = bottom;
pos = (224,0);
},
{
name = top;
pos = (256,816);
}
);
background = {
shapes = (
{
closed = 1;
nodes = (
(309,-9,o),
(351,-4,o),
(384,5,c),
(370,66,l),
(337,58,o),
(306,55,o),
(280,55,cs),
(149,55,o),
(138,131,o),
(138,319,cs),
(138,507,o),
(149,583,o),
(280,583,cs),
(303,583,o),
(330,580,o),
(356,574,c),
(368,629,l),
(338,641,o),
(302,645,o),
(266,645,cs),
(118,645,o),
(60,560,o),
(60,319,cs),
(60,78,o),
(118,-9,o),
(274,-9,cs)
);
},
{
closed = 1;
nodes = (
(377,633,l),
(329,663,o),
(313,690,o),
(313,724,cs),
(313,755,o),
(330,772,o),
(367,772,cs),
(378,772,o),
(396,770,o),
(407,768,c),
(417,824,l),
(404,828,o),
(383,832,o),
(362,832,cs),
(293,832,o),
(247,794,o),
(247,728,cs),
(247,679,o),
(276,626,o),
(341,599,c),
(356,574,l)
);
}
);
};
hints = (
{
horizontal = 1;
options = 4;
origin = (0,44);
target = (0,6);
type = TTStem;
},
{
horizontal = 1;
options = 4;
origin = (0,38);
target = (0,12);
type = TTStem;
},
{
options = 4;
origin = (0,41);
target = (0,9);
type = TTStem;
},
{
options = 8;
origin = (0,2);
type = TTSnap;
},
{
options = 4;
origin = (0,2);
target = (0,16);
type = TTShift;
},
{
options = 8;
origin = (0,41);
type = TTSnap;
},
{
horizontal = 1;
origin = (0,38);
stem = -1;
target = (0,29);
type = TTStem;
},
{
horizontal = 1;
options = 4;
origin = (0,29);
target = (0,22);
type = TTStem;
},
{
origin = (0,41);
other1 = (0,32);
target = (0,2);
type = TTInterpolate;
},
{
options = 4;
origin = (0,32);
target = (0,19);
type = TTStem;
},
{
origin = (0,2);
target = (0,26);
type = TTShift;
}
);
layerId = "95FB0C11-C828-4064-8966-34220AA4D426";
shapes = (
{
closed = 1;
nodes = (
(309,-9,o),
(351,-4,o),
(384,5,c),
(370,66,l),
(337,58,o),
(306,55,o),
(280,55,cs),
(149,55,o),
(138,131,o),
(138,319,cs),
(138,507,o),
(149,583,o),
(280,583,cs),
(303,583,o),
(330,580,o),
(356,574,c),
(377,633,l),
(329,663,o),
(313,690,o),
(313,724,cs),
(313,755,o),
(330,772,o),
(367,772,cs),
(378,772,o),
(396,770,o),
(407,768,c),
(417,824,l),
(404,828,o),
(383,832,o),
(362,832,cs),
(293,832,o),
(247,794,o),
(247,728,cs),
(247,700,o),
(257,669,o),
(277,645,c),
(274,645,o),
(270,645,o),
(266,645,cs),
(118,645,o),
(60,560,o),
(60,319,cs),
(60,78,o),
(118,-9,o),
(274,-9,cs)
);
}
);
width = 448;
},
{
anchors = (
{
name = bottom;
pos = (224,0);
},
{
name = top;
pos = (256,816);
}
);
background = {
shapes = (
{
closed = 1;
nodes = (
(314,-9,o),
(359,-3,o),
(394,8,c),
(380,82,l),
(350,74,o),
(322,71,o),
(298,71,cs),
(178,71,o),
(168,142,o),
(168,319,cs),
(168,496,o),
(178,567,o),
(297,567,cs),
(320,567,o),
(348,564,o),
(374,558,c),
(383,618,l),
(352,632,o),
(308,643,o),
(263,643,cs),
(112,643,o),
(50,560,o),
(50,319,cs),
(50,78,o),
(112,-9,o),
(277,-9,cs)
);
},
{
closed = 1;
nodes = (
(392,623,l),
(348,649,o),
(333,675,o),
(333,708,cs),
(333,736,o),
(347,756,o),
(380,756,cs),
(392,756,o),
(406,754,o),
(416,751,c),
(427,824,l),
(409,829,o),
(381,832,o),
(352,832,cs),
(277,832,o),
(227,796,o),
(227,731,cs),
(227,679,o),
(262,619,o),
(339,591,c),
(374,558,l)
);
}
);
};
layerId = "92967D72-867E-4A8B-929F-F44D834DD4C9";
shapes = (
{
closed = 1;
nodes = (
(314,-9,o),
(359,-3,o),
(394,8,c),
(380,82,l),
(350,74,o),
(322,71,o),
(298,71,cs),
(178,71,o),
(168,142,o),
(168,319,cs),
(168,496,o),
(178,567,o),
(297,567,cs),
(320,567,o),
(348,564,o),
(374,558,c),
(392,623,l),
(348,649,o),
(333,675,o),
(333,708,cs),
(333,736,o),
(347,756,o),
(380,756,cs),
(392,756,o),
(406,754,o),
(416,751,c),
(427,824,l),
(409,829,o),
(381,832,o),
(352,832,cs),
(277,832,o),
(227,796,o),
(227,731,cs),
(227,702,o),
(237,671,o),
(261,643,c),
(261,643,o),
(260,643,o),
(260,643,c),
(112,643,o),
(50,560,o),
(50,319,cs),
(50,78,o),
(112,-9,o),
(277,-9,cs)
);
}
);
width = 448;
},
{
anchors = (
{
name = bottom;
pos = (224,0);
},
{
name = top;
pos = (256,816);
}
);
background = {
shapes = (
{
closed = 1;
nodes = (
(306,-9,o),
(344,-3,o),
(376,4,c),
(370,44,l),
(335,38,o),
(303,35,o),
(277,35,cs),
(150,35,o),
(120,117,o),
(120,319,cs),
(120,521,o),
(147,603,o),
(275,603,cs),
(301,603,o),
(335,599,o),
(364,591,c),
(371,624,l),
(341,639,o),
(302,645,o),
(266,645,cs),
(122,645,o),
(66,560,o),
(66,319,cs),
(66,78,o),
(122,-9,o),
(272,-9,cs)
);
},
{
closed = 1;
nodes = (
(377,629,l),
(321,654,o),
(300,687,o),
(300,726,cs),
(300,764,o),
(316,788,o),
(358,788,cs),
(374,788,o),
(391,785,o),
(403,782,c),
(413,820,l),
(396,826,o),
(374,830,o),
(353,830,cs),
(293,830,o),
(254,789,o),
(254,729,cs),
(254,678,o),
(284,640,o),
(344,613,c),
(364,591,l)
);
}
);
};
layerId = "7DDCEF54-C770-4FAD-B154-EE8058BAA7E5";
shapes = (
{
closed = 1;
nodes = (
(306,-9,o),
(344,-3,o),
(376,4,c),
(370,44,l),
(335,38,o),
(303,35,o),
(277,35,cs),
(150,35,o),
(120,117,o),
(120,319,cs),
(120,521,o),
(147,603,o),
(275,603,cs),
(301,603,o),
(335,599,o),
(364,591,c),
(377,629,l),
(321,654,o),
(300,687,o),
(300,726,cs),
(300,764,o),
(316,788,o),
(358,788,cs),
(374,788,o),
(391,785,o),
(403,782,c),
(413,820,l),
(396,826,o),
(374,830,o),
(353,830,cs),
(293,830,o),
(254,789,o),
(254,729,cs),
(254,695,o),
(267,667,o),
(294,644,c),
(284,645,o),
(275,645,o),
(266,645,cs),
(122,645,o),
(66,560,o),
(66,319,cs),
(66,78,o),
(122,-9,o),
(272,-9,cs)
);
}
);
width = 448;
}
);
unicode = 391;
}
